EncodeSansSemiCondensed-Bold.ufo
<glyph name="exclam" format="2">
  <advance width="562.7020202020202"/>
  <unicode hex="0021"/>
  <outline>
    <contour>
      <point x="189.25505050505052" y="467.6363636363636" type="line"/>
      <point x="376.60606060606057" y="467.6363636363636" type="line"/>
      <point x="444.41666666666663" y="964.4141414141413" type="line"/>
      <point x="444.41666666666663" y="1480.0" type="line"/>
      <point x="118.28535353535355" y="1480.0" type="line"/>
      <point x="118.28535353535355" y="964.4141414141413" type="line"/>
    </contour>
    <contour>
      <point x="281.3510101010101" y="-17.02020202020202" type="curve" smooth="yes"/>
      <point x="399.83838383838383" y="-17.02020202020202"/>
      <point x="480.2449494949494" y="57.174242424242415"/>
      <point x="480.2449494949494" y="167.1313131313131" type="curve" smooth="yes"/>
      <point x="480.2449494949494" y="277.08838383838383"/>
      <point x="402.6464646464646" y="351.8787878787878"/>
      <point x="281.3510101010101" y="351.8787878787878" type="curve" smooth="yes"/>
      <point x="160.05555555555557" y="351.8787878787878"/>
      <point x="82.45707070707073" y="279.8964646464646"/>
      <point x="82.45707070707073" y="167.1313131313131" type="curve" smooth="yes"/>
      <point x="82.45707070707073" y="54.366161616161605"/>
      <point x="162.86363636363637" y="-17.02020202020202"/>
    </contour>
  </outline>
</glyph>
<glyph name="percent" format="2">
  <advance width="1980.5631313131312"/>
  <unicode hex="0025"/>
  <note>
450
</note>
  <outline>
    <contour>
      <point x="552.3838383838383" y="0.0" type="line"/>
      <point x="799.4949494949494" y="0.0" type="line"/>
      <point x="1428.1792929292928" y="1480.0" type="line"/>
      <point x="1181.0681818181818" y="1480.0" type="line"/>
    </contour>
    <contour>
      <point x="456.41666666666663" y="569.5757575757576" type="curve" smooth="yes"/>
      <point x="684.2272727272727" y="569.5757575757576"/>
      <point x="839.1262626262626" y="714.5505050505051"/>
      <point x="839.1262626262626" y="1034.840909090909" type="curve" smooth="yes"/>
      <point x="839.1262626262626" y="1355.1313131313132"/>
      <point x="684.9722222222222" y="1499.4040404040404"/>
      <point x="456.41666666666663" y="1499.4040404040404" type="curve" smooth="yes"/>
      <point x="227.86111111111111" y="1499.4040404040404"/>
      <point x="73.70707070707071" y="1355.1313131313132"/>
      <point x="73.70707070707071" y="1034.840909090909" type="curve" smooth="yes"/>
      <point x="73.70707070707071" y="714.5505050505051"/>
      <point x="228.6060606060606" y="569.5757575757576"/>
    </contour>
    <contour>
      <point x="456.41666666666663" y="764.4065656565656" type="curve" smooth="yes"/>
      <point x="374.4191919191919" y="764.4065656565656"/>
      <point x="317.11616161616155" y="827.060606060606"/>
      <point x="317.11616161616155" y="1035.4368686868686" type="curve" smooth="yes"/>
      <point x="317.11616161616155" y="1242.919191919192"/>
      <point x="374.4191919191919" y="1304.5732323232323"/>
      <point x="456.41666666666663" y="1304.5732323232323" type="curve" smooth="yes"/>
      <point x="538.2651515151515" y="1304.5732323232323"/>
      <point x="595.7171717171717" y="1242.919191919192"/>
      <point x="595.7171717171717" y="1034.2449494949494" type="curve" smooth="yes"/>
      <point x="595.7171717171717" y="826.4646464646464"/>
      <point x="538.2651515151515" y="764.4065656565656"/>
    </contour>
    <contour>
      <point x="1524.1464646464647" y="-18.0" type="curve" smooth="yes"/>
      <point x="1752.4040404040402" y="-18.0"/>
      <point x="1906.8560606060605" y="126.97474747474747"/>
      <point x="1906.8560606060605" y="447.2651515151515" type="curve" smooth="yes"/>
      <point x="1906.8560606060605" y="767.5555555555555"/>
      <point x="1752.2550505050503" y="911.8282828282828"/>
      <point x="1524.1464646464647" y="911.8282828282828" type="curve" smooth="yes"/>
      <point x="1296.0378787878788" y="911.8282828282828"/>
      <point x="1141.4368686868686" y="767.5555555555555"/>
      <point x="1141.4368686868686" y="447.2651515151515" type="curve" smooth="yes"/>
      <point x="1141.4368686868686" y="126.97474747474747"/>
      <point x="1295.888888888889" y="-18.0"/>
    </contour>
    <contour>
      <point x="1524.1464646464647" y="176.83080808080805" type="curve" smooth="yes"/>
      <point x="1442.2979797979797" y="176.83080808080805"/>
      <point x="1384.8459595959596" y="239.48484848484847"/>
      <point x="1384.8459595959596" y="447.8611111111111" type="curve" smooth="yes"/>
      <point x="1384.8459595959596" y="655.3434343434344"/>
      <point x="1442.2979797979797" y="716.9974747474748"/>
      <point x="1524.1464646464647" y="716.9974747474748" type="curve" smooth="yes"/>
      <point x="1605.9949494949494" y="716.9974747474748"/>
      <point x="1663.4469696969695" y="655.3434343434344"/>
      <point x="1663.4469696969695" y="446.6691919191919" type="curve" smooth="yes"/>
      <point x="1663.4469696969695" y="238.88888888888886"/>
      <point x="1605.9949494949494" y="176.83080808080805"/>
    </contour>
  </outline>
</glyph>
<glyph name="ampersand" format="2">
  <advance width="1514.3989898989898"/>
  <unicode hex="0026"/>
  <outline>
    <contour>
      <point x="1361.3838383838383" y="-20.0" type="line"/>
      <point x="1514.3989898989898" y="211.06818181818178" type="line"/>
      <point x="683.7171717171717" y="809.3686868686868" type="line" smooth="yes"/>
      <point x="571.6691919191919" y="896.8737373737374"/>
      <point x="534.6666666666666" y="956.689393939394"/>
      <point x="534.6666666666666" y="1043.0934343434344" type="curve" smooth="yes"/>
      <point x="534.6666666666666" y="1169.4267676767677"/>
      <point x="615.2045454545455" y="1243.5075757575758"/>
      <point x="838.4116161616162" y="1243.5075757575758" type="curve" smooth="yes"/>
      <point x="910.1666666666666" y="1243.5075757575758"/>
      <point x="991.7171717171717" y="1234.199494949495"/>
      <point x="1059.8459595959596" y="1219.1666666666667" type="curve"/>
      <point x="1059.8459595959596" y="1475.659090909091" type="line"/>
      <point x="986.6136363636364" y="1489.9040404040404"/>
      <point x="906.6363636363636" y="1499.4040404040404"/>
      <point x="813.8308080808081" y="1499.4040404040404" type="curve" smooth="yes"/>
      <point x="415.3459595959596" y="1499.4040404040404"/>
      <point x="223.97979797979798" y="1329.0252525252524"/>
      <point x="223.97979797979798" y="1045.4545454545455" type="curve" smooth="yes"/>
      <point x="223.97979797979798" y="885.25"/>
      <point x="290.9166666666667" y="751.219696969697"/>
      <point x="530.7020202020202" y="578.3005050505051" type="curve" smooth="yes"/>
    </contour>
    <contour>
      <point x="650.4747474747475" y="-18.0" type="curve" smooth="yes"/>
      <point x="1041.3131313131312" y="-18.0"/>
      <point x="1284.2727272727273" y="193.97222222222223"/>
      <point x="1284.2727272727273" y="611.6186868686868" type="curve" smooth="yes"/>
      <point x="1284.2727272727273" y="688.2373737373737"/>
      <point x="1273.4747474747473" y="779.5151515151515"/>
      <point x="1252.590909090909" y="862.4949494949494" type="curve"/>
      <point x="1003.5757575757576" y="862.4949494949494" type="line"/>
      <point x="1024.9065656565656" y="779.5151515151515"/>
      <point x="1036.800505050505" y="686.5353535353535"/>
      <point x="1036.800505050505" y="608.5126262626262" type="curve" smooth="yes"/>
      <point x="1036.800505050505" y="311.1287878787879"/>
      <point x="889.2878787878788" y="207.35858585858583"/>
      <point x="685.1186868686868" y="207.35858585858583" type="curve" smooth="yes"/>
      <point x="503.7752525252525" y="207.35858585858583"/>
      <point x="403.0252525252525" y="295.0479797979798"/>
      <point x="403.0252525252525" y="440.59090909090907" type="curve" smooth="yes"/>
      <point x="403.0252525252525" y="542.8762626262626"/>
      <point x="446.6893939393939" y="616.5429292929293"/>
      <point x="523.4343434343434" y="670.8863636363636" type="curve"/>
      <point x="364.9318181818182" y="795.8333333333334" type="line"/>
      <point x="210.2171717171717" y="738.0631313131313"/>
      <point x="94.44444444444446" y="598.1262626262626"/>
      <point x="94.44444444444446" y="405.1060606060606" type="curve" smooth="yes"/>
      <point x="94.44444444444446" y="148.8939393939394"/>
      <point x="285.8030303030303" y="-18.0"/>
    </contour>
  </outline>
</glyph>
<glyph name="quotesingle" format="2">
  <advance width="446.4343434343434"/>
  <unicode hex="0027"/>
  <outline>
    <contour>
      <point x="129.50505050505052" y="849.9949494949495" type="line"/>
      <point x="316.9292929292929" y="849.9949494949495" type="line"/>
      <point x="375.8914141414141" y="1616.0" type="line"/>
      <point x="70.5429292929293" y="1616.0" type="line"/>
    </contour>
  </outline>
</glyph>
<glyph name="parenleft" format="2">
  <advance width="675.8585858585859"/>
  <unicode hex="0028"/>
  <outline>
    <contour>
      <point x="405.32575757575756" y="-440.0" type="curve"/>
      <point x="717.1085858585858" y="-440.0" type="line"/>
      <point x="505.0959595959596" y="-139.17929292929293"/>
      <point x="410.60606060606057" y="199.39646464646466"/>
      <point x="410.60606060606057" y="588.0" type="curve" smooth="yes"/>
      <point x="410.60606060606057" y="976.6035353535353"/>
      <point x="505.0959595959596" y="1315.1792929292928"/>
      <point x="717.1085858585858" y="1616.0" type="curve"/>
      <point x="405.32575757575756" y="1616.0" type="line"/>
      <point x="187.739898989899" y="1332.7095959595958"/>
      <point x="95.35606060606061" y="983.3055555555555"/>
      <point x="95.35606060606061" y="588.0" type="curve" smooth="yes"/>
      <point x="95.35606060606061" y="192.69444444444446"/>
      <point x="187.739898989899" y="-156.70959595959596"/>
    </contour>
  </outline>
</glyph>
<glyph name="parenright" format="2">
  <advance width="675.8585858585859"/>
  <unicode hex="0029"/>
  <outline>
    <contour>
      <point x="-41.24999999999997" y="-440.0" type="curve"/>
      <point x="270.5328282828283" y="-440.0" type="line"/>
      <point x="488.11868686868684" y="-156.70959595959596"/>
      <point x="580.5025252525252" y="192.69444444444446"/>
      <point x="580.5025252525252" y="588.0" type="curve" smooth="yes"/>
      <point x="580.5025252525252" y="983.3055555555555"/>
      <point x="488.11868686868684" y="1332.7095959595958"/>
      <point x="270.5328282828283" y="1616.0" type="curve"/>
      <point x="-41.24999999999997" y="1616.0" type="line"/>
      <point x="170.76262626262627" y="1315.1792929292928"/>
      <point x="265.2525252525253" y="976.6035353535353"/>
      <point x="265.2525252525253" y="588.0" type="curve" smooth="yes"/>
      <point x="265.2525252525253" y="199.39646464646466"/>
      <point x="170.76262626262627" y="-139.17929292929293"/>
    </contour>
  </outline>
</glyph>
<glyph name="asterisk" format="2">
  <advance width="981.3838383838383"/>
  <unicode hex="002A"/>
  <outline>
    <contour>
      <point x="603.0404040404039" y="1140.4469696969697" type="line"/>
      <point x="796.4772727272727" y="1166.6843434343434" type="line"/>
      <point x="951.3838383838383" y="1216.770202020202" type="line"/>
      <point x="886.8055555555555" y="1414.7171717171718" type="line"/>
      <point x="732.4949494949494" y="1363.578282828283" type="line"/>
      <point x="558.290404040404" y="1268.729797979798" type="line"/>
      <point x="594.6489898989898" y="1463.9545454545455" type="line"/>
      <point x="594.6489898989898" y="1616.0" type="line"/>
      <point x="386.7348484848485" y="1616.0" type="line"/>
      <point x="386.7348484848485" y="1463.9545454545455" type="line"/>
      <point x="423.09343434343435" y="1268.729797979798" type="line"/>
      <point x="248.88888888888889" y="1363.578282828283" type="line"/>
      <point x="94.57828282828282" y="1414.7171717171718" type="line"/>
      <point x="30.0" y="1216.770202020202" type="line"/>
      <point x="184.90656565656565" y="1166.6843434343434" type="line"/>
      <point x="378.34343434343435" y="1140.4469696969697" type="line"/>
      <point x="235.81313131313132" y="1005.5075757575758" type="line"/>
      <point x="145.30050505050505" y="880.8030303030303" type="line"/>
      <point x="313.83585858585855" y="758.209595959596" type="line"/>
      <point x="404.3484848484848" y="882.5631313131313" type="line"/>
      <point x="490.69191919191917" y="1066.391414141414" type="line"/>
      <point x="577.0353535353536" y="882.5631313131313" type="line"/>
      <point x="667.5479797979798" y="758.209595959596" type="line"/>
      <point x="836.0833333333333" y="880.8030303030303" type="line"/>
      <point x="745.570707070707" y="1005.5075757575758" type="line"/>
    </contour>
  </outline>
</glyph>
<glyph name="plus" format="2">
  <advance width="1064.9747474747476"/>
  <unicode hex="002B"/>
  <outline>
    <contour>
      <point x="408.979797979798" y="327.4545454545455" type="line"/>
      <point x="655.9949494949494" y="327.4545454545455" type="line"/>
      <point x="655.9949494949494" y="641.6515151515151" type="line"/>
      <point x="957.5631313131313" y="641.6515151515151" type="line"/>
      <point x="957.5631313131313" y="878.3484848484849" type="line"/>
      <point x="655.9949494949494" y="878.3484848484849" type="line"/>
      <point x="655.9949494949494" y="1192.5454545454545" type="line"/>
      <point x="408.979797979798" y="1192.5454545454545" type="line"/>
      <point x="408.979797979798" y="878.3484848484849" type="line"/>
      <point x="107.41161616161617" y="878.3484848484849" type="line"/>
      <point x="107.41161616161617" y="641.6515151515151" type="line"/>
      <point x="408.979797979798" y="641.6515151515151" type="line"/>
    </contour>
  </outline>
</glyph>
<glyph name="comma" format="2">
  <advance width="522.7020202020202"/>
  <unicode hex="002C"/>
  <outline>
    <contour>
      <point x="132.7247474747475" y="-342.1212121212121" type="curve"/>
      <point x="308.00252525252523" y="-342.1212121212121" type="line"/>
      <point x="398.6540404040404" y="-214.42424242424244"/>
      <point x="459.5429292929292" y="-44.26262626262627"/>
      <point x="459.5429292929292" y="116.59343434343432" type="curve" smooth="yes"/>
      <point x="459.5429292929292" y="282.5984848484848"/>
      <point x="387.91161616161617" y="365.2171717171717"/>
      <point x="256.5429292929293" y="365.2171717171717" type="curve" smooth="yes"/>
      <point x="139.45959595959596" y="365.2171717171717"/>
      <point x="62.45707070707072" y="294.98989898989896"/>
      <point x="62.45707070707072" y="174.3964646464646" type="curve" smooth="yes"/>
      <point x="62.45707070707072" y="56.36616161616161"/>
      <point x="144.96969696969697" y="-17.02020202020202"/>
      <point x="261.3510101010101" y="-17.02020202020202" type="curve" smooth="yes"/>
      <point x="300.02777777777777" y="-17.02020202020202" type="line"/>
      <point x="233.1969696969697" y="40.080808080808076" type="line"/>
      <point x="233.1969696969697" y="-84.38383838383838"/>
      <point x="196.10353535353534" y="-200.04040404040404"/>
    </contour>
  </outline>
</glyph>
<glyph name="hyphen" format="2">
  <advance width="822.6464646464647"/>
  <unicode hex="002D"/>
  <outline>
    <contour>
      <point x="107.41161616161617" y="442.7045454545455" type="line"/>
      <point x="715.2348484848485" y="442.7045454545455" type="line"/>
      <point x="715.2348484848485" y="691.3358585858585" type="line"/>
      <point x="107.41161616161617" y="691.3358585858585" type="line"/>
    </contour>
  </outline>
</glyph>
<glyph name="slash" format="2">
  <advance width="718.8232323232323"/>
  <unicode hex="002F"/>
  <outline>
    <contour>
      <point x="0.0" y="-240.0" type="line"/>
      <point x="297.30555555555554" y="-240.0" type="line"/>
      <point x="718.8232323232323" y="1616.0" type="line"/>
      <point x="421.5176767676768" y="1616.0" type="line"/>
    </contour>
  </outline>
</glyph>
<glyph name="zero" format="2">
  <advance width="1251.4368686868686"/>
  <unicode hex="0030"/>
  <note>
600
</note>
  <outline>
    <contour>
      <point x="625.5429292929293" y="-19.404040404040405" type="curve" smooth="yes"/>
      <point x="965.7020202020201" y="-19.404040404040405"/>
      <point x="1166.080808080808" y="204.7828282828283"/>
      <point x="1166.080808080808" y="740.0" type="curve" smooth="yes"/>
      <point x="1166.080808080808" y="1275.2171717171718"/>
      <point x="966.5959595959596" y="1499.4040404040404"/>
      <point x="625.5429292929293" y="1499.4040404040404" type="curve" smooth="yes"/>
      <point x="284.48989898989896" y="1499.4040404040404"/>
      <point x="85.35606060606061" y="1275.2171717171718"/>
      <point x="85.35606060606061" y="740.0" type="curve" smooth="yes"/>
      <point x="85.35606060606061" y="204.7828282828283"/>
      <point x="285.3838383838384" y="-19.404040404040405"/>
    </contour>
    <contour>
      <point x="625.8939393939394" y="237.1944444444444" type="curve" smooth="yes"/>
      <point x="474.7979797979798" y="237.1944444444444"/>
      <point x="391.1287878787879" y="354.1262626262626"/>
      <point x="391.1287878787879" y="741.1919191919192" type="curve" smooth="yes"/>
      <point x="391.1287878787879" y="1125.8737373737374"/>
      <point x="475.5" y="1242.8055555555557"/>
      <point x="625.8939393939394" y="1242.8055555555557" type="curve" smooth="yes"/>
      <point x="775.9368686868687" y="1242.8055555555557"/>
      <point x="860.3080808080808" y="1125.8737373737374"/>
      <point x="860.3080808080808" y="738.8080808080808" type="curve" smooth="yes"/>
      <point x="860.3080808080808" y="354.1262626262626"/>
      <point x="775.9368686868687" y="237.1944444444444"/>
    </contour>
  </outline>
</glyph>
<glyph name="one" format="2">
  <advance width="751.85101010101"/>
  <unicode hex="0031"/>
  <outline>
    <contour>
      <point x="309.76262626262627" y="0.0" type="line"/>
      <point x="619.959595959596" y="0.0" type="line"/>
      <point x="619.959595959596" y="1485.4040404040404" type="line"/>
      <point x="425.5151515151515" y="1485.4040404040404" type="line"/>
      <point x="19.393939393939394" y="1210.5530303030303" type="line"/>
      <point x="19.393939393939394" y="920.5858585858587" type="line"/>
      <point x="425.5151515151515" y="1195.138888888889" type="line"/>
      <point x="309.76262626262627" y="1289.888888888889" type="line"/>
    </contour>
  </outline>
</glyph>
<glyph name="two" format="2">
  <advance width="1001.2777777777777"/>
  <unicode hex="0032"/>
  <outline>
    <contour>
      <point x="43.00252525252526" y="0.0" type="line"/>
      <point x="952.4242424242424" y="0.0" type="line"/>
      <point x="952.4242424242424" y="263.72474747474746" type="line"/>
      <point x="376.6414141414141" y="263.72474747474746" type="line"/>
      <point x="387.6742424242424" y="186.020202020202" type="line"/>
      <point x="691.5479797979798" y="590.6515151515151" type="line" smooth="yes"/>
      <point x="838.570707070707" y="784.4444444444445"/>
      <point x="886.3055555555555" y="928.719696969697"/>
      <point x="886.7525252525252" y="1072.9343434343434" type="curve" smooth="yes"/>
      <point x="887.6464646464647" y="1373.5555555555557"/>
      <point x="697.5353535353536" y="1499.4040404040404"/>
      <point x="362.02777777777777" y="1499.4040404040404" type="curve" smooth="yes"/>
      <point x="248.80555555555554" y="1499.4040404040404"/>
      <point x="108.82070707070707" y="1477.5"/>
      <point x="24.39646464646465" y="1446.010101010101" type="curve"/>
      <point x="24.39646464646465" y="1189.5176767676767" type="line"/>
      <point x="111.07828282828284" y="1223.9545454545455"/>
      <point x="217.76767676767676" y="1243.5075757575758"/>
      <point x="323.0656565656566" y="1243.5075757575758" type="curve" smooth="yes"/>
      <point x="501.729797979798" y="1243.5075757575758"/>
      <point x="579.820707070707" y="1181.4621212121212"/>
      <point x="579.820707070707" y="1045.2575757575758" type="curve" smooth="yes"/>
      <point x="579.820707070707" y="945.2727272727273"/>
      <point x="534.7449494949495" y="839.7045454545455"/>
      <point x="416.65656565656565" y="678.2828282828283" type="curve" smooth="yes"/>
      <point x="43.00252525252526" y="170.22474747474743" type="line"/>
    </contour>
  </outline>
</glyph>
<glyph name="three" format="2">
  <advance width="1016.6969696969697"/>
  <unicode hex="0033"/>
  <outline>
    <contour>
      <point x="389.79545454545456" y="-19.404040404040405" type="curve" smooth="yes"/>
      <point x="762.9217171717171" y="-19.404040404040405"/>
      <point x="962.5126262626262" y="137.2752525252525"/>
      <point x="962.5126262626262" y="407.85858585858585" type="curve" smooth="yes"/>
      <point x="962.5126262626262" y="610.510101010101"/>
      <point x="847.9141414141413" y="738.3737373737374"/>
      <point x="633.2171717171717" y="771.8737373737374" type="curve"/>
      <point x="632.770202020202" y="756.2979797979798" type="line"/>
      <point x="811.1691919191919" y="794.8838383838383"/>
      <point x="916.7676767676767" y="926.0025252525253"/>
      <point x="916.7676767676767" y="1107.7171717171718" type="curve" smooth="yes"/>
      <point x="916.7676767676767" y="1358.3737373737374"/>
      <point x="742.7828282828283" y="1499.4040404040404"/>
      <point x="403.1136363636364" y="1499.4040404040404" type="curve" smooth="yes"/>
      <point x="285.27525252525254" y="1499.4040404040404"/>
      <point x="146.84343434343435" y="1478.5"/>
      <point x="57.71717171717172" y="1446.4570707070707" type="curve"/>
      <point x="57.71717171717172" y="1208.2171717171718" type="line"/>
      <point x="149.50505050505052" y="1242.1540404040404"/>
      <point x="261.95959595959596" y="1261.0580808080808"/>
      <point x="366.20454545454544" y="1261.0580808080808" type="curve" smooth="yes"/>
      <point x="541.7752525252525" y="1261.0580808080808"/>
      <point x="619.6641414141415" y="1199.318181818182"/>
      <point x="619.6641414141415" y="1077.4772727272727" type="curve" smooth="yes"/>
      <point x="619.6641414141415" y="953.3888888888889"/>
      <point x="534.1111111111111" y="878.2424242424242"/>
      <point x="331.5984848484849" y="878.2424242424242" type="curve" smooth="yes"/>
      <point x="181.44444444444446" y="878.2424242424242" type="line"/>
      <point x="181.44444444444446" y="635.3333333333334" type="line"/>
      <point x="369.7651515151515" y="635.3333333333334" type="line" smooth="yes"/>
      <point x="583.540404040404" y="635.3333333333334"/>
      <point x="667.8661616161617" y="560.4949494949495"/>
      <point x="667.8661616161617" y="427.2171717171717" type="curve" smooth="yes"/>
      <point x="667.8661616161617" y="289.0126262626262"/>
      <point x="577.3686868686868" y="218.94191919191917"/>
      <point x="379.4671717171717" y="218.94191919191917" type="curve" smooth="yes"/>
      <point x="273.2550505050505" y="218.94191919191917"/>
      <point x="142.44949494949495" y="236.53787878787875"/>
      <point x="35.949494949494955" y="267.2626262626262" type="curve"/>
      <point x="35.949494949494955" y="29.022727272727273" type="line"/>
      <point x="144.97979797979798" y="-2.510101010101009"/>
      <point x="264.80808080808083" y="-19.404040404040405"/>
    </contour>
  </outline>
</glyph>
<glyph name="four" format="2">
  <advance width="1197.1919191919192"/>
  <unicode hex="0034"/>
  <outline>
    <contour>
      <point x="35.151515151515156" y="309.9368686868687" type="line"/>
      <point x="1166.8813131313132" y="309.9368686868687" type="line"/>
      <point x="1166.8813131313132" y="550.1439393939394" type="line"/>
      <point x="301.30050505050497" y="550.1439393939394" type="line"/>
      <point x="339.46717171717165" y="480.96969696969694" type="line"/>
      <point x="819.7146464646464" y="1480.0" type="line"/>
      <point x="522.8762626262626" y="1480.0" type="line"/>
      <point x="35.151515151515156" y="481.5656565656566" type="line"/>
    </contour>
    <contour>
      <point x="708.1111111111111" y="0.0" type="line"/>
      <point x="985.3131313131313" y="0.0" type="line"/>
      <point x="985.3131313131313" y="980.0" type="line"/>
      <point x="740.3636363636364" y="980.0" type="line"/>
      <point x="708.1111111111111" y="550.1439393939394" type="line"/>
    </contour>
  </outline>
</glyph>
<glyph name="five" format="2">
  <advance width="1028.5681818181818"/>
  <unicode hex="0035"/>
  <outline>
    <contour>
      <point x="417.6994949494949" y="-19.404040404040405" type="curve" smooth="yes"/>
      <point x="786.3484848484849" y="-19.404040404040405"/>
      <point x="986.810606060606" y="137.42424242424244"/>
      <point x="987.1616161616162" y="440.1111111111111" type="curve" smooth="yes"/>
      <point x="987.5126262626262" y="725.0126262626262"/>
      <point x="812.0984848484848" y="868.7878787878788"/>
      <point x="398.1590909090909" y="894.2979797979798" type="curve" smooth="yes"/>
      <point x="238.10353535353534" y="903.7449494949494" type="line"/>
      <point x="403.4797979797979" y="792.510101010101" type="line"/>
      <point x="440.6085858585858" y="1370.3939393939395" type="line"/>
      <point x="304.2626262626262" y="1232.4217171717173" type="line"/>
      <point x="929.7247474747475" y="1232.4217171717173" type="line"/>
      <point x="929.7247474747475" y="1480.0" type="line"/>
      <point x="155.37626262626264" y="1480.0" type="line"/>
      <point x="106.82323232323233" y="669.260101010101" type="line"/>
      <point x="266.8787878787879" y="659.8131313131313" type="line" smooth="yes"/>
      <point x="604.6666666666666" y="639.1111111111111"/>
      <point x="692.1641414141415" y="571.2752525252525"/>
      <point x="692.1641414141415" y="430.53787878787875" type="curve" smooth="yes"/>
      <point x="692.1641414141415" y="291.45959595959596"/>
      <point x="604.7954545454545" y="220.34595959595956"/>
      <point x="407.8181818181818" y="220.34595959595956" type="curve" smooth="yes"/>
      <point x="299.9671717171717" y="220.34595959595956"/>
      <point x="169.16161616161617" y="239.44191919191917"/>
      <point x="63.40656565656566" y="270.77272727272725" type="curve"/>
      <point x="63.40656565656566" y="32.532828282828284" type="line"/>
      <point x="171.3939393939394" y="-0.6060606060606056"/>
      <point x="292.1161616161616" y="-19.404040404040405"/>
    </contour>
  </outline>
</glyph>
<glyph name="six" format="2">
  <advance width="1174.8383838383838"/>
  <unicode hex="0036"/>
  <outline>
    <contour>
      <point x="639.3737373737374" y="-19.404040404040405" type="curve" smooth="yes"/>
      <point x="931.0429292929292" y="-19.404040404040405"/>
      <point x="1128.0176767676767" y="149.44191919191917"/>
      <point x="1128.0176767676767" y="445.8131313131313" type="curve" smooth="yes"/>
      <point x="1128.0176767676767" y="752.9267676767677"/>
      <point x="928.5530303030303" y="888.3737373737374"/>
      <point x="681.3838383838383" y="888.3737373737374" type="curve" smooth="yes"/>
      <point x="547.030303030303" y="888.3737373737374"/>
      <point x="414.9646464646464" y="839.5530303030303"/>
      <point x="344.9848484848485" y="754.4873737373737" type="curve"/>
      <point x="344.9848484848485" y="529.3914141414142" type="line"/>
      <point x="413.7954545454545" y="621.939393939394"/>
      <point x="521.0580808080808" y="659.5050505050506"/>
      <point x="620.8712121212121" y="659.5050505050506" type="curve" smooth="yes"/>
      <point x="754.1161616161617" y="659.5050505050506"/>
      <point x="846.3585858585859" y="592.5631313131313"/>
      <point x="846.3585858585859" y="435.6439393939394" type="curve" smooth="yes"/>
      <point x="846.3585858585859" y="278.9696969696969"/>
      <point x="757.4570707070707" y="211.57070707070704"/>
      <point x="641.9267676767677" y="211.57070707070704" type="curve" smooth="yes"/>
      <point x="495.5429292929293" y="211.57070707070704"/>
      <point x="398.41666666666663" y="300.8661616161616"/>
      <point x="398.41666666666663" y="644.9646464646464" type="curve" smooth="yes"/>
      <point x="398.41666666666663" y="772.0959595959596" type="line" smooth="yes"/>
      <point x="398.41666666666663" y="1112.9974747474748"/>
      <point x="528.4646464646464" y="1255.4419191919192"/>
      <point x="790.1944444444443" y="1255.4419191919192" type="curve" smooth="yes"/>
      <point x="886.6919191919192" y="1255.4419191919192"/>
      <point x="972.2449494949494" y="1242.6439393939395"/>
      <point x="1055.1363636363635" y="1214.3989898989898" type="curve"/>
      <point x="1055.1363636363635" y="1458.2550505050506" type="line"/>
      <point x="977.6590909090909" y="1488.1060606060605"/>
      <point x="879.2676767676767" y="1499.4040404040404"/>
      <point x="778.6540404040404" y="1499.4040404040404" type="curve" smooth="yes"/>
      <point x="349.27272727272725" y="1499.4040404040404"/>
      <point x="95.3459595959596" y="1250.3434343434344"/>
      <point x="95.3459595959596" y="695.2121212121212" type="curve" smooth="yes"/>
      <point x="95.3459595959596" y="177.57070707070707"/>
      <point x="317.9469696969697" y="-19.404040404040405"/>
    </contour>
  </outline>
</glyph>
<glyph name="seven" format="2">
  <advance width="955.2373737373737"/>
  <unicode hex="0037"/>
  <outline>
    <contour>
      <point x="130.0378787878788" y="0.0" type="line"/>
      <point x="449.70202020202015" y="0.0" type="line"/>
      <point x="898.439393939394" y="1309.7752525252527" type="line"/>
      <point x="898.439393939394" y="1480.0" type="line"/>
      <point x="10.3510101010101" y="1480.0" type="line"/>
      <point x="10.3510101010101" y="1216.2752525252527" type="line"/>
      <point x="706.3535353535353" y="1216.2752525252527" type="line"/>
      <point x="601.4848484848485" y="1310.3712121212122" type="line"/>
    </contour>
  </outline>
</glyph>
<glyph name="eight" format="2">
  <advance width="1251.4368686868686"/>
  <unicode hex="0038"/>
  <outline>
    <contour>
      <point x="630.3737373737374" y="-19.404040404040405" type="curve" smooth="yes"/>
      <point x="983.4368686868686" y="-19.404040404040405"/>
      <point x="1176.7095959595958" y="155.16666666666666"/>
      <point x="1176.7095959595958" y="400.760101010101" type="curve" smooth="yes"/>
      <point x="1176.7095959595958" y="617.4722222222222"/>
      <point x="1067.6338383838383" y="746.6616161616162"/>
      <point x="719.1818181818181" y="853.5732323232323" type="curve" smooth="yes"/>
      <point x="460.5934343434343" y="931.8813131313132"/>
      <point x="404.83333333333326" y="989.5151515151515"/>
      <point x="404.83333333333326" y="1102.3661616161617" type="curve" smooth="yes"/>
      <point x="404.83333333333326" y="1207.6338383838383"/>
      <point x="482.6691919191919" y="1280.0126262626263"/>
      <point x="639.1464646464647" y="1280.0126262626263" type="curve" smooth="yes"/>
      <point x="787.8484848484849" y="1280.0126262626263"/>
      <point x="870.8131313131313" y="1215.3358585858587"/>
      <point x="870.8131313131313" y="1096.6641414141413" type="curve" smooth="yes"/>
      <point x="870.8131313131313" y="983.8560606060606"/>
      <point x="814.4469696969697" y="905.5757575757575"/>
      <point x="677.7676767676768" y="834.4141414141413" type="curve"/>
      <point x="866.1111111111111" y="750.5075757575758" type="line"/>
      <point x="1061.6616161616162" y="836.8358585858585"/>
      <point x="1137.4848484848485" y="970.9318181818181"/>
      <point x="1137.4848484848485" y="1122.7878787878788" type="curve" smooth="yes"/>
      <point x="1137.4848484848485" y="1355.70202020202"/>
      <point x="949.1489898989898" y="1499.4040404040404"/>
      <point x="639.6464646464647" y="1499.4040404040404" type="curve" smooth="yes"/>
      <point x="297.6818181818182" y="1499.4040404040404"/>
      <point x="110.99494949494951" y="1336.3964646464647"/>
      <point x="110.99494949494951" y="1091.9419191919192" type="curve" smooth="yes"/>
      <point x="110.99494949494951" y="879.1969696969697"/>
      <point x="227.8358585858586" y="729.5202020202021"/>
      <point x="573.5429292929293" y="630.5757575757576" type="curve" smooth="yes"/>
      <point x="820.0580808080808" y="560.6919191919192"/>
      <point x="887.0833333333334" y="502.77272727272725"/>
      <point x="887.0833333333334" y="384.3787878787879" type="curve" smooth="yes"/>
      <point x="887.0833333333334" y="268.9621212121212"/>
      <point x="803.3409090909091" y="199.98737373737373"/>
      <point x="630.8737373737374" y="199.98737373737373" type="curve" smooth="yes"/>
      <point x="450.6691919191919" y="199.98737373737373"/>
      <point x="362.800505050505" y="273.3661616161616"/>
      <point x="362.800505050505" y="401.94191919191917" type="curve" smooth="yes"/>
      <point x="362.800505050505" y="512.2727272727273"/>
      <point x="433.1262626262626" y="617.1287878787879"/>
      <point x="577.7929292929293" y="665.9065656565657" type="curve"/>
      <point x="377.3131313131313" y="749.6540404040404" type="line"/>
      <point x="179.6868686868687" y="679.3888888888889"/>
      <point x="72.62121212121212" y="541.8333333333334"/>
      <point x="72.62121212121212" y="371.80808080808083" type="curve" smooth="yes"/>
      <point x="72.62121212121212" y="140.40151515151516"/>
      <point x="254.55555555555554" y="-19.404040404040405"/>
    </contour>
  </outline>
</glyph>
<glyph name="nine" format="2">
  <advance width="1174.8383838383838"/>
  <unicode hex="0039"/>
  <outline>
    <contour>
      <point x="535.4646464646464" y="1499.4040404040404" type="curve" smooth="yes"/>
      <point x="243.79545454545453" y="1499.4040404040404"/>
      <point x="46.82070707070707" y="1330.5580808080808"/>
      <point x="46.82070707070707" y="1034.1868686868686" type="curve" smooth="yes"/>
      <point x="46.82070707070707" y="727.0732323232323"/>
      <point x="246.28535353535352" y="591.6262626262626"/>
      <point x="493.45454545454544" y="591.6262626262626" type="curve" smooth="yes"/>
      <point x="627.8080808080808" y="591.6262626262626"/>
      <point x="759.8737373737374" y="640.4469696969697"/>
      <point x="829.8535353535353" y="725.5126262626263" type="curve"/>
      <point x="829.8535353535353" y="950.6085858585858" type="line"/>
      <point x="761.0429292929293" y="858.060606060606"/>
      <point x="653.780303030303" y="820.4949494949494"/>
      <point x="553.9671717171717" y="820.4949494949494" type="curve" smooth="yes"/>
      <point x="420.7222222222222" y="820.4949494949494"/>
      <point x="328.4797979797979" y="887.4368686868687"/>
      <point x="328.4797979797979" y="1044.3560606060605" type="curve" smooth="yes"/>
      <point x="328.4797979797979" y="1201.030303030303"/>
      <point x="417.3813131313131" y="1268.4292929292928"/>
      <point x="532.9116161616162" y="1268.4292929292928" type="curve" smooth="yes"/>
      <point x="679.2954545454545" y="1268.4292929292928"/>
      <point x="776.4217171717172" y="1179.1338383838383"/>
      <point x="776.4217171717172" y="835.0353535353536" type="curve" smooth="yes"/>
      <point x="776.4217171717172" y="707.9040404040404" type="line" smooth="yes"/>
      <point x="776.4217171717172" y="367.00252525252523"/>
      <point x="646.3737373737374" y="224.55808080808077"/>
      <point x="384.6439393939394" y="224.55808080808077" type="curve" smooth="yes"/>
      <point x="288.14646464646466" y="224.55808080808077"/>
      <point x="202.59343434343435" y="237.35606060606057"/>
      <point x="119.70202020202021" y="265.60101010101005" type="curve"/>
      <point x="119.70202020202021" y="21.744949494949495" type="line"/>
      <point x="197.17929292929293" y="-8.106060606060606"/>
      <point x="295.57070707070704" y="-19.404040404040405"/>
      <point x="396.1843434343434" y="-19.404040404040405" type="curve" smooth="yes"/>
      <point x="825.5656565656566" y="-19.404040404040405"/>
      <point x="1079.4924242424242" y="229.65656565656565"/>
      <point x="1079.4924242424242" y="784.7878787878788" type="curve" smooth="yes"/>
      <point x="1079.4924242424242" y="1302.4292929292928"/>
      <point x="856.8914141414141" y="1499.4040404040404"/>
    </contour>
  </outline>
</glyph>
<glyph name="colon" format="2">
  <advance width="522.7020202020202"/>
  <unicode hex="003A"/>
  <outline>
    <contour>
      <point x="261.3510101010101" y="-17.02020202020202" type="curve" smooth="yes"/>
      <point x="379.83838383838383" y="-17.02020202020202"/>
      <point x="460.2449494949494" y="58.57828282828282"/>
      <point x="460.2449494949494" y="173.80050505050502" type="curve" smooth="yes"/>
      <point x="460.2449494949494" y="289.02272727272725"/>
      <point x="382.6464646464646" y="365.2171717171717"/>
      <point x="261.3510101010101" y="365.2171717171717" type="curve" smooth="yes"/>
      <point x="140.05555555555557" y="365.2171717171717"/>
      <point x="62.45707070707072" y="291.8308080808081"/>
      <point x="62.45707070707072" y="173.80050505050502" type="curve" smooth="yes"/>
      <point x="62.45707070707072" y="55.770202020202014"/>
      <point x="142.86363636363637" y="-17.02020202020202"/>
    </contour>
    <contour>
      <point x="261.3510101010101" y="728.8232323232323" type="curve" smooth="yes"/>
      <point x="379.83838383838383" y="728.8232323232323"/>
      <point x="460.2449494949494" y="804.4217171717172"/>
      <point x="460.2449494949494" y="919.6439393939394" type="curve" smooth="yes"/>
      <point x="460.2449494949494" y="1034.8661616161617"/>
      <point x="382.6464646464646" y="1111.060606060606"/>
      <point x="261.3510101010101" y="1111.060606060606" type="curve" smooth="yes"/>
      <point x="140.05555555555557" y="1111.060606060606"/>
      <point x="62.45707070707072" y="1037.6742424242425"/>
      <point x="62.45707070707072" y="919.6439393939394" type="curve" smooth="yes"/>
      <point x="62.45707070707072" y="801.6136363636364"/>
      <point x="142.86363636363637" y="728.8232323232323"/>
    </contour>
  </outline>
</glyph>
<glyph name="semicolon" format="2">
  <advance width="522.7020202020202"/>
  <unicode hex="003B"/>
  <outline>
    <contour>
      <point x="132.7247474747475" y="-342.1212121212121" type="curve"/>
      <point x="308.00252525252523" y="-342.1212121212121" type="line"/>
      <point x="398.6540404040404" y="-214.42424242424244"/>
      <point x="459.5429292929292" y="-44.26262626262627"/>
      <point x="459.5429292929292" y="116.59343434343432" type="curve" smooth="yes"/>
      <point x="459.5429292929292" y="282.5984848484848"/>
      <point x="387.91161616161617" y="365.2171717171717"/>
      <point x="256.5429292929293" y="365.2171717171717" type="curve" smooth="yes"/>
      <point x="139.45959595959596" y="365.2171717171717"/>
      <point x="62.45707070707072" y="294.98989898989896"/>
      <point x="62.45707070707072" y="174.3964646464646" type="curve" smooth="yes"/>
      <point x="62.45707070707072" y="56.36616161616161"/>
      <point x="144.96969696969697" y="-17.02020202020202"/>
      <point x="261.3510101010101" y="-17.02020202020202" type="curve" smooth="yes"/>
      <point x="300.02777777777777" y="-17.02020202020202" type="line"/>
      <point x="233.1969696969697" y="40.080808080808076" type="line"/>
      <point x="233.1969696969697" y="-84.38383838383838"/>
      <point x="196.10353535353534" y="-200.04040404040404"/>
    </contour>
    <contour>
      <point x="261.3510101010101" y="728.8232323232323" type="curve" smooth="yes"/>
      <point x="379.83838383838383" y="728.8232323232323"/>
      <point x="460.2449494949494" y="804.4217171717172"/>
      <point x="460.2449494949494" y="919.6439393939394" type="curve" smooth="yes"/>
      <point x="460.2449494949494" y="1034.8661616161617"/>
      <point x="382.6464646464646" y="1111.060606060606"/>
      <point x="261.3510101010101" y="1111.060606060606" type="curve" smooth="yes"/>
      <point x="140.05555555555557" y="1111.060606060606"/>
      <point x="62.45707070707072" y="1037.6742424242425"/>
      <point x="62.45707070707072" y="919.6439393939394" type="curve" smooth="yes"/>
      <point x="62.45707070707072" y="801.6136363636364"/>
      <point x="142.86363636363637" y="728.8232323232323"/>
    </contour>
  </outline>
</glyph>
<glyph name="less" format="2">
  <advance width="1064.9747474747476"/>
  <unicode hex="003C"/>
  <outline>
    <contour>
      <point x="957.5631313131313" y="281.74242424242425" type="line"/>
      <point x="957.5631313131313" y="520.8232323232323" type="line"/>
      <point x="281.979797979798" y="775.8611111111111" type="line"/>
      <point x="281.979797979798" y="745.8939393939394" type="line"/>
      <point x="957.5631313131313" y="999.1767676767677" type="line"/>
      <point x="957.5631313131313" y="1238.2575757575758" type="line"/>
      <point x="107.41161616161617" y="907.4494949494949" type="line"/>
      <point x="107.41161616161617" y="612.5505050505051" type="line"/>
    </contour>
  </outline>
</glyph>
<glyph name="equal" format="2">
  <advance width="1064.9747474747476"/>
  <unicode hex="003D"/>
  <outline>
    <contour>
      <point x="107.41161616161617" y="860.8585858585859" type="line"/>
      <point x="957.5631313131313" y="860.8585858585859" type="line"/>
      <point x="957.5631313131313" y="1097.5555555555554" type="line"/>
      <point x="107.41161616161617" y="1097.5555555555554" type="line"/>
    </contour>
    <contour>
      <point x="107.41161616161617" y="422.44444444444446" type="line"/>
      <point x="957.5631313131313" y="422.44444444444446" type="line"/>
      <point x="957.5631313131313" y="659.1414141414141" type="line"/>
      <point x="107.41161616161617" y="659.1414141414141" type="line"/>
    </contour>
  </outline>
</glyph>
<glyph name="greater" format="2">
  <advance width="1064.9747474747476"/>
  <unicode hex="003E"/>
  <outline>
    <contour>
      <point x="107.41161616161617" y="281.74242424242425" type="line"/>
      <point x="957.5631313131313" y="612.5505050505051" type="line"/>
      <point x="957.5631313131313" y="907.4494949494949" type="line"/>
      <point x="107.41161616161617" y="1238.2575757575758" type="line"/>
      <point x="107.41161616161617" y="999.1767676767677" type="line"/>
      <point x="782.9949494949495" y="745.8939393939394" type="line"/>
      <point x="782.9949494949495" y="775.8611111111111" type="line"/>
      <point x="107.41161616161617" y="520.8232323232323" type="line"/>
    </contour>
  </outline>
</glyph>
<glyph name="question" format="2">
  <advance width="929.0025252525252"/>
  <unicode hex="003F"/>
  <outline>
    <contour>
      <point x="314.74747474747477" y="462.86868686868684" type="line"/>
      <point x="502.0984848484849" y="462.86868686868684" type="line"/>
      <point x="525.7878787878788" y="685.2878787878788" type="line"/>
      <point x="758.8888888888889" y="762.070707070707"/>
      <point x="884.2020202020201" y="895.3459595959596"/>
      <point x="884.2020202020201" y="1105.9621212121212" type="curve" smooth="yes"/>
      <point x="884.2020202020201" y="1358.3737373737374"/>
      <point x="710.2171717171717" y="1499.4040404040404"/>
      <point x="370.5479797979798" y="1499.4040404040404" type="curve" smooth="yes"/>
      <point x="252.70959595959596" y="1499.4040404040404"/>
      <point x="114.27777777777779" y="1478.5"/>
      <point x="25.151515151515156" y="1446.4570707070707" type="curve"/>
      <point x="25.151515151515156" y="1204.7070707070707" type="line"/>
      <point x="116.93939393939394" y="1238.6439393939395"/>
      <point x="228.6919191919192" y="1257.54797979798"/>
      <point x="332.48989898989896" y="1257.54797979798" type="curve" smooth="yes"/>
      <point x="509.20959595959596" y="1257.54797979798"/>
      <point x="587.0984848484849" y="1196.861111111111"/>
      <point x="587.0984848484849" y="1076.7752525252527" type="curve" smooth="yes"/>
      <point x="587.0984848484849" y="961.9343434343434"/>
      <point x="516.2020202020202" y="887.5025252525253"/>
      <point x="262.38131313131316" y="829.5277777777777" type="curve"/>
    </contour>
    <contour>
      <point x="408.5984848484848" y="-17.02020202020202" type="curve" smooth="yes"/>
      <point x="527.6818181818181" y="-17.02020202020202"/>
      <point x="607.4924242424242" y="57.77020202020201"/>
      <point x="607.4924242424242" y="167.1313131313131" type="curve" smooth="yes"/>
      <point x="607.4924242424242" y="277.08838383838383"/>
      <point x="529.8939393939394" y="351.8787878787878"/>
      <point x="408.5984848484848" y="351.8787878787878" type="curve" smooth="yes"/>
      <point x="287.3030303030303" y="351.8787878787878"/>
      <point x="209.7045454545455" y="279.8964646464646"/>
      <point x="209.7045454545455" y="167.1313131313131" type="curve" smooth="yes"/>
      <point x="209.7045454545455" y="54.962121212121204"/>
      <point x="290.11111111111114" y="-17.02020202020202"/>
    </contour>
  </outline>
</glyph>
<glyph name="at" format="2">
  <advance width="1972.189393939394"/>
  <unicode hex="0040"/>
  <outline>
    <contour>
      <point x="1030.169191919192" y="-460.0" type="curve" smooth="yes"/>
      <point x="1177.3358585858587" y="-460.0"/>
      <point x="1319.5555555555557" y="-440.510101010101"/>
      <point x="1453.3686868686868" y="-405.4040404040404" type="curve"/>
      <point x="1453.3686868686868" y="-201.91414141414145" type="line"/>
      <point x="1312.0429292929293" y="-238.65909090909093"/>
      <point x="1175.3989898989898" y="-257.1060606060606"/>
      <point x="1030.169191919192" y="-257.1060606060606" type="curve" smooth="yes"/>
      <point x="534.75" y="-257.1060606060606"/>
      <point x="312.330808080808" y="-53.03787878787881"/>
      <point x="312.330808080808" y="521.1919191919192" type="curve" smooth="yes"/>
      <point x="312.330808080808" y="1091.8459595959596"/>
      <point x="534.4520202020202" y="1295.1060606060605"/>
      <point x="994.3282828282828" y="1295.1060606060605" type="curve" smooth="yes"/>
      <point x="1454.4065656565656" y="1295.1060606060605"/>
      <point x="1675.7929292929293" y="1098.0580808080808"/>
      <point x="1677.8989898989898" y="572.2525252525253" type="curve" smooth="yes"/>
      <point x="1679.6540404040404" y="262.60353535353534"/>
      <point x="1612.9671717171716" y="186.99999999999997"/>
      <point x="1526.5176767676767" y="186.99999999999997" type="curve" smooth="yes"/>
      <point x="1467.7474747474748" y="186.99999999999997"/>
      <point x="1436.1085858585857" y="222.30050505050502"/>
      <point x="1436.1085858585857" y="305.85858585858585" type="curve" smooth="yes"/>
      <point x="1436.1085858585857" y="660.429292929293" type="line" smooth="yes"/>
      <point x="1436.1085858585857" y="984.6212121212121"/>
      <point x="1290.45202020202" y="1097.4040404040404"/>
      <point x="972.6161616161615" y="1097.4040404040404" type="curve" smooth="yes"/>
      <point x="867.2575757575758" y="1097.4040404040404"/>
      <point x="741.5050505050505" y="1079.1489898989898"/>
      <point x="643.9974747474747" y="1046.340909090909" type="curve"/>
      <point x="641.8914141414141" y="809.5050505050506" type="line"/>
      <point x="731.8712121212121" y="842.6010101010102"/>
      <point x="835.2853535353536" y="859.0580808080808"/>
      <point x="917.560606060606" y="859.0580808080808" type="curve" smooth="yes"/>
      <point x="1077.2121212121212" y="859.0580808080808"/>
      <point x="1139.25" y="812.2904040404042"/>
      <point x="1139.25" y="673.7146464646464" type="curve" smooth="yes"/>
      <point x="1139.25" y="270.84343434343435" type="line"/>
      <point x="1095.8181818181818" y="220.36363636363632"/>
      <point x="1033.8207070707072" y="202.3383838383838"/>
      <point x="984.780303030303" y="202.3383838383838" type="curve" smooth="yes"/>
      <point x="903.9292929292928" y="202.3383838383838"/>
      <point x="851.4570707070707" y="243.1944444444444"/>
      <point x="851.4570707070707" y="330.01262626262627" type="curve" smooth="yes"/>
      <point x="851.4570707070707" y="416.2121212121212"/>
      <point x="902.8232323232323" y="462.07828282828285"/>
      <point x="1011.6111111111111" y="471.6439393939394" type="curve" smooth="yes"/>
      <point x="1220.361111111111" y="489.18939393939394" type="line"/>
      <point x="1183.770202020202" y="657.6843434343434" type="line"/>
      <point x="979.7651515151515" y="640.1388888888889" type="line" smooth="yes"/>
      <point x="677.8611111111111" y="617.5530303030303"/>
      <point x="552.1085858585858" y="501.85353535353534"/>
      <point x="552.1085858585858" y="295.2828282828283" type="curve" smooth="yes"/>
      <point x="552.1085858585858" y="102.85858585858585"/>
      <point x="679.8838383838383" y="-20.21212121212121"/>
      <point x="881.9974747474747" y="-20.21212121212121" type="curve" smooth="yes"/>
      <point x="996.0202020202021" y="-20.21212121212121"/>
      <point x="1102.8080808080808" y="19.959595959595962"/>
      <point x="1150.0353535353536" y="129.6161616161616" type="curve"/>
      <point x="1166.2575757575758" y="129.6161616161616" type="line"/>
      <point x="1221.0176767676767" y="30.320707070707073"/>
      <point x="1319.830808080808" y="-20.21212121212121"/>
      <point x="1463.1969696969695" y="-20.21212121212121" type="curve" smooth="yes"/>
      <point x="1714.979797979798" y="-20.21212121212121"/>
      <point x="1896.6843434343434" y="142.08585858585857"/>
      <point x="1896.8333333333333" y="579.6565656565657" type="curve" smooth="yes"/>
      <point x="1896.982323232323" y="1202.4924242424242"/>
      <point x="1570.7045454545455" y="1498.0"/>
      <point x="994.3282828282828" y="1498.0" type="curve" smooth="yes"/>
      <point x="418.00505050505046" y="1498.0"/>
      <point x="75.35606060606061" y="1202.4924242424242"/>
      <point x="75.35606060606061" y="520.0" type="curve" smooth="yes"/>
      <point x="75.35606060606061" y="-164.57828282828282"/>
      <point x="419.0479797979798" y="-459.8510101010101"/>
    </contour>
  </outline>
</glyph>
<glyph name="A" format="2">
  <advance width="1353.3181818181818"/>
  <unicode hex="0041"/>
  <note>
520
</note>
  <anchor x="676.9570707070707" y="0.0" name="bottom"/>
  <anchor x="1345.3358585858587" y="0.0" name="ogonek"/>
  <anchor x="676.6060606060606" y="1520.0" name="top"/>
  <outline>
    <contour>
      <point x="7.982323232323235" y="0.0" type="line"/>
      <point x="310.3939393939394" y="0.0" type="line"/>
      <point x="690.4671717171717" y="1342.0681818181818" type="line"/>
      <point x="657.340909090909" y="1342.0681818181818" type="line"/>
      <point x="1039.520202020202" y="0.0" type="line"/>
      <point x="1345.3358585858587" y="0.0" type="line"/>
      <point x="904.6414141414141" y="1480.0" type="line"/>
      <point x="448.67676767676767" y="1480.0" type="line"/>
    </contour>
    <contour>
      <point x="296.23989898989896" y="397.07323232323233" type="line"/>
      <point x="1055.3232323232323" y="397.07323232323233" type="line"/>
      <point x="992.5" y="651.9166666666666" type="line"/>
      <point x="359.4141414141414" y="651.9166666666666" type="line"/>
    </contour>
  </outline>
</glyph>
<glyph name="B" format="2">
  <advance width="1264.621212121212"/>
  <unicode hex="0042"/>
  <anchor x="640.6843434343434" y="0.0" name="bottom"/>
  <anchor x="640.6843434343434" y="1480.0" name="top"/>
  <outline>
    <contour>
      <point x="517.3888888888889" y="-17.02020202020202" type="curve" smooth="yes"/>
      <point x="1020.280303030303" y="-17.02020202020202"/>
      <point x="1217.6161616161617" y="133.8181818181818"/>
      <point x="1217.6161616161617" y="412.50757575757575" type="curve" smooth="yes"/>
      <point x="1217.6161616161617" y="622.1237373737374"/>
      <point x="1098.7348484848485" y="740.489898989899"/>
      <point x="912.2146464646464" y="769.0429292929293" type="curve"/>
      <point x="911.7676767676767" y="756.2979797979798" type="line"/>
      <point x="1083.4267676767677" y="790.85101010101"/>
      <point x="1176.169191919192" y="924.9494949494949"/>
      <point x="1176.169191919192" y="1088.8333333333333" type="curve" smooth="yes"/>
      <point x="1176.169191919192" y="1367.989898989899"/>
      <point x="989.1212121212121" y="1498.2121212121212"/>
      <point x="567.7474747474747" y="1498.2121212121212" type="curve" smooth="yes"/>
      <point x="415.5580808080808" y="1498.2121212121212"/>
      <point x="250.87626262626264" y="1478.840909090909"/>
      <point x="121.89141414141415" y="1450.7146464646464" type="curve"/>
      <point x="121.89141414141415" y="11.563131313131311" type="line"/>
      <point x="242.8257575757576" y="-5.851010101010101"/>
      <point x="399.85858585858585" y="-17.02020202020202"/>
    </contour>
    <contour>
      <point x="600.1212121212121" y="216.76262626262624" type="curve" smooth="yes"/>
      <point x="542.4040404040404" y="216.76262626262624"/>
      <point x="489.080808080808" y="218.70959595959593"/>
      <point x="424.7171717171717" y="224.84848484848482" type="curve"/>
      <point x="424.7171717171717" y="1248.8434343434344" type="line"/>
      <point x="482.6136363636364" y="1258.8333333333335"/>
      <point x="540.35101010101" y="1264.4292929292928"/>
      <point x="611.2297979797979" y="1264.4292929292928" type="curve" smooth="yes"/>
      <point x="810.6212121212121" y="1264.4292929292928"/>
      <point x="884.1287878787879" y="1207.6262626262626"/>
      <point x="884.1287878787879" y="1070.580808080808" type="curve" smooth="yes"/>
      <point x="884.1287878787879" y="940.60101010101"/>
      <point x="816.3459595959596" y="876.8383838383838"/>
      <point x="615.6691919191919" y="876.8383838383838" type="curve" smooth="yes"/>
      <point x="393.97474747474746" y="876.8383838383838" type="line"/>
      <point x="393.97474747474746" y="635.6843434343434" type="line"/>
      <point x="646.3611111111111" y="635.6843434343434" type="line" smooth="yes"/>
      <point x="844.429292929293" y="635.6843434343434"/>
      <point x="927.8838383838385" y="570.1666666666666"/>
      <point x="927.8838383838385" y="427.0050505050505" type="curve" smooth="yes"/>
      <point x="927.8838383838385" y="282.1414141414141"/>
      <point x="845.280303030303" y="216.76262626262624"/>
    </contour>
  </outline>
</glyph>
<glyph name="E" format="2">
  <advance width="1163.8838383838383"/>
  <unicode hex="0045"/>
  <anchor x="629.6969696969697" y="0.0" name="bottom"/>
  <anchor x="1019.0984848484849" y="0.0" name="ogonek"/>
  <anchor x="629.3989898989898" y="1520.0" name="top"/>
  <anchor x="37.446969696969695" y="1480.0" name="topleft"/>
  <outline>
    <contour>
      <point x="121.89141414141415" y="0.0" type="line"/>
      <point x="1102.608585858586" y="0.0" type="line"/>
      <point x="1102.608585858586" y="256.9494949494949" type="line"/>
      <point x="427.8762626262626" y="256.9494949494949" type="line"/>
      <point x="427.8762626262626" y="1223.050505050505" type="line"/>
      <point x="1092.608585858586" y="1223.050505050505" type="line"/>
      <point x="1092.608585858586" y="1480.0" type="line"/>
      <point x="121.89141414141415" y="1480.0" type="line"/>
    </contour>
    <contour>
      <point x="324.66666666666663" y="628.3131313131313" type="line"/>
      <point x="991.6843434343434" y="628.3131313131313" type="line"/>
      <point x="991.6843434343434" y="885.2626262626262" type="line"/>
      <point x="324.66666666666663" y="885.2626262626262" type="line"/>
    </contour>
  </outline>
</glyph>
<glyph name="F" format="2">
  <advance width="1117.6616161616162"/>
  <unicode hex="0046"/>
  <outline>
    <contour>
      <point x="121.89141414141415" y="0.0" type="line"/>
      <point x="432.08838383838383" y="0.0" type="line"/>
      <point x="432.08838383838383" y="1219.189393939394" type="line"/>
      <point x="1089.6287878787878" y="1219.189393939394" type="line"/>
      <point x="1089.6287878787878" y="1480.0" type="line"/>
      <point x="121.89141414141415" y="1480.0" type="line"/>
    </contour>
    <contour>
      <point x="331.77272727272725" y="592.510101010101" type="line"/>
      <point x="990.810606060606" y="592.510101010101" type="line"/>
      <point x="990.810606060606" y="853.320707070707" type="line"/>
      <point x="331.77272727272725" y="853.320707070707" type="line"/>
    </contour>
  </outline>
</glyph>
<glyph name="G" format="2">
  <advance width="1327.0555555555557"/>
  <unicode hex="0047"/>
  <anchor x="757.570707070707" y="0.0" name="bottom"/>
  <anchor x="757.570707070707" y="1520.0" name="top"/>
  <outline>
    <contour>
      <point x="872.1666666666666" y="-17.02020202020202" type="curve" smooth="yes"/>
      <point x="981.3232323232323" y="-17.02020202020202"/>
      <point x="1096.2323232323233" y="-6.1060606060606055"/>
      <point x="1214.9545454545455" y="13.393939393939394" type="curve"/>
      <point x="1214.9545454545455" y="720.0" type="line"/>
      <point x="926.5202020202021" y="720.0" type="line"/>
      <point x="926.5202020202021" y="157.6313131313131" type="line"/>
      <point x="1040.4848484848485" y="256.66414141414134" type="line"/>
      <point x="983.3232323232323" y="246.9292929292929"/>
      <point x="912.3333333333334" y="241.33333333333331"/>
      <point x="844.0858585858585" y="241.33333333333331" type="curve" smooth="yes"/>
      <point x="550.1868686868686" y="241.33333333333331"/>
      <point x="399.530303030303" y="377.61616161616155"/>
      <point x="399.38131313131305" y="733.7348484848485" type="curve" smooth="yes"/>
      <point x="399.2323232323232" y="1106.949494949495"/>
      <point x="556.1666666666666" y="1238.9444444444446"/>
      <point x="891.2727272727273" y="1239.2954545454545" type="curve" smooth="yes"/>
      <point x="988.3257575757575" y="1239.2954545454545"/>
      <point x="1079.060606060606" y="1227.0404040404042"/>
      <point x="1177.7651515151515" y="1202.9217171717173" type="curve"/>
      <point x="1177.7651515151515" y="1461.871212121212" type="line"/>
      <point x="1078.4141414141413" y="1486.861111111111"/>
      <point x="976.3181818181818" y="1499.4040404040404"/>
      <point x="861.7777777777778" y="1499.4040404040404" type="curve" smooth="yes"/>
      <point x="356.3510101010101" y="1499.4040404040404"/>
      <point x="75.20707070707071" y="1258.4318181818182"/>
      <point x="75.35606060606061" y="738.0" type="curve" smooth="yes"/>
      <point x="75.50505050505052" y="215.20959595959596"/>
      <point x="343.9570707070707" y="-17.02020202020202"/>
    </contour>
  </outline>
</glyph>
<glyph name="H" format="2">
  <advance width="1424.1313131313132"/>
  <unicode hex="0048"/>
  <anchor x="712.7676767676768" y="0.0" name="bottom"/>
  <anchor x="712.7676767676768" y="1185.9823232323233" name="center"/>
  <anchor x="712.7676767676768" y="1520.0" name="top"/>
  <anchor x="33.936868686868685" y="1480.0" name="topleft"/>
  <outline>
    <contour>
      <point x="121.89141414141415" y="0.0" type="line"/>
      <point x="432.08838383838383" y="0.0" type="line"/>
      <point x="432.08838383838383" y="617.4318181818182" type="line"/>
      <point x="992.0429292929293" y="617.4318181818182" type="line"/>
      <point x="992.0429292929293" y="0.0" type="line"/>
      <point x="1302.2398989898988" y="0.0" type="line"/>
      <point x="1302.2398989898988" y="1480.0" type="line"/>
      <point x="992.0429292929293" y="1480.0" type="line"/>
      <point x="992.0429292929293" y="896.1439393939394" type="line"/>
      <point x="432.08838383838383" y="896.1439393939394" type="line"/>
      <point x="432.08838383838383" y="1480.0" type="line"/>
      <point x="121.89141414141415" y="1480.0" type="line"/>
    </contour>
  </outline>
</glyph>
<glyph name="I" format="2">
  <advance width="553.9797979797979"/>
  <unicode hex="0049"/>
  <anchor x="276.63888888888886" y="0.0" name="bottom"/>
  <anchor x="432.08838383838383" y="0.0" name="ogonek"/>
  <anchor x="276.98989898989896" y="1520.0" name="top"/>
  <outline>
    <contour>
      <point x="121.89141414141415" y="0.0" type="line"/>
      <point x="432.08838383838383" y="0.0" type="line"/>
      <point x="432.08838383838383" y="1480.0" type="line"/>
      <point x="121.89141414141415" y="1480.0" type="line"/>
    </contour>
  </outline>
</glyph>
<glyph name="J" format="2">
  <advance width="553.9797979797979"/>
  <unicode hex="004A"/>
  <anchor x="445.7954545454545" y="0.0" name="bottom"/>
  <anchor x="277.34090909090907" y="1520.0" name="top"/>
  <outline>
    <contour>
      <point x="171.31060606060603" y="-348.42424242424244" type="line"/>
      <point x="362.5151515151515" y="-135.489898989899"/>
      <point x="429.25757575757575" y="56.398989898989896"/>
      <point x="432.08838383838383" y="301.1843434343434" type="curve"/>
      <point x="432.08838383838383" y="1480.0" type="line"/>
      <point x="122.59343434343435" y="1480.0" type="line"/>
      <point x="122.59343434343435" y="299.33838383838383" type="line" smooth="yes"/>
      <point x="122.59343434343435" y="81.71717171717171"/>
      <point x="84.38888888888889" y="-54.41414141414143"/>
      <point x="-29.474747474747467" y="-215.29040404040404" type="curve"/>
    </contour>
  </outline>
</glyph>
<glyph name="K" format="2">
  <advance width="1254.361111111111"/>
  <unicode hex="004B"/>
  <anchor x="657.9570707070707" y="0.0" name="bottom"/>
  <anchor x="650.5858585858585" y="1480.0" name="top"/>
  <outline>
    <contour>
      <point x="971.969696969697" y="0.0" type="line"/>
      <point x="1307.4949494949494" y="0.0" type="line"/>
      <point x="782.5656565656566" y="802.7828282828283" type="line"/>
      <point x="778.3535353535353" y="718.4090909090909" type="line"/>
      <point x="1267.25" y="1480.0" type="line"/>
      <point x="941.7979797979798" y="1480.0" type="line"/>
      <point x="475.53787878787875" y="753.0858585858585" type="line"/>
    </contour>
    <contour>
      <point x="121.89141414141415" y="0.0" type="line"/>
      <point x="432.08838383838383" y="0.0" type="line"/>
      <point x="432.08838383838383" y="1480.0" type="line"/>
      <point x="121.89141414141415" y="1480.0" type="line"/>
    </contour>
    <contour>
      <point x="388.70959595959596" y="617.4318181818182" type="line"/>
      <point x="594.3560606060606" y="617.4318181818182" type="line"/>
      <point x="594.3560606060606" y="895.6969696969696" type="line"/>
      <point x="388.70959595959596" y="895.6969696969696" type="line"/>
    </contour>
  </outline>
</glyph>
<glyph name="L" format="2">
  <advance width="1070.121212121212"/>
  <unicode hex="004C"/>
  <anchor x="592.9318181818181" y="0.0" name="bottom"/>
  <anchor x="702.030303030303" y="1616.0" name="caronalt"/>
  <anchor x="804.9494949494949" y="864.560606060606" name="periodcentered"/>
  <anchor x="281.2020202020202" y="830.1616161616162" name="slash"/>
  <anchor x="281.2020202020202" y="1520.0" name="top"/>
  <outline>
    <contour>
      <point x="121.89141414141415" y="0.0" type="line"/>
      <point x="1063.3762626262626" y="0.0" type="line"/>
      <point x="1063.3762626262626" y="266.42676767676767" type="line"/>
      <point x="432.08838383838383" y="266.42676767676767" type="line"/>
      <point x="432.08838383838383" y="1480.0" type="line"/>
      <point x="121.89141414141415" y="1480.0" type="line"/>
    </contour>
  </outline>
</glyph>
<glyph name="M" format="2">
  <advance width="1773.888888888889"/>
  <unicode hex="004D"/>
  <anchor x="906.25" y="0.0" name="bottom"/>
  <anchor x="906.25" y="1480.0" name="top"/>
  <outline>
    <contour>
      <point x="125.89141414141415" y="0.0" type="line"/>
      <point x="415.13383838383834" y="0.0" type="line"/>
      <point x="415.13383838383834" y="1196.3535353535353" type="line"/>
      <point x="344.08585858585855" y="1196.3535353535353" type="line"/>
      <point x="761.1919191919192" y="214.04040404040404" type="line"/>
      <point x="1012.6969696969696" y="214.04040404040404" type="line"/>
      <point x="1417.6237373737374" y="1196.3535353535353" type="line"/>
      <point x="1358.7550505050506" y="1196.3535353535353" type="line"/>
      <point x="1358.7550505050506" y="0.0" type="line"/>
      <point x="1647.9974747474748" y="0.0" type="line"/>
      <point x="1647.9974747474748" y="1480.0" type="line"/>
      <point x="1269.2247474747476" y="1480.0" type="line"/>
      <point x="875.0505050505051" y="502.2777777777777" type="line"/>
      <point x="909.8585858585859" y="502.2777777777777" type="line"/>
      <point x="504.66414141414134" y="1480.0" type="line"/>
      <point x="125.89141414141415" y="1480.0" type="line"/>
    </contour>
  </outline>
</glyph>
<glyph name="P" format="2">
  <advance width="1242.9065656565656"/>
  <unicode hex="0050"/>
  <outline>
    <contour>
      <point x="121.89141414141415" y="0.0" type="line"/>
      <point x="432.08838383838383" y="0.0" type="line"/>
      <point x="432.08838383838383" y="434.13131313131316" type="line"/>
      <point x="477.07070707070704" y="432.04545454545456"/>
      <point x="514.5530303030303" y="429.89646464646466"/>
      <point x="562.939393939394" y="429.89646464646466" type="curve" smooth="yes"/>
      <point x="966.6944444444445" y="429.89646464646466"/>
      <point x="1176.540404040404" y="613.3838383838383"/>
      <point x="1176.540404040404" y="963.3787878787879" type="curve" smooth="yes"/>
      <point x="1176.540404040404" y="1333.4267676767677"/>
      <point x="963.8535353535353" y="1498.2121212121212"/>
      <point x="543.7045454545455" y="1498.2121212121212" type="curve" smooth="yes"/>
      <point x="390.2853535353535" y="1498.2121212121212"/>
      <point x="251.92929292929293" y="1480.5959595959596"/>
      <point x="121.89141414141415" y="1454.3207070707072" type="curve"/>
    </contour>
    <contour>
      <point x="567.0883838383838" y="672.1035353535353" type="curve" smooth="yes"/>
      <point x="516.0" y="672.1035353535353"/>
      <point x="475.77272727272725" y="674.4015151515151"/>
      <point x="432.08838383838383" y="680.2424242424242" type="curve"/>
      <point x="432.08838383838383" y="1244.7272727272727" type="line"/>
      <point x="475.24242424242425" y="1252.5151515151515"/>
      <point x="516.4823232323232" y="1256.0050505050506"/>
      <point x="571.7853535353536" y="1256.0050505050506" type="curve" smooth="yes"/>
      <point x="777.780303030303" y="1256.0050505050506"/>
      <point x="874.6287878787879" y="1168.020202020202"/>
      <point x="874.6287878787879" y="960.229797979798" type="curve" smooth="yes"/>
      <point x="874.6287878787879" y="755.75"/>
      <point x="776.8863636363636" y="672.1035353535353"/>
    </contour>
  </outline>
</glyph>
<glyph name="Q" format="2">
  <advance width="1444.3131313131312"/>
  <unicode hex="0051"/>
  <outline>
    <contour>
      <point x="1293.090909090909" y="-309.17171717171715" type="curve"/>
      <point x="1347.6161616161617" y="-60.64646464646466" type="line"/>
      <point x="1145.159090909091" y="-36.126262626262644"/>
      <point x="939.9318181818181" y="8.191919191919169"/>
      <point x="714.7929292929293" y="98.67929292929291" type="curve"/>
      <point x="622.6919191919192" y="20.431818181818173" type="line"/>
      <point x="1111.7525252525252" y="-46.01262626262626"/>
      <point x="1368.9570707070707" y="225.77272727272725"/>
      <point x="1368.9570707070707" y="740.0" type="curve" smooth="yes"/>
      <point x="1368.9570707070707" y="1269.2272727272727"/>
      <point x="1110.4646464646464" y="1499.4040404040404"/>
      <point x="722.1565656565656" y="1499.4040404040404" type="curve" smooth="yes"/>
      <point x="333.8484848484849" y="1499.4040404040404"/>
      <point x="75.35606060606061" y="1269.0353535353536"/>
      <point x="75.35606060606061" y="736.489898989899" type="curve" smooth="yes"/>
      <point x="75.35606060606061" y="171.20454545454544"/>
      <point x="356.59343434343435" y="-157.98989898989896"/>
    </contour>
    <contour>
      <point x="722.1565656565656" y="235.5883838383838" type="curve" smooth="yes"/>
      <point x="516.4444444444445" y="235.5883838383838"/>
      <point x="394.46717171717165" y="365.5833333333333"/>
      <point x="394.46717171717165" y="746.8080808080808" type="curve" smooth="yes"/>
      <point x="394.46717171717165" y="1113.7146464646464"/>
      <point x="518.1994949494949" y="1244.4116161616162"/>
      <point x="722.1565656565656" y="1244.4116161616162" type="curve" smooth="yes"/>
      <point x="926.1136363636364" y="1244.4116161616162"/>
      <point x="1049.8459595959596" y="1112.6616161616162"/>
      <point x="1049.8459595959596" y="733.1919191919192" type="curve" smooth="yes"/>
      <point x="1049.8459595959596" y="367.33838383838383"/>
      <point x="927.1666666666666" y="235.5883838383838"/>
    </contour>
  </outline>
</glyph>
<glyph name="T" format="2">
  <advance width="1205.0075757575758"/>
  <unicode hex="0054"/>
  <anchor x="603.030303030303" y="0.0" name="bottom"/>
  <anchor x="603.030303030303" y="729.7979797979798" name="center"/>
  <anchor x="603.030303030303" y="1520.0" name="top"/>
  <outline>
    <contour>
      <point x="446.8787878787879" y="0.0" type="line"/>
      <point x="758.1287878787879" y="0.0" type="line"/>
      <point x="758.1287878787879" y="1213.5732323232323" type="line"/>
      <point x="1195.7626262626263" y="1213.5732323232323" type="line"/>
      <point x="1195.7626262626263" y="1480.0" type="line"/>
      <point x="9.244949494949495" y="1480.0" type="line"/>
      <point x="9.244949494949495" y="1213.5732323232323" type="line"/>
      <point x="446.8787878787879" y="1213.5732323232323" type="line"/>
    </contour>
  </outline>
</glyph>
<glyph name="V" format="2">
  <advance width="1328.550505050505"/>
  <unicode hex="0056"/>
  <outline>
    <contour>
      <point x="431.9419191919192" y="0.0" type="line"/>
      <point x="896.6085858585858" y="0.0" type="line"/>
      <point x="1332.95202020202" y="1480.0" type="line"/>
      <point x="1032.891414141414" y="1480.0" type="line"/>
      <point x="639.8737373737374" y="125.29545454545452" type="line"/>
      <point x="704.3131313131313" y="125.29545454545452" type="line"/>
      <point x="317.560606060606" y="1480.0" type="line"/>
      <point x="-4.401515151515149" y="1480.0" type="line"/>
    </contour>
  </outline>
</glyph>
<glyph name="X" format="2">
  <advance width="1300.9873737373737"/>
  <unicode hex="0058"/>
  <outline>
    <contour>
      <point x="985.3686868686868" y="0.0" type="line"/>
      <point x="1325.2550505050503" y="0.0" type="line"/>
      <point x="830.520202020202" y="769.7626262626262" type="line"/>
      <point x="650.3181818181818" y="1008.4267676767677" type="line"/>
      <point x="348.540404040404" y="1480.0" type="line"/>
      <point x="5.9419191919192045" y="1480.0" type="line"/>
      <point x="468.21212121212125" y="767.1565656565657" type="line"/>
      <point x="648.4141414141413" y="531.2045454545455" type="line"/>
    </contour>
    <contour>
      <point x="-29.330808080808062" y="0.0" type="line"/>
      <point x="310.310606060606" y="0.0" type="line"/>
      <point x="648.4141414141413" y="531.2045454545455" type="line"/>
      <point x="830.520202020202" y="769.7626262626262" type="line"/>
      <point x="1286.8232323232323" y="1480.0" type="line"/>
      <point x="951.8939393939394" y="1480.0" type="line"/>
      <point x="650.3181818181818" y="1008.4267676767677" type="line"/>
      <point x="468.21212121212125" y="767.1565656565657" type="line"/>
    </contour>
  </outline>
</glyph>
<glyph name="Y" format="2">
  <advance width="1205.0075757575758"/>
  <unicode hex="0059"/>
  <anchor x="602.679292929293" y="0.0" name="bottom"/>
  <anchor x="603.7323232323232" y="1520.0" name="top"/>
  <anchor x="-18.239898989898983" y="1480.0" name="topleft"/>
  <outline>
    <contour>
      <point x="448.6338383838384" y="0.0" type="line"/>
      <point x="758.8308080808081" y="0.0" type="line"/>
      <point x="758.8308080808081" y="752.429292929293" type="line"/>
      <point x="695.4974747474747" y="518.2651515151515" type="line"/>
      <point x="1250.5025252525252" y="1480.0" type="line"/>
      <point x="947.1540404040404" y="1480.0" type="line"/>
      <point x="569.0757575757575" y="826.25" type="line"/>
      <point x="654.1313131313132" y="826.25" type="line"/>
      <point x="273.41414141414134" y="1480.0" type="line"/>
      <point x="-54.54797979797979" y="1480.0" type="line"/>
      <point x="511.9671717171717" y="518.2651515151515" type="line"/>
      <point x="448.6338383838384" y="756.6414141414141" type="line"/>
    </contour>
  </outline>
</glyph>
<glyph name="Z" format="2">
  <advance width="1151.4595959595958"/>
  <unicode hex="005A"/>
  <anchor x="572.969696969697" y="0.0" name="bottom"/>
  <anchor x="577.1818181818181" y="1520.0" name="top"/>
  <outline>
    <contour>
      <point x="49.32070707070707" y="0.0" type="line"/>
      <point x="1102.138888888889" y="0.0" type="line"/>
      <point x="1102.138888888889" y="265.8308080808081" type="line"/>
      <point x="410.43434343434336" y="265.8308080808081" type="line"/>
      <point x="414.9040404040403" y="208.03787878787875" type="line"/>
      <point x="1091.840909090909" y="1307.669191919192" type="line"/>
      <point x="1091.840909090909" y="1480.0" type="line"/>
      <point x="59.61868686868687" y="1480.0" type="line"/>
      <point x="59.61868686868687" y="1214.169191919192" type="line"/>
      <point x="730.7272727272727" y="1214.169191919192" type="line"/>
      <point x="726.2575757575758" y="1271.9621212121212" type="line"/>
      <point x="49.32070707070707" y="172.33080808080805" type="line"/>
    </contour>
  </outline>
</glyph>
<glyph name="bracketleft" format="2">
  <advance width="675.8585858585859"/>
  <unicode hex="005B"/>
  <outline>
    <contour>
      <point x="141.89141414141415" y="-440.0" type="line"/>
      <point x="703.9242424242424" y="-440.0" type="line"/>
      <point x="703.9242424242424" y="-199.79292929292933" type="line"/>
      <point x="446.8232323232323" y="-199.79292929292933" type="line"/>
      <point x="446.8232323232323" y="1375.7929292929293" type="line"/>
      <point x="707.4343434343434" y="1375.7929292929293" type="line"/>
      <point x="707.4343434343434" y="1616.0" type="line"/>
      <point x="141.89141414141415" y="1616.0" type="line"/>
    </contour>
  </outline>
</glyph>
<glyph name="backslash" format="2">
  <advance width="719.4191919191919"/>
  <unicode hex="005C"/>
  <outline>
    <contour>
      <point x="421.8156565656566" y="-240.0" type="line"/>
      <point x="719.4191919191919" y="-240.0" type="line"/>
      <point x="297.60353535353534" y="1616.0" type="line"/>
      <point x="0.0" y="1616.0" type="line"/>
    </contour>
  </outline>
</glyph>
<glyph name="bracketright" format="2">
  <advance width="675.8585858585859"/>
  <unicode hex="005D"/>
  <outline>
    <contour>
      <point x="-28.065656565656568" y="-440.0" type="line"/>
      <point x="533.9671717171717" y="-440.0" type="line"/>
      <point x="533.9671717171717" y="1616.0" type="line"/>
      <point x="-31.575757575757578" y="1616.0" type="line"/>
      <point x="-31.575757575757578" y="1375.7929292929293" type="line"/>
      <point x="229.03535353535355" y="1375.7929292929293" type="line"/>
      <point x="229.03535353535355" y="-199.79292929292933" type="line"/>
      <point x="-28.065656565656568" y="-199.79292929292933" type="line"/>
    </contour>
  </outline>
</glyph>
<glyph name="asciicircum" format="2">
  <advance width="1197.4242424242425"/>
  <unicode hex="005E"/>
  <outline>
    <contour>
      <point x="68.36868686868688" y="740.0" type="line"/>
      <point x="358.93181818181813" y="740.0" type="line"/>
      <point x="657.1186868686868" y="1322.219696969697" type="line"/>
      <point x="540.3055555555555" y="1322.219696969697" type="line"/>
      <point x="838.4924242424242" y="740.0" type="line"/>
      <point x="1129.0555555555554" y="740.0" type="line"/>
      <point x="736.3257575757575" y="1480.0" type="line"/>
      <point x="460.50252525252523" y="1480.0" type="line"/>
    </contour>
  </outline>
</glyph>
<glyph name="underscore" format="2">
  <advance width="1124.0656565656566"/>
  <unicode hex="005F"/>
  <outline>
    <contour>
      <point x="85.47979797979798" y="-240.55808080808077" type="line"/>
      <point x="1038.5858585858587" y="-240.55808080808077" type="line"/>
      <point x="1038.5858585858587" y="-0.35101010101010094" type="line"/>
      <point x="85.47979797979798" y="-0.35101010101010094" type="line"/>
    </contour>
  </outline>
</glyph>
<glyph name="grave" format="2">
  <advance width="1110.6060606060605"/>
  <unicode hex="0060"/>
  <anchor x="555.3030303030303" y="1200.0" name="_top"/>
  <anchor x="555.3030303030303" y="1626.20202020202" name="top"/>
  <outline>
    <contour>
      <point x="419.2979797979798" y="1233.111111111111" type="line"/>
      <point x="691.3080808080808" y="1233.111111111111" type="line"/>
      <point x="483.4722222222222" y="1616.0" type="line"/>
      <point x="167.67929292929296" y="1616.0" type="line"/>
    </contour>
  </outline>
</glyph>
<glyph name="b" format="2">
  <advance width="1138.520202020202"/>
  <unicode hex="0062"/>
  <anchor x="575.520202020202" y="0.0" name="bottom"/>
  <anchor x="261.2020202020202" y="1616.0" name="top"/>
  <outline>
    <contour>
      <point x="494.0833333333333" y="-19.755050505050505" type="curve" smooth="yes"/>
      <point x="889.239898989899" y="-20.808080808080806"/>
      <point x="1076.6742424242425" y="181.31565656565655"/>
      <point x="1076.6742424242425" y="566.6691919191919" type="curve" smooth="yes"/>
      <point x="1076.6742424242425" y="952.8535353535353"/>
      <point x="894.6540404040404" y="1111.4444444444443"/>
      <point x="683.9419191919192" y="1111.4444444444443" type="curve" smooth="yes"/>
      <point x="569.5782828282828" y="1111.4444444444443"/>
      <point x="481.55555555555554" y="1063.421717171717"/>
      <point x="427.91666666666663" y="986.2424242424242" type="curve"/>
      <point x="413.1414141414141" y="986.2424242424242" type="line"/>
      <point x="413.1414141414141" y="1616.0" type="line"/>
      <point x="108.20959595959597" y="1616.0" type="line"/>
      <point x="108.20959595959597" y="39.252525252525245" type="line"/>
      <point x="221.92676767676767" y="-0.3409090909090917"/>
      <point x="365.46212121212125" y="-19.755050505050505"/>
    </contour>
    <contour>
      <point x="518.8989898989898" y="213.32575757575756" type="curve" smooth="yes"/>
      <point x="480.93686868686865" y="213.32575757575756"/>
      <point x="442.18686868686865" y="218.85858585858583"/>
      <point x="413.1414141414141" y="226.6893939393939" type="curve"/>
      <point x="413.1414141414141" y="797.0858585858587" type="line"/>
      <point x="450.51767676767673" y="837.4469696969697"/>
      <point x="507.6111111111111" y="857.3030303030304"/>
      <point x="562.3535353535353" y="857.3030303030304" type="curve" smooth="yes"/>
      <point x="685.7550505050505" y="857.3030303030304"/>
      <point x="767.3914141414142" y="794.14898989899"/>
      <point x="767.3914141414142" y="540.7676767676768" type="curve" smooth="yes"/>
      <point x="767.3914141414142" y="297.70707070707067"/>
      <point x="681.8611111111111" y="213.32575757575756"/>
    </contour>
  </outline>
</glyph>
<glyph name="f" format="2">
  <advance width="744.7247474747475"/>
  <unicode hex="0066"/>
  <outline>
    <contour>
      <point x="184.2929292929293" y="0.0" type="line"/>
      <point x="486.0656565656565" y="0.0" type="line"/>
      <point x="486.0656565656565" y="1204.709595959596" type="line" smooth="yes"/>
      <point x="486.0656565656565" y="1333.8661616161617"/>
      <point x="548.2601010101009" y="1390.9848484848485"/>
      <point x="694.9318181818181" y="1390.9848484848485" type="curve" smooth="yes"/>
      <point x="729.7424242424242" y="1390.9848484848485"/>
      <point x="761.1161616161617" y="1388.239898989899"/>
      <point x="798.3939393939394" y="1382.8989898989898" type="curve"/>
      <point x="798.3939393939394" y="1624.29797979798" type="line"/>
      <point x="750.9797979797979" y="1632.29797979798"/>
      <point x="699.8737373737374" y="1636.0"/>
      <point x="649.4393939393939" y="1636.0" type="curve" smooth="yes"/>
      <point x="342.8484848484849" y="1636.0"/>
      <point x="184.2929292929293" y="1471.9772727272727"/>
      <point x="184.2929292929293" y="1188.4141414141413" type="curve" smooth="yes"/>
    </contour>
    <contour>
      <point x="16.41414141414141" y="853.8333333333334" type="line"/>
      <point x="755.5757575757575" y="853.8333333333334" type="line"/>
      <point x="755.5757575757575" y="1094.040404040404" type="line"/>
      <point x="16.41414141414141" y="1094.040404040404" type="line"/>
    </contour>
  </outline>
</glyph>
<glyph name="j" format="2">
  <advance width="522.4040404040404"/>
  <unicode hex="006A"/>
  <anchor x="259.4469696969697" y="1200.8939393939395" name="_top"/>
  <anchor x="259.4469696969697" y="1200.8939393939395" name="top"/>
  <outline>
    <contour>
      <point x="156.22474747474746" y="-471.2323232323232" type="line"/>
      <point x="345.6742424242424" y="-258.2979797979798"/>
      <point x="414.1944444444444" y="-65.62121212121212"/>
      <point x="414.1944444444444" y="189.59343434343435" type="curve" smooth="yes"/>
      <point x="414.1944444444444" y="1094.040404040404" type="line"/>
      <point x="108.20959595959597" y="1094.040404040404" type="line"/>
      <point x="108.20959595959597" y="175.82828282828282" type="line" smooth="yes"/>
      <point x="108.20959595959597" y="-41.7929292929293"/>
      <point x="70.00505050505052" y="-177.92424242424244"/>
      <point x="-43.858585858585855" y="-338.8005050505051" type="curve"/>
    </contour>
    <contour>
      <point x="259.4469696969697" y="1254.888888888889" type="curve" smooth="yes"/>
      <point x="388.8156565656565" y="1254.888888888889"/>
      <point x="449.2146464646464" y="1316.0959595959596"/>
      <point x="449.2146464646464" y="1420.0858585858587" type="curve" smooth="yes"/>
      <point x="449.2146464646464" y="1524.0757575757575"/>
      <point x="388.8156565656565" y="1585.8787878787878"/>
      <point x="259.4469696969697" y="1585.8787878787878" type="curve" smooth="yes"/>
      <point x="130.07828282828282" y="1585.8787878787878"/>
      <point x="69.67929292929294" y="1524.0757575757575"/>
      <point x="69.67929292929294" y="1420.0858585858587" type="curve" smooth="yes"/>
      <point x="69.67929292929294" y="1316.0959595959596"/>
      <point x="130.07828282828282" y="1254.888888888889"/>
    </contour>
  </outline>
</glyph>
<glyph name="l" format="2">
  <advance width="521.35101010101"/>
  <unicode hex="006C"/>
  <anchor x="260.8510101010101" y="0.0" name="bottom"/>
  <anchor x="505.59090909090907" y="1616.0" name="caronalt"/>
  <anchor x="639.9166666666666" y="794.0" name="periodcentered"/>
  <anchor x="261.2020202020202" y="714.0" name="slash"/>
  <anchor x="261.2020202020202" y="1616.0" name="top"/>
  <outline>
    <contour>
      <point x="108.20959595959597" y="0.0" type="line"/>
      <point x="413.1414141414141" y="0.0" type="line"/>
      <point x="413.1414141414141" y="1616.0" type="line"/>
      <point x="108.20959595959597" y="1616.0" type="line"/>
    </contour>
  </outline>
</glyph>
<glyph name="p" format="2">
  <advance width="1138.520202020202"/>
  <unicode hex="0070"/>
  <outline>
    <contour>
      <point x="108.20959595959597" y="-440.0" type="line"/>
      <point x="413.1414141414141" y="-440.0" type="line"/>
      <point x="413.1414141414141" y="-14.328282828282827" type="line"/>
      <point x="441.16666666666663" y="-17.265151515151516"/>
      <point x="473.61868686868684" y="-19.755050505050505"/>
      <point x="505.03787878787875" y="-19.755050505050505" type="curve" smooth="yes"/>
      <point x="888.6338383838383" y="-19.755050505050505"/>
      <point x="1076.6742424242425" y="183.42171717171718"/>
      <point x="1076.6742424242425" y="566.6691919191919" type="curve" smooth="yes"/>
      <point x="1076.6742424242425" y="957.0656565656566"/>
      <point x="883.2727272727273" y="1111.4444444444443"/>
      <point x="662.0934343434343" y="1111.4444444444443" type="curve" smooth="yes"/>
      <point x="541.1464646464647" y="1111.4444444444443"/>
      <point x="451.9217171717171" y="1057.1035353535353"/>
      <point x="399.48484848484844" y="976.030303030303" type="curve"/>
      <point x="385.3156565656565" y="976.030303030303" type="line"/>
      <point x="365.47727272727275" y="1094.040404040404" type="line"/>
      <point x="108.20959595959597" y="1094.040404040404" type="line"/>
    </contour>
    <contour>
      <point x="516.6641414141413" y="213.67676767676767" type="curve" smooth="yes"/>
      <point x="484.0959595959596" y="213.67676767676767"/>
      <point x="442.18686868686865" y="218.01767676767673"/>
      <point x="413.1414141414141" y="223.40151515151513" type="curve"/>
      <point x="413.1414141414141" y="790.3838383838383" type="line"/>
      <point x="450.86868686868684" y="836.0429292929293"/>
      <point x="510.6212121212121" y="858.3560606060606"/>
      <point x="567.9797979797979" y="858.3560606060606" type="curve" smooth="yes"/>
      <point x="685.4040404040404" y="858.3560606060606"/>
      <point x="767.3914141414142" y="795.2020202020202"/>
      <point x="767.3914141414142" y="541.1186868686868" type="curve" smooth="yes"/>
      <point x="767.3914141414142" y="298.0580808080808"/>
      <point x="681.8611111111111" y="213.67676767676767"/>
    </contour>
  </outline>
</glyph>
<glyph name="q" format="2">
  <advance width="1138.520202020202"/>
  <unicode hex="0071"/>
  <outline>
    <contour>
      <point x="725.3787878787879" y="-440.0" type="line"/>
      <point x="1030.310606060606" y="-440.0" type="line"/>
      <point x="1030.310606060606" y="1052.4368686868686" type="line"/>
      <point x="920.6464646464647" y="1090.530303030303"/>
      <point x="773.0580808080808" y="1111.4444444444443"/>
      <point x="644.4368686868687" y="1111.4444444444443" type="curve" smooth="yes"/>
      <point x="249.28030303030303" y="1111.4444444444443"/>
      <point x="61.845959595959606" y="910.3737373737374"/>
      <point x="61.845959595959606" y="525.020202020202" type="curve" smooth="yes"/>
      <point x="61.845959595959606" y="138.83585858585857"/>
      <point x="243.86616161616163" y="-19.755050505050505"/>
      <point x="454.57828282828285" y="-19.755050505050505" type="curve" smooth="yes"/>
      <point x="568.9419191919192" y="-19.755050505050505"/>
      <point x="656.9646464646464" y="28.267676767676768"/>
      <point x="710.6035353535353" y="105.4469696969697" type="curve"/>
      <point x="725.3787878787879" y="105.4469696969697" type="line"/>
    </contour>
    <contour>
      <point x="576.1666666666666" y="234.3863636363636" type="curve" smooth="yes"/>
      <point x="452.7651515151515" y="234.3863636363636"/>
      <point x="371.1287878787878" y="297.54040404040404"/>
      <point x="371.1287878787878" y="550.9217171717172" type="curve" smooth="yes"/>
      <point x="371.1287878787878" y="793.9823232323232"/>
      <point x="460.1691919191919" y="878.3636363636364"/>
      <point x="618.5681818181818" y="878.3636363636364" type="curve" smooth="yes"/>
      <point x="656.8813131313132" y="878.3636363636364"/>
      <point x="696.3333333333334" y="872.979797979798"/>
      <point x="725.3787878787879" y="866.7979797979798" type="curve"/>
      <point x="725.3787878787879" y="294.60353535353534" type="line"/>
      <point x="688.0025252525253" y="254.2424242424242"/>
      <point x="630.6111111111111" y="234.3863636363636"/>
    </contour>
  </outline>
</glyph>
<glyph name="v" format="2">
  <advance width="1079.891414141414"/>
  <unicode hex="0076"/>
  <anchor x="540.3181818181818" y="0.0" name="bottom"/>
  <anchor x="540.3181818181818" y="1200.0" name="top"/>
  <outline>
    <contour>
      <point x="345.24494949494954" y="0.0" type="line"/>
      <point x="734.2954545454545" y="0.0" type="line"/>
      <point x="1082.1010101010102" y="1094.040404040404" type="line"/>
      <point x="780.4974747474747" y="1094.040404040404" type="line"/>
      <point x="535.0833333333333" y="242.79797979797974" type="line"/>
      <point x="559.9974747474747" y="242.79797979797974" type="line"/>
      <point x="314.58333333333326" y="1094.040404040404" type="line"/>
      <point x="-2.209595959595955" y="1094.040404040404" type="line"/>
    </contour>
  </outline>
</glyph>
<glyph name="w" format="2">
  <advance width="1692.6565656565656"/>
  <unicode hex="0077"/>
  <anchor x="847.179292929293" y="0.0" name="bottom"/>
  <anchor x="847.6262626262626" y="1200.0" name="top"/>
  <outline>
    <contour>
      <point x="308.3181818181818" y="0.0" type="line"/>
      <point x="642.4090909090909" y="0.0" type="line"/>
      <point x="859.040404040404" y="827.010101010101" type="line"/>
      <point x="840.030303030303" y="827.010101010101" type="line"/>
      <point x="1051.800505050505" y="0.0" type="line"/>
      <point x="1385.891414141414" y="0.0" type="line"/>
      <point x="1661.8434343434342" y="1094.040404040404" type="line"/>
      <point x="1387.4065656565656" y="1094.040404040404" type="line"/>
      <point x="1196.7525252525252" y="308.52272727272725" type="line"/>
      <point x="1217.6666666666667" y="308.52272727272725" type="line"/>
      <point x="1020.6919191919192" y="1094.040404040404" type="line"/>
      <point x="686.6010101010102" y="1094.040404040404" type="line"/>
      <point x="485.9141414141414" y="307.82070707070704" type="line"/>
      <point x="500.8611111111111" y="307.82070707070704" type="line"/>
      <point x="316.7272727272727" y="1094.040404040404" type="line"/>
      <point x="30.813131313131322" y="1094.040404040404" type="line"/>
    </contour>
  </outline>
</glyph>
<glyph name="x" format="2">
  <advance width="1049.1843434343434"/>
  <unicode hex="0078"/>
  <anchor x="524.9646464646464" y="0.0" name="bottom"/>
  <anchor x="526.0176767676767" y="1200.0" name="top"/>
  <outline>
    <contour>
      <point x="731.7171717171717" y="0.0" type="line"/>
      <point x="1064.9873737373737" y="0.0" type="line"/>
      <point x="704.1666666666665" y="554.7752525252525" type="line"/>
      <point x="528.1237373737374" y="774.4419191919192" type="line"/>
      <point x="326.16919191919186" y="1094.040404040404" type="line"/>
      <point x="-7.101010101010093" y="1094.040404040404" type="line"/>
      <point x="343.41161616161617" y="551.020202020202" type="line"/>
      <point x="522.6136363636363" y="333.9065656565657" type="line"/>
    </contour>
    <contour>
      <point x="-13.303030303030297" y="0.0" type="line"/>
      <point x="310.7449494949494" y="0.0" type="line"/>
      <point x="522.6136363636363" y="333.9065656565657" type="line"/>
      <point x="704.1666666666665" y="554.7752525252525" type="line"/>
      <point x="1052.9242424242425" y="1094.040404040404" type="line"/>
      <point x="729.1742424242424" y="1094.040404040404" type="line"/>
      <point x="528.1237373737374" y="774.4419191919192" type="line"/>
      <point x="343.41161616161617" y="551.020202020202" type="line"/>
    </contour>
  </outline>
</glyph>
<glyph name="braceleft" format="2">
  <advance width="715.8585858585859"/>
  <unicode hex="007B"/>
  <outline>
    <contour>
      <point x="579.3459595959596" y="-460.0" type="curve" smooth="yes"/>
      <point x="644.0555555555555" y="-460.0"/>
      <point x="700.2348484848485" y="-454.5959595959596"/>
      <point x="747.4343434343434" y="-447.19191919191917" type="curve"/>
      <point x="747.4343434343434" y="-214.98484848484853" type="line"/>
      <point x="629.4015151515151" y="-214.98484848484853" type="line" smooth="yes"/>
      <point x="534.8383838383838" y="-214.98484848484853"/>
      <point x="486.8232323232323" y="-175.4267676767677"/>
      <point x="486.8232323232323" y="-83.52272727272728" type="curve" smooth="yes"/>
      <point x="486.8232323232323" y="367.4949494949495" type="line" smooth="yes"/>
      <point x="486.8232323232323" y="542.6363636363636"/>
      <point x="401.510101010101" y="639.9090909090909"/>
      <point x="174.23232323232324" y="647.6565656565657" type="curve"/>
      <point x="174.23232323232324" y="610.3838383838383" type="line"/>
      <point x="401.510101010101" y="618.1313131313132"/>
      <point x="486.8232323232323" y="715.4040404040404"/>
      <point x="486.8232323232323" y="890.5454545454545" type="curve" smooth="yes"/>
      <point x="486.8232323232323" y="1259.5227272727273" type="line" smooth="yes"/>
      <point x="486.8232323232323" y="1351.4267676767677"/>
      <point x="534.8383838383838" y="1390.9848484848485"/>
      <point x="629.4015151515151" y="1390.9848484848485" type="curve" smooth="yes"/>
      <point x="747.4343434343434" y="1390.9848484848485" type="line"/>
      <point x="747.4343434343434" y="1623.1919191919192" type="line"/>
      <point x="700.2348484848485" y="1630.5959595959596"/>
      <point x="644.0555555555555" y="1636.0"/>
      <point x="579.3459595959596" y="1636.0" type="curve" smooth="yes"/>
      <point x="316.02525252525254" y="1636.0"/>
      <point x="181.89141414141415" y="1506.770202020202"/>
      <point x="181.89141414141415" y="1261.5" type="curve" smooth="yes"/>
      <point x="181.89141414141415" y="876.4191919191919" type="line" smooth="yes"/>
      <point x="181.89141414141415" y="794.6994949494949"/>
      <point x="133.9318181818182" y="749.1237373737374"/>
      <point x="55.19191919191919" y="749.1237373737374" type="curve" smooth="yes"/>
      <point x="6.729797979797993" y="749.1237373737374" type="line"/>
      <point x="6.729797979797993" y="508.9166666666667" type="line"/>
      <point x="55.19191919191919" y="508.9166666666667" type="line" smooth="yes"/>
      <point x="133.9318181818182" y="508.9166666666667"/>
      <point x="181.89141414141415" y="463.3409090909091"/>
      <point x="181.89141414141415" y="381.6212121212121" type="curve" smooth="yes"/>
      <point x="181.89141414141415" y="-85.50000000000001" type="line" smooth="yes"/>
      <point x="181.89141414141415" y="-330.770202020202"/>
      <point x="316.02525252525254" y="-460.0"/>
    </contour>
  </outline>
</glyph>
<glyph name="bar" format="2">
  <advance width="516.7727272727273"/>
  <unicode hex="007C"/>
  <outline>
    <contour>
      <point x="121.89141414141415" y="-440.0" type="line"/>
      <point x="394.88131313131305" y="-440.0" type="line"/>
      <point x="394.88131313131305" y="1616.0" type="line"/>
      <point x="121.89141414141415" y="1616.0" type="line"/>
    </contour>
  </outline>
</glyph>
<glyph name="braceright" format="2">
  <advance width="715.8585858585859"/>
  <unicode hex="007D"/>
  <outline>
    <contour>
      <point x="136.51262626262624" y="-460.0" type="curve" smooth="yes"/>
      <point x="399.8333333333333" y="-460.0"/>
      <point x="533.9671717171717" y="-330.770202020202"/>
      <point x="533.9671717171717" y="-85.50000000000001" type="curve" smooth="yes"/>
      <point x="533.9671717171717" y="381.6212121212121" type="line" smooth="yes"/>
      <point x="533.9671717171717" y="463.3409090909091"/>
      <point x="581.9267676767677" y="508.9166666666667"/>
      <point x="660.6666666666666" y="508.9166666666667" type="curve" smooth="yes"/>
      <point x="709.1287878787879" y="508.9166666666667" type="line"/>
      <point x="709.1287878787879" y="749.1237373737374" type="line"/>
      <point x="660.6666666666666" y="749.1237373737374" type="line" smooth="yes"/>
      <point x="581.9267676767677" y="749.1237373737374"/>
      <point x="533.9671717171717" y="794.6994949494949"/>
      <point x="533.9671717171717" y="876.4191919191919" type="curve" smooth="yes"/>
      <point x="533.9671717171717" y="1261.5" type="line" smooth="yes"/>
      <point x="533.9671717171717" y="1506.770202020202"/>
      <point x="399.8333333333333" y="1636.0"/>
      <point x="136.51262626262624" y="1636.0" type="curve" smooth="yes"/>
      <point x="71.8030303030303" y="1636.0"/>
      <point x="15.62373737373737" y="1630.5959595959596"/>
      <point x="-31.575757575757578" y="1623.1919191919192" type="curve"/>
      <point x="-31.575757575757578" y="1390.9848484848485" type="line"/>
      <point x="86.45707070707071" y="1390.9848484848485" type="line" smooth="yes"/>
      <point x="181.02020202020202" y="1390.9848484848485"/>
      <point x="229.03535353535355" y="1351.4267676767677"/>
      <point x="229.03535353535355" y="1259.5227272727273" type="curve" smooth="yes"/>
      <point x="229.03535353535355" y="890.5454545454545" type="line" smooth="yes"/>
      <point x="229.03535353535355" y="715.4040404040404"/>
      <point x="317.50757575757575" y="618.1313131313132"/>
      <point x="541.6262626262626" y="610.3838383838383" type="curve"/>
      <point x="541.6262626262626" y="647.6565656565657" type="line"/>
      <point x="317.50757575757575" y="639.9090909090909"/>
      <point x="229.03535353535355" y="542.6363636363636"/>
      <point x="229.03535353535355" y="367.4949494949495" type="curve" smooth="yes"/>
      <point x="229.03535353535355" y="-83.52272727272728" type="line" smooth="yes"/>
      <point x="229.03535353535355" y="-175.4267676767677"/>
      <point x="181.02020202020202" y="-214.98484848484853"/>
      <point x="86.45707070707071" y="-214.98484848484853" type="curve" smooth="yes"/>
      <point x="-31.575757575757578" y="-214.98484848484853" type="line"/>
      <point x="-31.575757575757578" y="-447.19191919191917" type="line"/>
      <point x="15.62373737373737" y="-454.5959595959596"/>
      <point x="71.8030303030303" y="-460.0"/>
    </contour>
  </outline>
</glyph>
<glyph name="asciitilde" format="2">
  <advance width="1064.9747474747476"/>
  <unicode hex="007E"/>
  <outline>
    <contour>
      <point x="724.8459595959596" y="583.2676767676768" type="curve" smooth="yes"/>
      <point x="824.2575757575758" y="583.2676767676768"/>
      <point x="897.0656565656566" y="613.8636363636364"/>
      <point x="957.5631313131313" y="681.6919191919192" type="curve"/>
      <point x="957.5631313131313" y="925.1565656565656" type="line"/>
      <point x="885.310606060606" y="848.9444444444445"/>
      <point x="816.0454545454545" y="815.7525252525252"/>
      <point x="727.0580808080808" y="815.7525252525252" type="curve" smooth="yes"/>
      <point x="605.5075757575758" y="815.7525252525252"/>
      <point x="491.7853535353535" y="933.1565656565656"/>
      <point x="340.1287878787879" y="933.1565656565656" type="curve" smooth="yes"/>
      <point x="240.7171717171717" y="933.1565656565656"/>
      <point x="167.9090909090909" y="902.560606060606"/>
      <point x="107.41161616161617" y="834.7323232323232" type="curve"/>
      <point x="107.41161616161617" y="591.2676767676768" type="line"/>
      <point x="179.66414141414143" y="667.479797979798"/>
      <point x="248.92929292929293" y="700.6717171717172"/>
      <point x="337.9166666666667" y="700.6717171717172" type="curve" smooth="yes"/>
      <point x="459.4671717171717" y="700.6717171717172"/>
      <point x="573.189393939394" y="583.2676767676768"/>
    </contour>
  </outline>
</glyph>
<glyph name="exclamdown" format="2">
  <advance width="562.7020202020202"/>
  <unicode hex="00A1"/>
  <outline>
    <contour>
      <point x="189.25505050505052" y="613.0656565656566" type="line"/>
      <point x="118.28535353535355" y="122.95707070707071" type="line"/>
      <point x="118.28535353535355" y="-380.0" type="line"/>
      <point x="444.41666666666663" y="-380.0" type="line"/>
      <point x="444.41666666666663" y="122.95707070707071" type="line"/>
      <point x="376.60606060606057" y="613.0656565656566" type="line"/>
    </contour>
    <contour>
      <point x="281.3510101010101" y="1111.060606060606" type="curve" smooth="yes"/>
      <point x="162.86363636363637" y="1111.060606060606"/>
      <point x="82.45707070707073" y="1038.270202020202"/>
      <point x="82.45707070707073" y="920.239898989899" type="curve" smooth="yes"/>
      <point x="82.45707070707073" y="802.209595959596"/>
      <point x="160.05555555555557" y="728.8232323232323"/>
      <point x="281.3510101010101" y="728.8232323232323" type="curve" smooth="yes"/>
      <point x="402.6464646464646" y="728.8232323232323"/>
      <point x="480.2449494949494" y="805.0176767676768"/>
      <point x="480.2449494949494" y="920.239898989899" type="curve" smooth="yes"/>
      <point x="480.2449494949494" y="1035.4621212121212"/>
      <point x="399.83838383838383" y="1111.060606060606"/>
    </contour>
  </outline>
</glyph>
<glyph name="cent" format="2">
  <advance width="883.8964646464647"/>
  <unicode hex="00A2"/>
  <outline>
    <contour>
      <point x="586.8914141414141" y="-20.808080808080806" type="curve" smooth="yes"/>
      <point x="674.2727272727273" y="-20.808080808080806"/>
      <point x="764.4090909090909" y="-7.308080808080808"/>
      <point x="842.3459595959596" y="18.47979797979798" type="curve"/>
      <point x="842.3459595959596" y="264.09090909090907" type="line"/>
      <point x="763.9823232323232" y="240.71717171717168"/>
      <point x="702.969696969697" y="229.82323232323228"/>
      <point x="643.8838383838383" y="229.82323232323228" type="curve" smooth="yes"/>
      <point x="467.56818181818176" y="229.82323232323228"/>
      <point x="377.7979797979798" y="310.95707070707067"/>
      <point x="377.7979797979798" y="549.6161616161617" type="curve" smooth="yes"/>
      <point x="377.7979797979798" y="776.6060606060606"/>
      <point x="468.0479797979798" y="860.8131313131314"/>
      <point x="670.7575757575758" y="860.8131313131314" type="curve" smooth="yes"/>
      <point x="725.7045454545455" y="860.8131313131314"/>
      <point x="783.2272727272727" y="854.9191919191919"/>
      <point x="842.3459595959596" y="843.4924242424242" type="curve"/>
      <point x="842.3459595959596" y="1089.1035353535353" type="line"/>
      <point x="773.4318181818181" y="1104.2954545454545"/>
      <point x="701.1136363636364" y="1111.4444444444443"/>
      <point x="623.3611111111111" y="1111.4444444444443" type="curve" smooth="yes"/>
      <point x="270.79545454545456" y="1111.4444444444443"/>
      <point x="61.845959595959606" y="942.1388888888889"/>
      <point x="61.845959595959606" y="545.2651515151515" type="curve" smooth="yes"/>
      <point x="61.845959595959606" y="155.61363636363637"/>
      <point x="249.4671717171717" y="-20.808080808080806"/>
    </contour>
    <contour>
      <point x="431.3358585858586" y="-240.0" type="line"/>
      <point x="689.0934343434343" y="-240.0" type="line"/>
      <point x="689.0934343434343" y="42.12121212121211" type="line"/>
      <point x="431.3358585858586" y="42.12121212121211" type="line"/>
    </contour>
    <contour>
      <point x="431.3358585858586" y="1051.919191919192" type="line"/>
      <point x="689.0934343434343" y="1051.919191919192" type="line"/>
      <point x="689.0934343434343" y="1334.040404040404" type="line"/>
      <point x="431.3358585858586" y="1334.040404040404" type="line"/>
    </contour>
  </outline>
</glyph>
<glyph name="sterling" format="2">
  <advance width="1251.1843434343434"/>
  <unicode hex="00A3"/>
  <outline>
    <contour>
      <point x="251.15656565656568" y="96.58585858585857" type="line"/>
      <point x="554.3333333333333" y="96.58585858585857" type="line"/>
      <point x="554.3333333333333" y="1027.6464646464647" type="line" smooth="yes"/>
      <point x="554.3333333333333" y="1179.5126262626263"/>
      <point x="637.5858585858585" y="1243.5075757575758"/>
      <point x="872.1843434343434" y="1243.5075757575758" type="curve" smooth="yes"/>
      <point x="965.4823232323232" y="1243.5075757575758"/>
      <point x="1074.9368686868686" y="1230.1035353535353"/>
      <point x="1163.0656565656566" y="1205.5707070707072" type="curve"/>
      <point x="1163.0656565656566" y="1462.0631313131314" type="line"/>
      <point x="1076.5454545454545" y="1484.8510101010102"/>
      <point x="961.6212121212121" y="1499.4040404040404"/>
      <point x="848.709595959596" y="1499.4040404040404" type="curve" smooth="yes"/>
      <point x="446.85353535353534" y="1499.4040404040404"/>
      <point x="251.15656565656568" y="1329.9520202020203"/>
      <point x="251.15656565656568" y="1017.8181818181819" type="curve" smooth="yes"/>
    </contour>
    <contour>
      <point x="65.95959595959596" y="0.0" type="line"/>
      <point x="1201.6287878787878" y="0.0" type="line"/>
      <point x="1201.6287878787878" y="256.35353535353534" type="line"/>
      <point x="65.95959595959596" y="256.35353535353534" type="line"/>
    </contour>
    <contour>
      <point x="65.95959595959596" y="633.4065656565657" type="line"/>
      <point x="990.5151515151515" y="633.4065656565657" type="line"/>
      <point x="990.5151515151515" y="866.5934343434343" type="line"/>
      <point x="65.95959595959596" y="866.5934343434343" type="line"/>
    </contour>
  </outline>
</glyph>
<glyph name="yen" format="2">
  <advance width="1220.3964646464647"/>
  <unicode hex="00A5"/>
  <outline>
    <contour>
      <point x="456.32828282828285" y="0.0" type="line"/>
      <point x="766.5252525252524" y="0.0" type="line"/>
      <point x="766.5252525252524" y="752.429292929293" type="line"/>
      <point x="703.1919191919192" y="518.2651515151515" type="line"/>
      <point x="1259.388888888889" y="1480.0" type="line"/>
      <point x="956.040404040404" y="1480.0" type="line"/>
      <point x="576.770202020202" y="826.25" type="line"/>
      <point x="661.8257575757575" y="826.25" type="line"/>
      <point x="282.30050505050497" y="1480.0" type="line"/>
      <point x="-45.66161616161615" y="1480.0" type="line"/>
      <point x="519.6616161616162" y="518.2651515151515" type="line"/>
      <point x="456.32828282828285" y="756.6414141414141" type="line"/>
    </contour>
    <contour>
      <point x="153.34848484848487" y="266.99747474747477" type="line"/>
      <point x="1069.5050505050503" y="266.99747474747477" type="line"/>
      <point x="1069.5050505050503" y="453.1489898989899" type="line"/>
      <point x="153.34848484848487" y="453.1489898989899" type="line"/>
    </contour>
    <contour>
      <point x="153.34848484848487" y="594.8510101010102" type="line"/>
      <point x="1069.5050505050503" y="594.8510101010102" type="line"/>
      <point x="1069.5050505050503" y="781.0025252525253" type="line"/>
      <point x="153.34848484848487" y="781.0025252525253" type="line"/>
    </contour>
  </outline>
</glyph>
<glyph name="brokenbar" format="2">
  <advance width="516.7727272727273"/>
  <unicode hex="00A6"/>
  <outline>
    <contour>
      <point x="121.89141414141415" y="836.0" type="line"/>
      <point x="394.88131313131305" y="836.0" type="line"/>
      <point x="394.88131313131305" y="1616.0" type="line"/>
      <point x="121.89141414141415" y="1616.0" type="line"/>
    </contour>
    <contour>
      <point x="121.89141414141415" y="-440.0" type="line"/>
      <point x="394.88131313131305" y="-440.0" type="line"/>
      <point x="394.88131313131305" y="340.0" type="line"/>
      <point x="121.89141414141415" y="340.0" type="line"/>
    </contour>
  </outline>
</glyph>
<glyph name="section" format="2">
  <advance width="1019.9797979797979"/>
  <unicode hex="00A7"/>
  <outline>
    <contour>
      <point x="430.5782828282828" y="-20.808080808080806" type="curve" smooth="yes"/>
      <point x="731.8661616161617" y="-20.808080808080806"/>
      <point x="898.5833333333333" y="112.25252525252525"/>
      <point x="898.5833333333333" y="323.5782828282828" type="curve" smooth="yes"/>
      <point x="898.5833333333333" y="479.5656565656566"/>
      <point x="808.1515151515151" y="564.4924242424242"/>
      <point x="632.0631313131313" y="605.0151515151515" type="curve" smooth="yes"/>
      <point x="441.88383838383834" y="646.0555555555555" type="line" smooth="yes"/>
      <point x="359.4823232323232" y="665.5151515151515"/>
      <point x="330.0631313131313" y="704.9772727272727"/>
      <point x="330.0631313131313" y="767.6338383838383" type="curve" smooth="yes"/>
      <point x="330.0631313131313" y="819.2222222222223"/>
      <point x="352.4797979797979" y="859.3535353535353"/>
      <point x="400.1742424242424" y="905.820707070707" type="curve"/>
      <point x="236.2979797979798" y="1014.2575757575758" type="line"/>
      <point x="142.43939393939394" y="955.0883838383838"/>
      <point x="81.38888888888889" y="869.4722222222222"/>
      <point x="81.38888888888889" y="753.6035353535353" type="curve" smooth="yes"/>
      <point x="81.38888888888889" y="578.2045454545455"/>
      <point x="177.42676767676767" y="484.75757575757575"/>
      <point x="338.8030303030303" y="447.5858585858586" type="curve" smooth="yes"/>
      <point x="528.6313131313132" y="405.84343434343435" type="line" smooth="yes"/>
      <point x="592.8333333333334" y="390.5959595959596"/>
      <point x="621.689393939394" y="364.239898989899"/>
      <point x="621.689393939394" y="307.6969696969697" type="curve" smooth="yes"/>
      <point x="621.689393939394" y="240.62121212121212"/>
      <point x="572.9797979797979" y="198.2323232323232"/>
      <point x="427.5151515151515" y="198.2323232323232" type="curve" smooth="yes"/>
      <point x="327.30555555555554" y="198.2323232323232"/>
      <point x="225.57575757575756" y="211.4873737373737"/>
      <point x="128.2247474747475" y="238.6792929292929" type="curve"/>
      <point x="128.2247474747475" y="19.042929292929294" type="line"/>
      <point x="224.12626262626262" y="-7.659090909090908"/>
      <point x="331.6010101010101" y="-20.808080808080806"/>
    </contour>
    <contour>
      <point x="772.5883838383838" y="457.1691919191919" type="line"/>
      <point x="872.020202020202" y="517.2954545454545"/>
      <point x="938.590909090909" y="604.9747474747475"/>
      <point x="938.590909090909" y="728.8434343434343" type="curve" smooth="yes"/>
      <point x="938.590909090909" y="906.2424242424242"/>
      <point x="848.1590909090909" y="995.9772727272727"/>
      <point x="680.8459595959596" y="1033.6919191919192" type="curve" smooth="yes"/>
      <point x="487.50757575757575" y="1074.030303030303" type="line" smooth="yes"/>
      <point x="423.00757575757575" y="1089.2777777777778"/>
      <point x="394.780303030303" y="1116.9116161616162"/>
      <point x="394.780303030303" y="1167.2828282828282" type="curve" smooth="yes"/>
      <point x="394.780303030303" y="1225.4419191919192"/>
      <point x="443.52020202020196" y="1278.3636363636365"/>
      <point x="626.5126262626262" y="1278.3636363636365" type="curve" smooth="yes"/>
      <point x="705.2247474747475" y="1278.3636363636365"/>
      <point x="779.4671717171716" y="1271.3636363636365"/>
      <point x="859.2651515151515" y="1253.1717171717173" type="curve"/>
      <point x="859.2651515151515" y="1472.8080808080808" type="line"/>
      <point x="783.8939393939394" y="1488.4040404040404"/>
      <point x="695.8333333333333" y="1497.4040404040404"/>
      <point x="605.10101010101" y="1497.4040404040404" type="curve" smooth="yes"/>
      <point x="270.42424242424244" y="1497.4040404040404"/>
      <point x="117.88636363636364" y="1358.3636363636363"/>
      <point x="117.88636363636364" y="1151.8484848484848" type="curve" smooth="yes"/>
      <point x="117.88636363636364" y="1004.8813131313132"/>
      <point x="212.52020202020202" y="913.7853535353536"/>
      <point x="387.5858585858586" y="874.8585858585859" type="curve" smooth="yes"/>
      <point x="577.4141414141413" y="833.8181818181819" type="line" smooth="yes"/>
      <point x="659.5176767676768" y="814.3585858585859"/>
      <point x="689.9166666666666" y="776.1742424242424"/>
      <point x="689.9166666666666" y="712.6111111111111" type="curve" smooth="yes"/>
      <point x="689.9166666666666" y="662.7020202020202"/>
      <point x="668.2020202020202" y="625.719696969697"/>
      <point x="604.4469696969697" y="576.4873737373737" type="curve"/>
    </contour>
  </outline>
</glyph>
<glyph name="ordfeminine" format="2">
  <advance width="868.8787878787879"/>
  <unicode hex="00AA"/>
  <outline>
    <contour>
      <point x="306.58838383838383" y="593.1919191919192" type="curve" smooth="yes"/>
      <point x="397.4520202020202" y="593.1919191919192"/>
      <point x="480.0707070707071" y="624.0126262626262"/>
      <point x="527.4343434343434" y="699.1186868686868" type="curve"/>
      <point x="540.8055555555555" y="699.1186868686868" type="line"/>
      <point x="561.5479797979798" y="610.0" type="line"/>
      <point x="794.1060606060605" y="610.0" type="line"/>
      <point x="794.1060606060605" y="1128.5757575757575" type="line" smooth="yes"/>
      <point x="794.1060606060605" y="1403.0454545454545"/>
      <point x="668.0454545454545" y="1499.020202020202"/>
      <point x="386.09090909090907" y="1499.020202020202" type="curve" smooth="yes"/>
      <point x="294.39141414141415" y="1499.020202020202"/>
      <point x="187.989898989899" y="1486.4242424242425"/>
      <point x="101.33333333333334" y="1463.030303030303" type="curve"/>
      <point x="101.33333333333334" y="1249.8510101010102" type="line"/>
      <point x="175.96212121212122" y="1271.5328282828284"/>
      <point x="258.4191919191919" y="1283.2777777777778"/>
      <point x="329.23737373737373" y="1283.2777777777778" type="curve" smooth="yes"/>
      <point x="471.5050505050505" y="1283.2777777777778"/>
      <point x="514.2348484848485" y="1247.2121212121212"/>
      <point x="514.2348484848485" y="1158.9545454545455" type="curve" smooth="yes"/>
      <point x="514.2348484848485" y="830.3131313131313" type="line"/>
      <point x="485.3030303030303" y="799.4520202020202"/>
      <point x="445.8156565656566" y="788.2247474747475"/>
      <point x="413.02020202020196" y="788.2247474747475" type="curve" smooth="yes"/>
      <point x="346.8939393939394" y="788.2247474747475"/>
      <point x="307.6237373737373" y="819.7929292929293"/>
      <point x="307.6237373737373" y="886.1515151515151" type="curve" smooth="yes"/>
      <point x="307.6237373737373" y="946.5631313131313"/>
      <point x="345.28787878787875" y="978.6843434343434"/>
      <point x="430.479797979798" y="984.8560606060606" type="curve" smooth="yes"/>
      <point x="591.3459595959596" y="995.0075757575758" type="line"/>
      <point x="554.2550505050506" y="1139.1010101010102" type="line"/>
      <point x="392.07070707070704" y="1127.5454545454545" type="line" smooth="yes"/>
      <point x="135.0681818181818" y="1113.0656565656566"/>
      <point x="31.825757575757585" y="1021.3434343434343"/>
      <point x="31.825757575757585" y="848.9646464646464" type="curve" smooth="yes"/>
      <point x="31.825757575757585" y="698.2954545454545"/>
      <point x="135.8358585858586" y="593.1919191919192"/>
    </contour>
  </outline>
</glyph>
<glyph name="guillemetleft" format="2">
  <advance width="1132.2247474747473"/>
  <unicode hex="00AB"/>
  <outline>
    <contour>
      <point x="302.3888888888889" y="132.97979797979798" type="line"/>
      <point x="607.8636363636364" y="132.97979797979798" type="line"/>
      <point x="385.16161616161617" y="567.020202020202" type="line"/>
      <point x="607.8636363636364" y="1001.060606060606" type="line"/>
      <point x="302.3888888888889" y="1001.060606060606" type="line"/>
      <point x="79.68686868686869" y="567.020202020202" type="line"/>
    </contour>
    <contour>
      <point x="787.0631313131313" y="132.97979797979798" type="line"/>
      <point x="1092.5378787878788" y="132.97979797979798" type="line"/>
      <point x="869.8358585858585" y="567.020202020202" type="line"/>
      <point x="1092.5378787878788" y="1001.060606060606" type="line"/>
      <point x="787.0631313131313" y="1001.060606060606" type="line"/>
      <point x="564.3611111111111" y="567.020202020202" type="line"/>
    </contour>
  </outline>
</glyph>
<glyph name="logicalnot" format="2">
  <advance width="1286.29797979798"/>
  <unicode hex="00AC"/>
  <outline>
    <contour>
      <point x="938.159090909091" y="194.1060606060606" type="line"/>
      <point x="1185.1742424242425" y="194.1060606060606" type="line"/>
      <point x="1185.1742424242425" y="878.3484848484849" type="line"/>
      <point x="107.41161616161617" y="878.3484848484849" type="line"/>
      <point x="107.41161616161617" y="641.6515151515151" type="line"/>
      <point x="938.159090909091" y="641.6515151515151" type="line"/>
    </contour>
  </outline>
</glyph>
<glyph name="softhyphen" format="2">
  <advance width="822.6464646464647"/>
  <unicode hex="00AD"/>
  <outline>
    <contour>
      <point x="107.41161616161617" y="442.7045454545455" type="line"/>
      <point x="715.2348484848485" y="442.7045454545455" type="line"/>
      <point x="715.2348484848485" y="691.3358585858585" type="line"/>
      <point x="107.41161616161617" y="691.3358585858585" type="line"/>
    </contour>
  </outline>
</glyph>
<glyph name="registered" format="2">
  <advance width="1416.419191919192"/>
  <unicode hex="00AE"/>
  <outline>
    <contour>
      <point x="708.209595959596" y="268.0" type="curve" smooth="yes"/>
      <point x="1070.209595959596" y="268.0"/>
      <point x="1318.209595959596" y="518.0"/>
      <point x="1318.209595959596" y="882.0" type="curve" smooth="yes"/>
      <point x="1318.209595959596" y="1246.0"/>
      <point x="1070.209595959596" y="1498.0"/>
      <point x="708.209595959596" y="1498.0" type="curve" smooth="yes"/>
      <point x="346.20959595959596" y="1498.0"/>
      <point x="98.20959595959597" y="1246.0"/>
      <point x="98.20959595959597" y="882.0" type="curve" smooth="yes"/>
      <point x="98.20959595959597" y="518.0"/>
      <point x="346.20959595959596" y="268.0"/>
    </contour>
    <contour>
      <point x="835.6641414141415" y="600.0" type="line"/>
      <point x="986.0782828282828" y="600.0" type="line"/>
      <point x="826.9267676767677" y="831.9191919191919" type="line"/>
      <point x="693.9166666666666" y="805.9191919191919" type="line"/>
    </contour>
    <contour>
      <point x="708.209595959596" y="397.1818181818182" type="curve" smooth="yes"/>
      <point x="422.3308080808081" y="397.1818181818182"/>
      <point x="236.41161616161617" y="587.9090909090909"/>
      <point x="236.41161616161617" y="882.0" type="curve" smooth="yes"/>
      <point x="236.41161616161617" y="1177.4949494949494"/>
      <point x="422.3308080808081" y="1368.8181818181818"/>
      <point x="708.209595959596" y="1368.8181818181818" type="curve" smooth="yes"/>
      <point x="994.0883838383838" y="1368.8181818181818"/>
      <point x="1180.0075757575758" y="1177.4949494949494"/>
      <point x="1180.0075757575758" y="882.0" type="curve" smooth="yes"/>
      <point x="1180.0075757575758" y="587.9090909090909"/>
      <point x="994.0883838383838" y="397.1818181818182"/>
    </contour>
    <contour>
      <point x="490.38131313131316" y="600.0" type="line"/>
      <point x="626.5833333333334" y="600.0" type="line"/>
      <point x="630.7954545454545" y="797.9191919191919" type="line"/>
      <point x="698.4217171717172" y="797.9191919191919" type="line" smooth="yes"/>
      <point x="873.0580808080808" y="797.9191919191919"/>
      <point x="956.4621212121212" y="862.5151515151515"/>
      <point x="956.4621212121212" y="993.959595959596" type="curve" smooth="yes"/>
      <point x="956.4621212121212" y="1125.4040404040404"/>
      <point x="871.0580808080808" y="1192.0"/>
      <point x="698.4217171717172" y="1192.0" type="curve" smooth="yes"/>
      <point x="490.38131313131316" y="1192.0" type="line"/>
    </contour>
    <contour>
      <point x="630.7954545454545" y="909.060606060606" type="line"/>
      <point x="630.7954545454545" y="1080.858585858586" type="line"/>
      <point x="720.25" y="1080.858585858586" type="line" smooth="yes"/>
      <point x="787.320707070707" y="1080.858585858586"/>
      <point x="823.0681818181819" y="1052.090909090909"/>
      <point x="823.0681818181819" y="993.959595959596" type="curve" smooth="yes"/>
      <point x="823.0681818181819" y="935.8282828282828"/>
      <point x="789.320707070707" y="909.060606060606"/>
      <point x="720.25" y="909.060606060606" type="curve" smooth="yes"/>
    </contour>
  </outline>
</glyph>
<glyph name="macron" format="2">
  <advance width="1110.6060606060605"/>
  <unicode hex="00AF"/>
  <anchor x="555.3030303030303" y="1200.0" name="_top"/>
  <anchor x="555.3030303030303" y="1598.121212121212" name="top"/>
  <outline>
    <contour>
      <point x="215.44191919191917" y="1324.8510101010102" type="line"/>
      <point x="895.1641414141413" y="1324.8510101010102" type="line"/>
      <point x="895.1641414141413" y="1515.6818181818182" type="line"/>
      <point x="215.44191919191917" y="1515.6818181818182" type="line"/>
    </contour>
  </outline>
</glyph>
<glyph name="degree" format="2">
  <advance width="940.2777777777778"/>
  <unicode hex="00B0"/>
  <outline>
    <contour>
      <point x="470.1388888888889" y="764.7777777777778" type="curve" smooth="yes"/>
      <point x="685.0075757575758" y="764.7777777777778"/>
      <point x="842.0681818181818" y="919.6262626262626"/>
      <point x="842.0681818181818" y="1132.4949494949494" type="curve" smooth="yes"/>
      <point x="842.0681818181818" y="1345.3636363636363"/>
      <point x="685.0075757575758" y="1498.8080808080808"/>
      <point x="470.1388888888889" y="1498.8080808080808" type="curve" smooth="yes"/>
      <point x="255.27020202020202" y="1498.8080808080808"/>
      <point x="98.20959595959597" y="1345.3636363636363"/>
      <point x="98.20959595959597" y="1132.4949494949494" type="curve" smooth="yes"/>
      <point x="98.20959595959597" y="919.6262626262626"/>
      <point x="255.27020202020202" y="764.7777777777778"/>
    </contour>
    <contour>
      <point x="470.1388888888889" y="946.3661616161617" type="curve" smooth="yes"/>
      <point x="367.780303030303" y="946.3661616161617"/>
      <point x="292.07323232323233" y="1017.4772727272727"/>
      <point x="292.07323232323233" y="1132.4949494949494" type="curve" smooth="yes"/>
      <point x="292.07323232323233" y="1247.8636363636365"/>
      <point x="369.1843434343434" y="1317.219696969697"/>
      <point x="470.1388888888889" y="1317.219696969697" type="curve" smooth="yes"/>
      <point x="571.0934343434344" y="1317.219696969697"/>
      <point x="648.2045454545455" y="1247.8636363636365"/>
      <point x="648.2045454545455" y="1132.4949494949494" type="curve" smooth="yes"/>
      <point x="648.2045454545455" y="1017.4772727272727"/>
      <point x="572.4974747474747" y="946.3661616161617"/>
    </contour>
  </outline>
</glyph>
<glyph name="plusminus" format="2">
  <advance width="1064.9747474747476"/>
  <unicode hex="00B1"/>
  <outline>
    <contour>
      <point x="408.979797979798" y="369.35353535353534" type="line"/>
      <point x="655.9949494949494" y="369.35353535353534" type="line"/>
      <point x="655.9949494949494" y="673.020202020202" type="line"/>
      <point x="957.5631313131313" y="673.020202020202" type="line"/>
      <point x="957.5631313131313" y="909.7171717171717" type="line"/>
      <point x="655.9949494949494" y="909.7171717171717" type="line"/>
      <point x="655.9949494949494" y="1213.3838383838383" type="line"/>
      <point x="408.979797979798" y="1213.3838383838383" type="line"/>
      <point x="408.979797979798" y="909.7171717171717" type="line"/>
      <point x="107.41161616161617" y="909.7171717171717" type="line"/>
      <point x="107.41161616161617" y="673.020202020202" type="line"/>
      <point x="408.979797979798" y="673.020202020202" type="line"/>
    </contour>
    <contour>
      <point x="107.41161616161617" y="1.0530303030303028" type="line"/>
      <point x="957.5631313131313" y="1.0530303030303028" type="line"/>
      <point x="957.5631313131313" y="237.74999999999997" type="line"/>
      <point x="107.41161616161617" y="237.74999999999997" type="line"/>
    </contour>
  </outline>
</glyph>
<glyph name="twosuperior" format="2">
  <advance width="816.6439393939394"/>
  <unicode hex="00B2"/>
  <outline>
    <contour>
      <point x="83.87373737373737" y="-136.0" type="line"/>
      <point x="736.0555555555555" y="-136.0" type="line"/>
      <point x="736.0555555555555" y="65.35101010101008" type="line"/>
      <point x="352.46969696969694" y="65.35101010101008" type="line"/>
      <point x="358.5025252525252" y="6.590909090909065" type="line"/>
      <point x="556.6287878787879" y="260.9166666666667" type="line" smooth="yes"/>
      <point x="655.7045454545455" y="386.94191919191917"/>
      <point x="694.7474747474747" y="482.3989898989899"/>
      <point x="695.1944444444445" y="582.3358585858585" type="curve" smooth="yes"/>
      <point x="695.6414141414141" y="790.820707070707"/>
      <point x="557.1565656565656" y="877.4040404040404"/>
      <point x="315.57070707070704" y="877.4040404040404" type="curve" smooth="yes"/>
      <point x="229.40151515151516" y="877.4040404040404"/>
      <point x="133.8939393939394" y="863.85101010101"/>
      <point x="70.82070707070707" y="841.4570707070707" type="curve"/>
      <point x="70.82070707070707" y="646.8813131313132" type="line"/>
      <point x="129.40656565656565" y="669.1691919191919"/>
      <point x="207.0429292929293" y="683.4242424242425"/>
      <point x="278.37373737373736" y="683.4242424242425" type="curve" smooth="yes"/>
      <point x="405.07828282828285" y="683.4242424242425"/>
      <point x="454.39141414141415" y="643.4646464646465"/>
      <point x="454.39141414141415" y="560.3813131313132" type="curve" smooth="yes"/>
      <point x="454.39141414141415" y="497.8131313131313"/>
      <point x="421.26262626262627" y="430.0656565656566"/>
      <point x="341.3560606060606" y="326.10353535353534" type="curve" smooth="yes"/>
      <point x="83.87373737373737" y="-6.290404040404056" type="line"/>
    </contour>
  </outline>
</glyph>
<glyph name="threesuperior" format="2">
  <advance width="816.6439393939394"/>
  <unicode hex="00B3"/>
  <outline>
    <contour>
      <point x="322.8156565656566" y="-149.40404040404042" type="curve" smooth="yes"/>
      <point x="590.530303030303" y="-149.40404040404042"/>
      <point x="733.9949494949494" y="-43.032828282828284"/>
      <point x="733.9949494949494" y="141.54040404040404" type="curve" smooth="yes"/>
      <point x="733.9949494949494" y="277.1060606060606"/>
      <point x="658.290404040404" y="362.979797979798"/>
      <point x="514.9671717171717" y="385.1287878787879" type="curve"/>
      <point x="514.9671717171717" y="375.2449494949495" type="line"/>
      <point x="632.3434343434343" y="401.0328282828283"/>
      <point x="702.75" y="488.1186868686869"/>
      <point x="702.75" y="609.3434343434343" type="curve" smooth="yes"/>
      <point x="702.75" y="780.979797979798"/>
      <point x="576.9873737373737" y="877.4040404040404"/>
      <point x="330.97474747474746" y="877.4040404040404" type="curve" smooth="yes"/>
      <point x="246.44444444444446" y="877.4040404040404"/>
      <point x="146.78787878787878" y="863.2979797979798"/>
      <point x="83.91666666666667" y="841.7550505050505" type="curve"/>
      <point x="83.91666666666667" y="659.4646464646464" type="line"/>
      <point x="146.70454545454547" y="683.6565656565657"/>
      <point x="228.7979797979798" y="696.5606060606061"/>
      <point x="299.69191919191917" y="696.5606060606061" type="curve" smooth="yes"/>
      <point x="419.3989898989899" y="696.5606060606061"/>
      <point x="470.9671717171717" y="658.8333333333334"/>
      <point x="470.9671717171717" y="585.0808080808081" type="curve" smooth="yes"/>
      <point x="470.9671717171717" y="512.060606060606"/>
      <point x="419.0656565656566" y="467.0656565656566"/>
      <point x="298.02272727272725" y="467.0656565656566" type="curve" smooth="yes"/>
      <point x="166.11111111111111" y="467.0656565656566" type="line"/>
      <point x="166.11111111111111" y="282.2651515151515" type="line"/>
      <point x="319.8787878787879" y="282.2651515151515" type="line" smooth="yes"/>
      <point x="451.1641414141414" y="282.2651515151515"/>
      <point x="503.9671717171717" y="238.92929292929293"/>
      <point x="503.9671717171717" y="157.72979797979798" type="curve" smooth="yes"/>
      <point x="503.9671717171717" y="73.69949494949492"/>
      <point x="446.13131313131316" y="31.790404040404013"/>
      <point x="312.33838383838383" y="31.790404040404013" type="curve" smooth="yes"/>
      <point x="239.13636363636363" y="31.790404040404013"/>
      <point x="147.3510101010101" y="43.237373737373716"/>
      <point x="70.54292929292929" y="65.1212121212121" type="curve"/>
      <point x="70.54292929292929" y="-117.16919191919192" type="line"/>
      <point x="149.37121212121212" y="-138.3080808080808"/>
      <point x="236.34848484848484" y="-149.40404040404042"/>
    </contour>
  </outline>
</glyph>
<glyph name="acute" format="2">
  <advance width="1110.6060606060605"/>
  <unicode hex="00B4"/>
  <anchor x="555.3030303030303" y="1200.0" name="_top"/>
  <anchor x="555.3030303030303" y="1626.20202020202" name="top"/>
  <outline>
    <contour>
      <point x="419.2979797979798" y="1233.111111111111" type="line"/>
      <point x="691.3080808080808" y="1233.111111111111" type="line"/>
      <point x="942.9267676767677" y="1616.0" type="line"/>
      <point x="627.1338383838383" y="1616.0" type="line"/>
    </contour>
  </outline>
</glyph>
<glyph name="micro" format="2">
  <advance width="1126.2676767676767"/>
  <unicode hex="00B5"/>
  <outline>
    <contour>
      <point x="511.07575757575756" y="-19.053030303030305" type="curve" smooth="yes"/>
      <point x="596.1868686868687" y="-19.053030303030305"/>
      <point x="670.969696969697" y="25.042929292929294"/>
      <point x="730.2929292929293" y="112.17171717171718" type="curve"/>
      <point x="743.9090909090909" y="112.17171717171718" type="line"/>
      <point x="765.3535353535353" y="0.0" type="line"/>
      <point x="1018.0580808080808" y="0.0" type="line"/>
      <point x="1018.0580808080808" y="1094.040404040404" type="line"/>
      <point x="713.1262626262626" y="1094.040404040404" type="line"/>
      <point x="713.1262626262626" y="333.260101010101" type="line"/>
      <point x="669.939393939394" y="274.9191919191919"/>
      <point x="596.1742424242424" y="248.07575757575754"/>
      <point x="538.6994949494949" y="248.07575757575754" type="curve" smooth="yes"/>
      <point x="460.1792929292929" y="248.07575757575754"/>
      <point x="406.05555555555554" y="287.1439393939394"/>
      <point x="406.05555555555554" y="408.75252525252523" type="curve" smooth="yes"/>
      <point x="406.05555555555554" y="629.9747474747475" type="line"/>
      <point x="265.38888888888886" y="629.9747474747475" type="line"/>
      <point x="265.38888888888886" y="385.979797979798" type="line" smooth="yes"/>
      <point x="265.38888888888886" y="89.16666666666666"/>
      <point x="366.6136363636364" y="-19.053030303030305"/>
    </contour>
    <contour>
      <point x="101.12373737373738" y="-440.0" type="line"/>
      <point x="406.05555555555554" y="-440.0" type="line"/>
      <point x="406.05555555555554" y="1093.689393939394" type="line"/>
      <point x="101.12373737373738" y="1093.689393939394" type="line"/>
    </contour>
  </outline>
</glyph>
<glyph name="paragraph" format="2">
  <advance width="1242.9065656565656"/>
  <unicode hex="00B6"/>
  <outline>
    <contour>
      <point x="563.6767676767677" y="0.0" type="line"/>
      <point x="780.8560606060606" y="0.0" type="line"/>
      <point x="780.8560606060606" y="1480.0" type="line"/>
      <point x="705.5479797979798" y="1491.159090909091"/>
      <point x="612.1136363636364" y="1498.2121212121212"/>
      <point x="522.3055555555555" y="1498.2121212121212" type="curve" smooth="yes"/>
      <point x="207.5681818181818" y="1498.2121212121212"/>
      <point x="66.36616161616162" y="1333.4267676767677"/>
      <point x="66.36616161616162" y="963.3787878787879" type="curve" smooth="yes"/>
      <point x="66.36616161616162" y="613.3838383838383"/>
      <point x="205.37626262626264" y="429.89646464646466"/>
      <point x="478.67929292929296" y="429.89646464646466" type="curve" smooth="yes"/>
      <point x="510.5757575757576" y="429.89646464646466"/>
      <point x="533.929292929293" y="430.99242424242425"/>
      <point x="563.6767676767677" y="432.63131313131316" type="curve"/>
    </contour>
    <contour>
      <point x="903.8358585858585" y="0.0" type="line"/>
      <point x="1121.0151515151515" y="0.0" type="line"/>
      <point x="1121.0151515151515" y="1480.0" type="line"/>
      <point x="903.8358585858585" y="1480.0" type="line"/>
    </contour>
  </outline>
</glyph>
<glyph name="periodcentered" format="2">
  <advance width="522.7020202020202"/>
  <unicode hex="00B7"/>
  <anchor x="261.3510101010101" y="560.0" name="_periodcentered"/>
  <outline>
    <contour>
      <point x="261.3510101010101" y="368.58333333333337" type="curve" smooth="yes"/>
      <point x="379.83838383838383" y="368.58333333333337"/>
      <point x="460.2449494949494" y="444.1818181818182"/>
      <point x="460.2449494949494" y="559.4040404040404" type="curve" smooth="yes"/>
      <point x="460.2449494949494" y="674.6262626262626"/>
      <point x="382.6464646464646" y="750.820707070707"/>
      <point x="261.3510101010101" y="750.820707070707" type="curve" smooth="yes"/>
      <point x="140.05555555555557" y="750.820707070707"/>
      <point x="62.45707070707072" y="677.4343434343434"/>
      <point x="62.45707070707072" y="559.4040404040404" type="curve" smooth="yes"/>
      <point x="62.45707070707072" y="441.3737373737374"/>
      <point x="142.86363636363637" y="368.58333333333337"/>
    </contour>
  </outline>
</glyph>
<glyph name="cedilla" format="2">
  <advance width="1110.6060606060605"/>
  <unicode hex="00B8"/>
  <anchor x="555.3030303030303" y="0.0" name="_bottom"/>
  <outline>
    <contour>
      <point x="548.0808080808081" y="-442.1212121212121" type="curve" smooth="yes"/>
      <point x="718.0075757575758" y="-442.1212121212121"/>
      <point x="796.6540404040403" y="-371.3787878787879"/>
      <point x="796.6540404040403" y="-261.3611111111111" type="curve" smooth="yes"/>
      <point x="796.6540404040403" y="-148.34343434343435"/>
      <point x="714.4343434343434" y="-83.31313131313132"/>
      <point x="568.9823232323232" y="-83.31313131313132" type="curve"/>
      <point x="640.060606060606" y="-127.95959595959596" type="line"/>
      <point x="640.060606060606" y="20.0" type="line"/>
      <point x="489.98989898989896" y="20.0" type="line"/>
      <point x="489.98989898989896" y="-174.88131313131314" type="line"/>
      <point x="531.6262626262626" y="-174.88131313131314" type="line" smooth="yes"/>
      <point x="597.0" y="-174.88131313131314"/>
      <point x="632.6388888888889" y="-198.06313131313132"/>
      <point x="632.6388888888889" y="-249.07575757575756" type="curve" smooth="yes"/>
      <point x="632.6388888888889" y="-299.8005050505051"/>
      <point x="600.0" y="-320.270202020202"/>
      <point x="533.9772727272727" y="-320.270202020202" type="curve" smooth="yes"/>
      <point x="490.24242424242425" y="-320.270202020202"/>
      <point x="429.6691919191919" y="-311.6212121212121"/>
      <point x="376.3282828282828" y="-289.54545454545456" type="curve"/>
      <point x="376.3282828282828" y="-412.23737373737373" type="line"/>
      <point x="425.80555555555554" y="-431.02525252525254"/>
      <point x="484.2954545454545" y="-442.1212121212121"/>
    </contour>
  </outline>
</glyph>
<glyph name="onesuperior" format="2">
  <advance width="816.6439393939394"/>
  <unicode hex="00B9"/>
  <outline>
    <contour>
      <point x="324.729797979798" y="-112.48989898989899" type="line"/>
      <point x="567.3939393939394" y="-112.48989898989899" type="line"/>
      <point x="567.3939393939394" y="868.0" type="line"/>
      <point x="414.1666666666667" y="868.0" type="line"/>
      <point x="135.2979797979798" y="687.7853535353536" type="line"/>
      <point x="135.2979797979798" y="471.81818181818187" type="line"/>
      <point x="414.1666666666667" y="652.0328282828283" type="line"/>
      <point x="324.729797979798" y="725.0656565656566" type="line"/>
    </contour>
    <contour>
      <point x="130.16161616161617" y="-136.0" type="line"/>
      <point x="752.0151515151515" y="-136.0" type="line"/>
      <point x="752.0151515151515" y="65.35101010101008" type="line"/>
      <point x="130.16161616161617" y="65.35101010101008" type="line"/>
    </contour>
  </outline>
</glyph>
<glyph name="ordmasculine" format="2">
  <advance width="929.4747474747475"/>
  <unicode hex="00BA"/>
  <outline>
    <contour>
      <point x="465.08838383838383" y="593.1919191919192" type="curve" smooth="yes"/>
      <point x="734.3863636363636" y="593.1919191919192"/>
      <point x="889.489898989899" y="752.4318181818181"/>
      <point x="889.489898989899" y="1045.6489898989898" type="curve" smooth="yes"/>
      <point x="889.489898989899" y="1338.8661616161617"/>
      <point x="734.3863636363636" y="1499.020202020202"/>
      <point x="465.08838383838383" y="1499.020202020202" type="curve" smooth="yes"/>
      <point x="195.79040404040404" y="1499.020202020202"/>
      <point x="39.9848484848485" y="1344.1313131313132"/>
      <point x="39.9848484848485" y="1045.6489898989898" type="curve" smooth="yes"/>
      <point x="39.9848484848485" y="747.1666666666666"/>
      <point x="195.79040404040404" y="593.1919191919192"/>
    </contour>
    <contour>
      <point x="465.08838383838383" y="800.6590909090909" type="curve" smooth="yes"/>
      <point x="380.91666666666663" y="800.6590909090909"/>
      <point x="323.50505050505046" y="848.5277777777777"/>
      <point x="323.50505050505046" y="1045.6489898989898" type="curve" smooth="yes"/>
      <point x="323.50505050505046" y="1243.8232323232323"/>
      <point x="380.91666666666663" y="1291.5530303030303"/>
      <point x="465.08838383838383" y="1291.5530303030303" type="curve" smooth="yes"/>
      <point x="549.9621212121212" y="1291.5530303030303"/>
      <point x="605.969696969697" y="1243.8232323232323"/>
      <point x="605.969696969697" y="1045.6489898989898" type="curve" smooth="yes"/>
      <point x="605.969696969697" y="848.5277777777777"/>
      <point x="549.9621212121212" y="800.6590909090909"/>
    </contour>
  </outline>
</glyph>
<glyph name="guillemetright" format="2">
  <advance width="1132.2247474747473"/>
  <unicode hex="00BB"/>
  <outline>
    <contour>
      <point x="39.68686868686869" y="132.97979797979798" type="line"/>
      <point x="345.16161616161617" y="132.97979797979798" type="line"/>
      <point x="567.8636363636364" y="567.020202020202" type="line"/>
      <point x="345.16161616161617" y="1001.060606060606" type="line"/>
      <point x="39.68686868686869" y="1001.060606060606" type="line"/>
      <point x="262.3888888888889" y="567.020202020202" type="line"/>
    </contour>
    <contour>
      <point x="524.3611111111111" y="132.97979797979798" type="line"/>
      <point x="829.8358585858585" y="132.97979797979798" type="line"/>
      <point x="1052.5378787878788" y="567.020202020202" type="line"/>
      <point x="829.8358585858585" y="1001.060606060606" type="line"/>
      <point x="524.3611111111111" y="1001.060606060606" type="line"/>
      <point x="747.0631313131313" y="567.020202020202" type="line"/>
    </contour>
  </outline>
</glyph>
<glyph name="onequarter" format="2">
  <advance width="1966.6616161616162"/>
  <unicode hex="00BC"/>
  <outline>
    <contour>
      <point x="324.729797979798" y="639.510101010101" type="line"/>
      <point x="567.3939393939394" y="639.510101010101" type="line"/>
      <point x="567.3939393939394" y="1620.0" type="line"/>
      <point x="414.1666666666667" y="1620.0" type="line"/>
      <point x="135.2979797979798" y="1439.7853535353536" type="line"/>
      <point x="135.2979797979798" y="1223.8181818181818" type="line"/>
      <point x="414.1666666666667" y="1404.0328282828282" type="line"/>
      <point x="324.729797979798" y="1477.0656565656566" type="line"/>
    </contour>
    <contour>
      <point x="130.16161616161617" y="616.0" type="line"/>
      <point x="752.0151515151515" y="616.0" type="line"/>
      <point x="752.0151515151515" y="817.35101010101" type="line"/>
      <point x="130.16161616161617" y="817.35101010101" type="line"/>
    </contour>
    <contour>
      <point x="474.0429292929293" y="-136.0" type="line"/>
      <point x="727.1313131313132" y="-136.0" type="line"/>
      <point x="1492.6186868686868" y="1616.0" type="line"/>
      <point x="1239.530303030303" y="1616.0" type="line"/>
    </contour>
    <contour>
      <point x="1176.1464646464647" y="64.40151515151516" type="line"/>
      <point x="1943.0757575757575" y="64.40151515151516" type="line"/>
      <point x="1943.0757575757575" y="247.2550505050505" type="line"/>
      <point x="1381.7828282828282" y="247.2550505050505" type="line"/>
      <point x="1407.0151515151515" y="196.2171717171717" type="line"/>
      <point x="1705.621212121212" y="864.0" type="line"/>
      <point x="1478.9646464646464" y="864.0" type="line"/>
      <point x="1176.1464646464647" y="196.3661616161616" type="line"/>
    </contour>
    <contour>
      <point x="1614.659090909091" y="-136.0" type="line"/>
      <point x="1826.1893939393938" y="-136.0" type="line"/>
      <point x="1826.1893939393938" y="526.0" type="line"/>
      <point x="1662.8131313131312" y="526.0" type="line"/>
      <point x="1614.659090909091" y="247.2550505050505" type="line"/>
    </contour>
  </outline>
</glyph>
<glyph name="onehalf" format="2">
  <advance width="1966.6616161616162"/>
  <unicode hex="00BD"/>
  <outline>
    <contour>
      <point x="324.729797979798" y="639.510101010101" type="line"/>
      <point x="567.3939393939394" y="639.510101010101" type="line"/>
      <point x="567.3939393939394" y="1620.0" type="line"/>
      <point x="414.1666666666667" y="1620.0" type="line"/>
      <point x="135.2979797979798" y="1439.7853535353536" type="line"/>
      <point x="135.2979797979798" y="1223.8181818181818" type="line"/>
      <point x="414.1666666666667" y="1404.0328282828282" type="line"/>
      <point x="324.729797979798" y="1477.0656565656566" type="line"/>
    </contour>
    <contour>
      <point x="130.16161616161617" y="616.0" type="line"/>
      <point x="752.0151515151515" y="616.0" type="line"/>
      <point x="752.0151515151515" y="817.35101010101" type="line"/>
      <point x="130.16161616161617" y="817.35101010101" type="line"/>
    </contour>
    <contour>
      <point x="474.0429292929293" y="-136.0" type="line"/>
      <point x="727.1313131313132" y="-136.0" type="line"/>
      <point x="1492.6186868686868" y="1616.0" type="line"/>
      <point x="1239.530303030303" y="1616.0" type="line"/>
    </contour>
    <contour>
      <point x="1233.891414141414" y="-136.0" type="line"/>
      <point x="1886.0732323232323" y="-136.0" type="line"/>
      <point x="1886.0732323232323" y="65.35101010101008" type="line"/>
      <point x="1502.4873737373737" y="65.35101010101008" type="line"/>
      <point x="1508.5202020202019" y="6.590909090909065" type="line"/>
      <point x="1706.6464646464647" y="260.9166666666667" type="line" smooth="yes"/>
      <point x="1805.7222222222222" y="386.94191919191917"/>
      <point x="1844.7651515151515" y="482.3989898989899"/>
      <point x="1845.212121212121" y="582.3358585858585" type="curve" smooth="yes"/>
      <point x="1845.6590909090908" y="790.820707070707"/>
      <point x="1707.1742424242425" y="877.4040404040404"/>
      <point x="1465.5883838383838" y="877.4040404040404" type="curve" smooth="yes"/>
      <point x="1379.419191919192" y="877.4040404040404"/>
      <point x="1283.9116161616162" y="863.85101010101"/>
      <point x="1220.8383838383838" y="841.4570707070707" type="curve"/>
      <point x="1220.8383838383838" y="646.8813131313132" type="line"/>
      <point x="1279.4242424242425" y="669.1691919191919"/>
      <point x="1357.060606060606" y="683.4242424242425"/>
      <point x="1428.391414141414" y="683.4242424242425" type="curve" smooth="yes"/>
      <point x="1555.0959595959596" y="683.4242424242425"/>
      <point x="1604.409090909091" y="643.4646464646465"/>
      <point x="1604.409090909091" y="560.3813131313132" type="curve" smooth="yes"/>
      <point x="1604.409090909091" y="497.8131313131313"/>
      <point x="1571.280303030303" y="430.0656565656566"/>
      <point x="1491.3737373737374" y="326.10353535353534" type="curve" smooth="yes"/>
      <point x="1233.891414141414" y="-6.290404040404056" type="line"/>
    </contour>
  </outline>
</glyph>
<glyph name="threequarters" format="2">
  <advance width="1966.6616161616162"/>
  <unicode hex="00BE"/>
  <outline>
    <contour>
      <point x="322.8156565656566" y="602.5959595959596" type="curve" smooth="yes"/>
      <point x="590.530303030303" y="602.5959595959596"/>
      <point x="733.9949494949494" y="708.9671717171717"/>
      <point x="733.9949494949494" y="893.540404040404" type="curve" smooth="yes"/>
      <point x="733.9949494949494" y="1029.1060606060605"/>
      <point x="658.290404040404" y="1114.979797979798"/>
      <point x="514.9671717171717" y="1137.128787878788" type="curve"/>
      <point x="514.9671717171717" y="1127.2449494949494" type="line"/>
      <point x="632.3434343434343" y="1153.0328282828282"/>
      <point x="702.75" y="1240.1186868686868"/>
      <point x="702.75" y="1361.3434343434344" type="curve" smooth="yes"/>
      <point x="702.75" y="1532.979797979798"/>
      <point x="576.9873737373737" y="1629.4040404040404"/>
      <point x="330.97474747474746" y="1629.4040404040404" type="curve" smooth="yes"/>
      <point x="246.44444444444446" y="1629.4040404040404"/>
      <point x="146.78787878787878" y="1615.29797979798"/>
      <point x="83.91666666666667" y="1593.7550505050506" type="curve"/>
      <point x="83.91666666666667" y="1411.4646464646464" type="line"/>
      <point x="146.70454545454547" y="1435.6565656565656"/>
      <point x="228.7979797979798" y="1448.560606060606"/>
      <point x="299.69191919191917" y="1448.560606060606" type="curve" smooth="yes"/>
      <point x="419.3989898989899" y="1448.560606060606"/>
      <point x="470.9671717171717" y="1410.8333333333333"/>
      <point x="470.9671717171717" y="1337.080808080808" type="curve" smooth="yes"/>
      <point x="470.9671717171717" y="1264.060606060606"/>
      <point x="419.0656565656566" y="1219.0656565656566"/>
      <point x="298.02272727272725" y="1219.0656565656566" type="curve" smooth="yes"/>
      <point x="166.11111111111111" y="1219.0656565656566" type="line"/>
      <point x="166.11111111111111" y="1034.2651515151515" type="line"/>
      <point x="319.8787878787879" y="1034.2651515151515" type="line" smooth="yes"/>
      <point x="451.1641414141414" y="1034.2651515151515"/>
      <point x="503.9671717171717" y="990.929292929293"/>
      <point x="503.9671717171717" y="909.7297979797979" type="curve" smooth="yes"/>
      <point x="503.9671717171717" y="825.6994949494949"/>
      <point x="446.13131313131316" y="783.790404040404"/>
      <point x="312.33838383838383" y="783.790404040404" type="curve" smooth="yes"/>
      <point x="239.13636363636363" y="783.790404040404"/>
      <point x="147.3510101010101" y="795.2373737373737"/>
      <point x="70.54292929292929" y="817.1212121212121" type="curve"/>
      <point x="70.54292929292929" y="634.8308080808081" type="line"/>
      <point x="149.37121212121212" y="613.6919191919192"/>
      <point x="236.34848484848484" y="602.5959595959596"/>
    </contour>
    <contour>
      <point x="474.0429292929293" y="-136.0" type="line"/>
      <point x="727.1313131313132" y="-136.0" type="line"/>
      <point x="1492.6186868686868" y="1616.0" type="line"/>
      <point x="1239.530303030303" y="1616.0" type="line"/>
    </contour>
    <contour>
      <point x="1176.1464646464647" y="64.40151515151516" type="line"/>
      <point x="1943.0757575757575" y="64.40151515151516" type="line"/>
      <point x="1943.0757575757575" y="247.2550505050505" type="line"/>
      <point x="1381.7828282828282" y="247.2550505050505" type="line"/>
      <point x="1407.0151515151515" y="196.2171717171717" type="line"/>
      <point x="1705.621212121212" y="864.0" type="line"/>
      <point x="1478.9646464646464" y="864.0" type="line"/>
      <point x="1176.1464646464647" y="196.3661616161616" type="line"/>
    </contour>
    <contour>
      <point x="1614.659090909091" y="-136.0" type="line"/>
      <point x="1826.1893939393938" y="-136.0" type="line"/>
      <point x="1826.1893939393938" y="526.0" type="line"/>
      <point x="1662.8131313131312" y="526.0" type="line"/>
      <point x="1614.659090909091" y="247.2550505050505" type="line"/>
    </contour>
  </outline>
</glyph>
<glyph name="questiondown" format="2">
  <advance width="929.0025252525252"/>
  <unicode hex="00BF"/>
  <outline>
    <contour>
      <point x="614.2550505050505" y="631.1717171717172" type="line"/>
      <point x="426.9040404040404" y="631.1717171717172" type="line"/>
      <point x="403.2146464646465" y="408.75252525252523" type="line"/>
      <point x="170.11363636363637" y="331.96969696969694"/>
      <point x="44.80050505050505" y="198.69444444444443"/>
      <point x="44.80050505050505" y="-9.537878787878796" type="curve" smooth="yes"/>
      <point x="44.80050505050505" y="-258.969696969697"/>
      <point x="218.78535353535352" y="-400.0"/>
      <point x="558.4545454545455" y="-400.0" type="curve" smooth="yes"/>
      <point x="676.2929292929293" y="-400.0"/>
      <point x="814.7247474747475" y="-379.0959595959596"/>
      <point x="903.85101010101" y="-347.0530303030303" type="curve"/>
      <point x="903.85101010101" y="-105.30303030303034" type="line"/>
      <point x="812.0631313131313" y="-139.23989898989905"/>
      <point x="700.310606060606" y="-158.14393939393943"/>
      <point x="596.5126262626262" y="-158.14393939393943" type="curve" smooth="yes"/>
      <point x="419.7929292929292" y="-158.14393939393943"/>
      <point x="341.90404040404036" y="-97.45707070707073"/>
      <point x="341.90404040404036" y="19.648989898989882" type="curve" smooth="yes"/>
      <point x="341.90404040404036" y="132.1060606060606"/>
      <point x="412.800505050505" y="206.5378787878788"/>
      <point x="666.6212121212121" y="264.51262626262627" type="curve"/>
    </contour>
    <contour>
      <point x="520.4040404040404" y="1111.060606060606" type="curve" smooth="yes"/>
      <point x="401.32070707070704" y="1111.060606060606"/>
      <point x="321.51010101010104" y="1036.270202020202"/>
      <point x="321.51010101010104" y="926.909090909091" type="curve" smooth="yes"/>
      <point x="321.51010101010104" y="816.9520202020202"/>
      <point x="399.10858585858585" y="742.1616161616162"/>
      <point x="520.4040404040404" y="742.1616161616162" type="curve" smooth="yes"/>
      <point x="641.6994949494949" y="742.1616161616162"/>
      <point x="719.2979797979797" y="814.1439393939395"/>
      <point x="719.2979797979797" y="926.909090909091" type="curve" smooth="yes"/>
      <point x="719.2979797979797" y="1039.078282828283"/>
      <point x="638.8914141414141" y="1111.060606060606"/>
    </contour>
  </outline>
</glyph>
<glyph name="Atilde" format="2">
  <advance width="1353.3181818181818"/>
  <unicode hex="00C3"/>
  <anchor x="676.6060606060606" y="1520.0" name="_top"/>
  <anchor x="676.9570707070707" y="0.0" name="bottom"/>
  <anchor x="1345.3358585858587" y="0.0" name="ogonek"/>
  <anchor x="676.6060606060606" y="1520.0" name="top"/>
  <outline>
    <contour>
      <point x="7.982323232323235" y="0.0" type="line"/>
      <point x="310.3939393939394" y="0.0" type="line"/>
      <point x="690.4671717171717" y="1342.0681818181818" type="line"/>
      <point x="657.340909090909" y="1342.0681818181818" type="line"/>
      <point x="1039.520202020202" y="0.0" type="line"/>
      <point x="1345.3358585858587" y="0.0" type="line"/>
      <point x="904.6414141414141" y="1480.0" type="line"/>
      <point x="448.67676767676767" y="1480.0" type="line"/>
    </contour>
    <contour>
      <point x="296.23989898989896" y="397.07323232323233" type="line"/>
      <point x="1055.3232323232323" y="397.07323232323233" type="line"/>
      <point x="992.5" y="651.9166666666666" type="line"/>
      <point x="359.4141414141414" y="651.9166666666666" type="line"/>
    </contour>
    <contour>
      <point x="841.3888888888889" y="1618.9267676767677" type="curve" smooth="yes"/>
      <point x="927.7045454545455" y="1618.9267676767677"/>
      <point x="986.3838383838383" y="1641.2247474747476"/>
      <point x="1036.0833333333333" y="1690.2550505050506" type="curve"/>
      <point x="1036.0833333333333" y="1873.9924242424242" type="line"/>
      <point x="978.0328282828283" y="1825.641414141414"/>
      <point x="924.5025252525253" y="1801.439393939394"/>
      <point x="845.60101010101" y="1801.439393939394" type="curve" smooth="yes"/>
      <point x="734.3813131313132" y="1801.439393939394"/>
      <point x="644.1489898989898" y="1880.5454545454545"/>
      <point x="511.82323232323233" y="1880.5454545454545" type="curve" smooth="yes"/>
      <point x="425.50757575757575" y="1880.5454545454545"/>
      <point x="366.8282828282828" y="1856.8434343434344"/>
      <point x="317.1287878787879" y="1807.8131313131314" type="curve"/>
      <point x="317.1287878787879" y="1624.0757575757575" type="line"/>
      <point x="375.17929292929296" y="1672.4267676767677"/>
      <point x="428.70959595959596" y="1696.628787878788"/>
      <point x="507.6111111111111" y="1696.628787878788" type="curve" smooth="yes"/>
      <point x="618.8308080808081" y="1696.628787878788"/>
      <point x="709.0631313131313" y="1618.9267676767677"/>
    </contour>
  </outline>
</glyph>
<glyph name="Adieresis" format="2">
  <advance width="1353.3181818181818"/>
  <unicode hex="00C4"/>
  <anchor x="676.6060606060606" y="1520.0" name="_top"/>
  <anchor x="676.9570707070707" y="0.0" name="bottom"/>
  <anchor x="1345.3358585858587" y="0.0" name="ogonek"/>
  <anchor x="676.6060606060606" y="1520.0" name="top"/>
  <outline>
    <contour>
      <point x="7.982323232323235" y="0.0" type="line"/>
      <point x="310.3939393939394" y="0.0" type="line"/>
      <point x="690.4671717171717" y="1342.0681818181818" type="line"/>
      <point x="657.340909090909" y="1342.0681818181818" type="line"/>
      <point x="1039.520202020202" y="0.0" type="line"/>
      <point x="1345.3358585858587" y="0.0" type="line"/>
      <point x="904.6414141414141" y="1480.0" type="line"/>
      <point x="448.67676767676767" y="1480.0" type="line"/>
    </contour>
    <contour>
      <point x="296.23989898989896" y="397.07323232323233" type="line"/>
      <point x="1055.3232323232323" y="397.07323232323233" type="line"/>
      <point x="992.5" y="651.9166666666666" type="line"/>
      <point x="359.4141414141414" y="651.9166666666666" type="line"/>
    </contour>
    <contour>
      <point x="919.780303030303" y="1605.7575757575758" type="curve" smooth="yes"/>
      <point x="1028.0883838383838" y="1605.7575757575758"/>
      <point x="1087.7853535353534" y="1658.5404040404042"/>
      <point x="1087.7853535353534" y="1750.5959595959596" type="curve" smooth="yes"/>
      <point x="1087.7853535353534" y="1842.6515151515152"/>
      <point x="1028.0883838383838" y="1896.030303030303"/>
      <point x="919.780303030303" y="1896.030303030303" type="curve" smooth="yes"/>
      <point x="811.4722222222222" y="1896.030303030303"/>
      <point x="751.7752525252525" y="1842.6515151515152"/>
      <point x="751.7752525252525" y="1750.5959595959596" type="curve" smooth="yes"/>
      <point x="751.7752525252525" y="1658.5404040404042"/>
      <point x="811.4722222222222" y="1605.7575757575758"/>
    </contour>
    <contour>
      <point x="433.4318181818182" y="1605.7575757575758" type="curve" smooth="yes"/>
      <point x="541.739898989899" y="1605.7575757575758"/>
      <point x="601.4368686868686" y="1658.5404040404042"/>
      <point x="601.4368686868686" y="1750.5959595959596" type="curve" smooth="yes"/>
      <point x="601.4368686868686" y="1842.6515151515152"/>
      <point x="541.739898989899" y="1896.030303030303"/>
      <point x="433.4318181818182" y="1896.030303030303" type="curve" smooth="yes"/>
      <point x="325.1237373737374" y="1896.030303030303"/>
      <point x="265.42676767676767" y="1842.6515151515152"/>
      <point x="265.42676767676767" y="1750.5959595959596" type="curve" smooth="yes"/>
      <point x="265.42676767676767" y="1658.5404040404042"/>
      <point x="325.1237373737374" y="1605.7575757575758"/>
    </contour>
  </outline>
</glyph>
<glyph name="Aring" format="2">
  <advance width="1353.3181818181818"/>
  <unicode hex="00C5"/>
  <anchor x="677.6489898989898" y="1466.3636363636363" name="_top"/>
  <anchor x="676.9570707070707" y="0.0" name="bottom"/>
  <anchor x="1345.3358585858587" y="0.0" name="ogonek"/>
  <anchor x="676.6060606060606" y="1520.0" name="top"/>
  <outline>
    <contour>
      <point x="7.982323232323235" y="0.0" type="line"/>
      <point x="310.3939393939394" y="0.0" type="line"/>
      <point x="690.4671717171717" y="1342.0681818181818" type="line"/>
      <point x="657.340909090909" y="1342.0681818181818" type="line"/>
      <point x="1039.520202020202" y="0.0" type="line"/>
      <point x="1345.3358585858587" y="0.0" type="line"/>
      <point x="904.6414141414141" y="1480.0" type="line"/>
      <point x="448.67676767676767" y="1480.0" type="line"/>
    </contour>
    <contour>
      <point x="296.23989898989896" y="397.07323232323233" type="line"/>
      <point x="1055.3232323232323" y="397.07323232323233" type="line"/>
      <point x="992.5" y="651.9166666666666" type="line"/>
      <point x="359.4141414141414" y="651.9166666666666" type="line"/>
    </contour>
    <contour>
      <point x="677.6489898989898" y="1528.4318181818182" type="curve" smooth="yes"/>
      <point x="801.9015151515151" y="1528.4318181818182"/>
      <point x="892.5378787878788" y="1616.260101010101"/>
      <point x="892.5378787878788" y="1737.7045454545455" type="curve" smooth="yes"/>
      <point x="892.5378787878788" y="1859.1489898989898"/>
      <point x="801.9015151515151" y="1946.9772727272727"/>
      <point x="677.6489898989898" y="1946.9772727272727" type="curve" smooth="yes"/>
      <point x="553.3964646464647" y="1946.9772727272727"/>
      <point x="462.760101010101" y="1859.1489898989898"/>
      <point x="462.760101010101" y="1737.7045454545455" type="curve" smooth="yes"/>
      <point x="462.760101010101" y="1616.260101010101"/>
      <point x="553.3964646464647" y="1528.4318181818182"/>
    </contour>
    <contour>
      <point x="677.6489898989898" y="1640.8055555555554" type="curve" smooth="yes"/>
      <point x="622.709595959596" y="1640.8055555555554"/>
      <point x="584.1540404040404" y="1678.169191919192"/>
      <point x="584.1540404040404" y="1737.7045454545455" type="curve" smooth="yes"/>
      <point x="584.1540404040404" y="1797.2398989898988"/>
      <point x="622.709595959596" y="1834.6035353535353"/>
      <point x="677.6489898989898" y="1834.6035353535353" type="curve" smooth="yes"/>
      <point x="732.5883838383838" y="1834.6035353535353"/>
      <point x="771.1439393939394" y="1797.2398989898988"/>
      <point x="771.1439393939394" y="1737.7045454545455" type="curve" smooth="yes"/>
      <point x="771.1439393939394" y="1678.169191919192"/>
      <point x="732.5883838383838" y="1640.8055555555554"/>
    </contour>
  </outline>
</glyph>
<glyph name="Ccedilla" format="2">
  <advance width="1143.969696969697"/>
  <unicode hex="00C7"/>
  <anchor x="708.4368686868687" y="0.0" name="_bottom"/>
  <anchor x="708.4368686868687" y="0.0" name="bottom"/>
  <anchor x="704.7121212121212" y="1520.0" name="top"/>
  <outline>
    <contour>
      <point x="792.4191919191919" y="-19.404040404040405" type="curve" smooth="yes"/>
      <point x="904.2070707070707" y="-19.404040404040405"/>
      <point x="1019.7474747474747" y="-0.712121212121211"/>
      <point x="1105.3863636363635" y="28.979797979797983" type="curve"/>
      <point x="1105.3863636363635" y="287.9292929292929" type="line"/>
      <point x="1006.9797979797979" y="257.7575757575757"/>
      <point x="915.7247474747475" y="240.7045454545454"/>
      <point x="827.9242424242424" y="240.7045454545454" type="curve" smooth="yes"/>
      <point x="543.6868686868686" y="240.7045454545454"/>
      <point x="400.08333333333326" y="363.85858585858585"/>
      <point x="400.08333333333326" y="740.5959595959596" type="curve" smooth="yes"/>
      <point x="400.08333333333326" y="1106.8535353535353"/>
      <point x="545.2171717171717" y="1239.2954545454545"/>
      <point x="834.2651515151515" y="1239.2954545454545" type="curve" smooth="yes"/>
      <point x="928.6489898989898" y="1239.2954545454545"/>
      <point x="1016.8838383838383" y="1227.9444444444446"/>
      <point x="1105.3863636363635" y="1206.080808080808" type="curve"/>
      <point x="1105.3863636363635" y="1465.030303030303" type="line"/>
      <point x="1012.8434343434344" y="1487.9141414141413"/>
      <point x="912.6843434343434" y="1499.4040404040404"/>
      <point x="810.2272727272727" y="1499.4040404040404" type="curve" smooth="yes"/>
      <point x="344.44444444444446" y="1499.4040404040404"/>
      <point x="75.35606060606061" y="1257.388888888889"/>
      <point x="75.35606060606061" y="736.5959595959596" type="curve" smooth="yes"/>
      <point x="75.35606060606061" y="196.48484848484847"/>
      <point x="339.4570707070707" y="-19.404040404040405"/>
    </contour>
    <contour>
      <point x="676.560606060606" y="-442.1212121212121" type="curve" smooth="yes"/>
      <point x="859.6767676767677" y="-442.1212121212121"/>
      <point x="942.8989898989898" y="-372.76262626262627"/>
      <point x="942.8989898989898" y="-259.8611111111111" type="curve" smooth="yes"/>
      <point x="942.8989898989898" y="-145.55555555555557"/>
      <point x="854.7626262626262" y="-82.86616161616162"/>
      <point x="697.0151515151515" y="-82.86616161616162" type="curve"/>
      <point x="764.5176767676768" y="-127.95959595959596" type="line"/>
      <point x="764.5176767676768" y="20.0" type="line"/>
      <point x="614.4469696969697" y="20.0" type="line"/>
      <point x="614.4469696969697" y="-174.88131313131314" type="line"/>
      <point x="658.7651515151515" y="-174.88131313131314" type="line" smooth="yes"/>
      <point x="735.6060606060606" y="-174.88131313131314"/>
      <point x="778.4368686868687" y="-197.6161616161616"/>
      <point x="778.4368686868687" y="-248.97979797979798" type="curve" smooth="yes"/>
      <point x="778.4368686868687" y="-300.69444444444446"/>
      <point x="737.7121212121212" y="-320.270202020202"/>
      <point x="661.1161616161617" y="-320.270202020202" type="curve" smooth="yes"/>
      <point x="609.2752525252525" y="-320.270202020202"/>
      <point x="543.0858585858585" y="-311.17424242424244"/>
      <point x="483.020202020202" y="-288.6515151515151" type="curve"/>
      <point x="483.020202020202" y="-411.34343434343435" type="line"/>
      <point x="538.7222222222222" y="-431.02525252525254"/>
      <point x="604.3712121212121" y="-442.1212121212121"/>
    </contour>
  </outline>
</glyph>
<glyph name="Egrave" format="2">
  <advance width="1163.8838383838383"/>
  <unicode hex="00C8"/>
  <anchor x="629.3989898989898" y="1520.0" name="_top"/>
  <anchor x="629.6969696969697" y="0.0" name="bottom"/>
  <anchor x="1019.0984848484849" y="0.0" name="ogonek"/>
  <anchor x="629.3989898989898" y="1520.0" name="top"/>
  <anchor x="37.446969696969695" y="1480.0" name="topleft"/>
  <outline>
    <contour>
      <point x="121.89141414141415" y="0.0" type="line"/>
      <point x="1102.608585858586" y="0.0" type="line"/>
      <point x="1102.608585858586" y="256.9494949494949" type="line"/>
      <point x="427.8762626262626" y="256.9494949494949" type="line"/>
      <point x="427.8762626262626" y="1223.050505050505" type="line"/>
      <point x="1092.608585858586" y="1223.050505050505" type="line"/>
      <point x="1092.608585858586" y="1480.0" type="line"/>
      <point x="121.89141414141415" y="1480.0" type="line"/>
    </contour>
    <contour>
      <point x="324.66666666666663" y="628.3131313131313" type="line"/>
      <point x="991.6843434343434" y="628.3131313131313" type="line"/>
      <point x="991.6843434343434" y="885.2626262626262" type="line"/>
      <point x="324.66666666666663" y="885.2626262626262" type="line"/>
    </contour>
    <contour>
      <point x="493.04292929292933" y="1594.939393939394" type="line"/>
      <point x="765.7550505050505" y="1594.939393939394" type="line"/>
      <point x="599.5126262626262" y="1897.828282828283" type="line"/>
      <point x="280.76262626262627" y="1897.828282828283" type="line"/>
    </contour>
  </outline>
</glyph>
<glyph name="Edieresis" format="2">
  <advance width="1163.8838383838383"/>
  <unicode hex="00CB"/>
  <anchor x="629.3989898989898" y="1520.0" name="_top"/>
  <anchor x="629.6969696969697" y="0.0" name="bottom"/>
  <anchor x="1019.0984848484849" y="0.0" name="ogonek"/>
  <anchor x="629.3989898989898" y="1520.0" name="top"/>
  <anchor x="37.446969696969695" y="1480.0" name="topleft"/>
  <outline>
    <contour>
      <point x="121.89141414141415" y="0.0" type="line"/>
      <point x="1102.608585858586" y="0.0" type="line"/>
      <point x="1102.608585858586" y="256.9494949494949" type="line"/>
      <point x="427.8762626262626" y="256.9494949494949" type="line"/>
      <point x="427.8762626262626" y="1223.050505050505" type="line"/>
      <point x="1092.608585858586" y="1223.050505050505" type="line"/>
      <point x="1092.608585858586" y="1480.0" type="line"/>
      <point x="121.89141414141415" y="1480.0" type="line"/>
    </contour>
    <contour>
      <point x="324.66666666666663" y="628.3131313131313" type="line"/>
      <point x="991.6843434343434" y="628.3131313131313" type="line"/>
      <point x="991.6843434343434" y="885.2626262626262" type="line"/>
      <point x="324.66666666666663" y="885.2626262626262" type="line"/>
    </contour>
    <contour>
      <point x="872.5732323232323" y="1605.7575757575758" type="curve" smooth="yes"/>
      <point x="980.881313131313" y="1605.7575757575758"/>
      <point x="1040.5782828282827" y="1658.5404040404042"/>
      <point x="1040.5782828282827" y="1750.5959595959596" type="curve" smooth="yes"/>
      <point x="1040.5782828282827" y="1842.6515151515152"/>
      <point x="980.881313131313" y="1896.030303030303"/>
      <point x="872.5732323232323" y="1896.030303030303" type="curve" smooth="yes"/>
      <point x="764.2651515151515" y="1896.030303030303"/>
      <point x="704.5681818181819" y="1842.6515151515152"/>
      <point x="704.5681818181819" y="1750.5959595959596" type="curve" smooth="yes"/>
      <point x="704.5681818181819" y="1658.5404040404042"/>
      <point x="764.2651515151515" y="1605.7575757575758"/>
    </contour>
    <contour>
      <point x="386.22474747474746" y="1605.7575757575758" type="curve" smooth="yes"/>
      <point x="494.5328282828283" y="1605.7575757575758"/>
      <point x="554.2297979797979" y="1658.5404040404042"/>
      <point x="554.2297979797979" y="1750.5959595959596" type="curve" smooth="yes"/>
      <point x="554.2297979797979" y="1842.6515151515152"/>
      <point x="494.5328282828283" y="1896.030303030303"/>
      <point x="386.22474747474746" y="1896.030303030303" type="curve" smooth="yes"/>
      <point x="277.9166666666667" y="1896.030303030303"/>
      <point x="218.219696969697" y="1842.6515151515152"/>
      <point x="218.219696969697" y="1750.5959595959596" type="curve" smooth="yes"/>
      <point x="218.219696969697" y="1658.5404040404042"/>
      <point x="277.9166666666667" y="1605.7575757575758"/>
    </contour>
  </outline>
</glyph>
<glyph name="Igrave" format="2">
  <advance width="553.9797979797979"/>
  <unicode hex="00CC"/>
  <anchor x="276.98989898989896" y="1520.0" name="_top"/>
  <anchor x="276.63888888888886" y="0.0" name="bottom"/>
  <anchor x="432.08838383838383" y="0.0" name="ogonek"/>
  <anchor x="276.98989898989896" y="1520.0" name="top"/>
  <outline>
    <contour>
      <point x="121.89141414141415" y="0.0" type="line"/>
      <point x="432.08838383838383" y="0.0" type="line"/>
      <point x="432.08838383838383" y="1480.0" type="line"/>
      <point x="121.89141414141415" y="1480.0" type="line"/>
    </contour>
    <contour>
      <point x="140.6338383838384" y="1594.939393939394" type="line"/>
      <point x="413.3459595959596" y="1594.939393939394" type="line"/>
      <point x="247.1035353535353" y="1897.828282828283" type="line"/>
      <point x="-71.64646464646462" y="1897.828282828283" type="line"/>
    </contour>
  </outline>
</glyph>
<glyph name="Iacute" format="2">
  <advance width="553.9797979797979"/>
  <unicode hex="00CD"/>
  <anchor x="276.98989898989896" y="1520.0" name="_top"/>
  <anchor x="276.63888888888886" y="0.0" name="bottom"/>
  <anchor x="432.08838383838383" y="0.0" name="ogonek"/>
  <anchor x="276.98989898989896" y="1520.0" name="top"/>
  <outline>
    <contour>
      <point x="121.89141414141415" y="0.0" type="line"/>
      <point x="432.08838383838383" y="0.0" type="line"/>
      <point x="432.08838383838383" y="1480.0" type="line"/>
      <point x="121.89141414141415" y="1480.0" type="line"/>
    </contour>
    <contour>
      <point x="139.9318181818182" y="1594.939393939394" type="line"/>
      <point x="412.6439393939394" y="1594.939393939394" type="line"/>
      <point x="624.9242424242424" y="1897.828282828283" type="line"/>
      <point x="306.17424242424244" y="1897.828282828283" type="line"/>
    </contour>
  </outline>
</glyph>
<glyph name="Icircumflex" format="2">
  <advance width="553.9797979797979"/>
  <unicode hex="00CE"/>
  <anchor x="276.98989898989896" y="1520.0" name="_top"/>
  <anchor x="276.63888888888886" y="0.0" name="bottom"/>
  <anchor x="432.08838383838383" y="0.0" name="ogonek"/>
  <anchor x="276.98989898989896" y="1520.0" name="top"/>
  <outline>
    <contour>
      <point x="121.89141414141415" y="0.0" type="line"/>
      <point x="432.08838383838383" y="0.0" type="line"/>
      <point x="432.08838383838383" y="1480.0" type="line"/>
      <point x="121.89141414141415" y="1480.0" type="line"/>
    </contour>
    <contour>
      <point x="-77.64393939393939" y="1594.939393939394" type="line"/>
      <point x="143.52525252525248" y="1594.939393939394" type="line"/>
      <point x="298.3712121212121" y="1815.6767676767677" type="line"/>
      <point x="255.60858585858585" y="1815.6767676767677" type="line"/>
      <point x="410.45454545454544" y="1594.939393939394" type="line"/>
      <point x="631.6237373737373" y="1594.939393939394" type="line"/>
      <point x="407.30555555555554" y="1897.828282828283" type="line"/>
      <point x="146.67424242424244" y="1897.828282828283" type="line"/>
    </contour>
  </outline>
</glyph>
<glyph name="Idieresis" format="2">
  <advance width="553.9797979797979"/>
  <unicode hex="00CF"/>
  <anchor x="276.98989898989896" y="1520.0" name="_top"/>
  <anchor x="276.63888888888886" y="0.0" name="bottom"/>
  <anchor x="432.08838383838383" y="0.0" name="ogonek"/>
  <anchor x="276.98989898989896" y="1520.0" name="top"/>
  <outline>
    <contour>
      <point x="121.89141414141415" y="0.0" type="line"/>
      <point x="432.08838383838383" y="0.0" type="line"/>
      <point x="432.08838383838383" y="1480.0" type="line"/>
      <point x="121.89141414141415" y="1480.0" type="line"/>
    </contour>
    <contour>
      <point x="520.1641414141413" y="1605.7575757575758" type="curve" smooth="yes"/>
      <point x="628.4722222222222" y="1605.7575757575758"/>
      <point x="688.1691919191919" y="1658.5404040404042"/>
      <point x="688.1691919191919" y="1750.5959595959596" type="curve" smooth="yes"/>
      <point x="688.1691919191919" y="1842.6515151515152"/>
      <point x="628.4722222222222" y="1896.030303030303"/>
      <point x="520.1641414141413" y="1896.030303030303" type="curve" smooth="yes"/>
      <point x="411.8560606060606" y="1896.030303030303"/>
      <point x="352.15909090909093" y="1842.6515151515152"/>
      <point x="352.15909090909093" y="1750.5959595959596" type="curve" smooth="yes"/>
      <point x="352.15909090909093" y="1658.5404040404042"/>
      <point x="411.8560606060606" y="1605.7575757575758"/>
    </contour>
    <contour>
      <point x="33.81565656565656" y="1605.7575757575758" type="curve" smooth="yes"/>
      <point x="142.12373737373736" y="1605.7575757575758"/>
      <point x="201.82070707070704" y="1658.5404040404042"/>
      <point x="201.82070707070704" y="1750.5959595959596" type="curve" smooth="yes"/>
      <point x="201.82070707070704" y="1842.6515151515152"/>
      <point x="142.12373737373736" y="1896.030303030303"/>
      <point x="33.81565656565656" y="1896.030303030303" type="curve" smooth="yes"/>
      <point x="-74.49242424242424" y="1896.030303030303"/>
      <point x="-134.18939393939394" y="1842.6515151515152"/>
      <point x="-134.18939393939394" y="1750.5959595959596" type="curve" smooth="yes"/>
      <point x="-134.18939393939394" y="1658.5404040404042"/>
      <point x="-74.49242424242424" y="1605.7575757575758"/>
    </contour>
  </outline>
</glyph>
<glyph name="Ntilde" format="2">
  <advance width="1441.75"/>
  <unicode hex="00D1"/>
  <anchor x="720.9494949494949" y="1520.0" name="_top"/>
  <anchor x="720.9494949494949" y="0.0" name="bottom"/>
  <anchor x="720.9494949494949" y="1520.0" name="top"/>
  <outline>
    <contour>
      <point x="121.89141414141415" y="0.0" type="line"/>
      <point x="412.88888888888886" y="0.0" type="line"/>
      <point x="412.88888888888886" y="1076.7121212121212" type="line"/>
      <point x="359.9772727272727" y="1076.7121212121212" type="line"/>
      <point x="1008.479797979798" y="0.0" type="line"/>
      <point x="1319.858585858586" y="0.0" type="line"/>
      <point x="1319.858585858586" y="1480.0" type="line"/>
      <point x="1028.861111111111" y="1480.0" type="line"/>
      <point x="1028.861111111111" y="403.2878787878787" type="line"/>
      <point x="1081.7727272727273" y="403.2878787878787" type="line"/>
      <point x="433.27020202020196" y="1480.0" type="line"/>
      <point x="121.89141414141415" y="1480.0" type="line"/>
    </contour>
    <contour>
      <point x="885.7323232323232" y="1618.9267676767677" type="curve" smooth="yes"/>
      <point x="972.0479797979798" y="1618.9267676767677"/>
      <point x="1030.7272727272727" y="1641.2247474747476"/>
      <point x="1080.4267676767677" y="1690.2550505050506" type="curve"/>
      <point x="1080.4267676767677" y="1873.9924242424242" type="line"/>
      <point x="1022.3762626262626" y="1825.641414141414"/>
      <point x="968.8459595959596" y="1801.439393939394"/>
      <point x="889.9444444444445" y="1801.439393939394" type="curve" smooth="yes"/>
      <point x="778.7247474747475" y="1801.439393939394"/>
      <point x="688.4924242424242" y="1880.5454545454545"/>
      <point x="556.1666666666666" y="1880.5454545454545" type="curve" smooth="yes"/>
      <point x="469.8510101010101" y="1880.5454545454545"/>
      <point x="411.1717171717172" y="1856.8434343434344"/>
      <point x="361.47222222222223" y="1807.8131313131314" type="curve"/>
      <point x="361.47222222222223" y="1624.0757575757575" type="line"/>
      <point x="419.52272727272725" y="1672.4267676767677"/>
      <point x="473.0530303030303" y="1696.628787878788"/>
      <point x="551.9545454545455" y="1696.628787878788" type="curve" smooth="yes"/>
      <point x="663.1742424242424" y="1696.628787878788"/>
      <point x="753.4065656565656" y="1618.9267676767677"/>
    </contour>
  </outline>
</glyph>
<glyph name="Otilde" format="2">
  <advance width="1444.3131313131312"/>
  <unicode hex="00D5"/>
  <anchor x="722.1565656565656" y="1520.0" name="_top"/>
  <anchor x="722.1565656565656" y="0.0" name="bottom"/>
  <anchor x="722.1565656565656" y="740.0" name="center"/>
  <anchor x="895.6742424242424" y="0.0" name="ogonek"/>
  <anchor x="722.1565656565656" y="1520.0" name="top"/>
  <anchor x="44.861111111111114" y="1480.0" name="topleft"/>
  <anchor x="903.9494949494949" y="1480.0" name="topright"/>
  <outline>
    <contour>
      <point x="722.1565656565656" y="-19.404040404040405" type="curve" smooth="yes"/>
      <point x="1110.1136363636363" y="-19.404040404040405"/>
      <point x="1368.9570707070707" y="211.66666666666666"/>
      <point x="1368.9570707070707" y="740.0" type="curve" smooth="yes"/>
      <point x="1368.9570707070707" y="1268.3333333333333"/>
      <point x="1110.9116161616162" y="1499.4040404040404"/>
      <point x="722.1565656565656" y="1499.4040404040404" type="curve" smooth="yes"/>
      <point x="333.8484848484849" y="1499.4040404040404"/>
      <point x="75.35606060606061" y="1269.0353535353536"/>
      <point x="75.35606060606061" y="740.0" type="curve" smooth="yes"/>
      <point x="75.35606060606061" y="210.96464646464648"/>
      <point x="333.75252525252523" y="-19.404040404040405"/>
    </contour>
    <contour>
      <point x="722.1565656565656" y="235.5883838383838" type="curve" smooth="yes"/>
      <point x="517.1464646464647" y="235.5883838383838"/>
      <point x="394.46717171717165" y="366.28535353535347"/>
      <point x="394.46717171717165" y="746.8080808080808" type="curve" smooth="yes"/>
      <point x="394.46717171717165" y="1113.7146464646464"/>
      <point x="518.1994949494949" y="1244.4116161616162"/>
      <point x="722.1565656565656" y="1244.4116161616162" type="curve" smooth="yes"/>
      <point x="926.1136363636364" y="1244.4116161616162"/>
      <point x="1049.8459595959596" y="1112.6616161616162"/>
      <point x="1049.8459595959596" y="733.1919191919192" type="curve" smooth="yes"/>
      <point x="1049.8459595959596" y="367.33838383838383"/>
      <point x="927.1666666666666" y="235.5883838383838"/>
    </contour>
    <contour>
      <point x="886.939393939394" y="1618.9267676767677" type="curve" smooth="yes"/>
      <point x="973.2550505050505" y="1618.9267676767677"/>
      <point x="1031.9343434343434" y="1641.2247474747476"/>
      <point x="1081.6338383838383" y="1690.2550505050506" type="curve"/>
      <point x="1081.6338383838383" y="1873.9924242424242" type="line"/>
      <point x="1023.5833333333333" y="1825.641414141414"/>
      <point x="970.0530303030303" y="1801.439393939394"/>
      <point x="891.1515151515151" y="1801.439393939394" type="curve" smooth="yes"/>
      <point x="779.9318181818181" y="1801.439393939394"/>
      <point x="689.6994949494949" y="1880.5454545454545"/>
      <point x="557.3737373737374" y="1880.5454545454545" type="curve" smooth="yes"/>
      <point x="471.05808080808083" y="1880.5454545454545"/>
      <point x="412.3787878787879" y="1856.8434343434344"/>
      <point x="362.67929292929296" y="1807.8131313131314" type="curve"/>
      <point x="362.67929292929296" y="1624.0757575757575" type="line"/>
      <point x="420.729797979798" y="1672.4267676767677"/>
      <point x="474.260101010101" y="1696.628787878788"/>
      <point x="553.1616161616162" y="1696.628787878788" type="curve" smooth="yes"/>
      <point x="664.3813131313132" y="1696.628787878788"/>
      <point x="754.6136363636364" y="1618.9267676767677"/>
    </contour>
  </outline>
</glyph>
<glyph name="Odieresis" format="2">
  <advance width="1444.3131313131312"/>
  <unicode hex="00D6"/>
  <anchor x="722.1565656565656" y="1520.0" name="_top"/>
  <anchor x="722.1565656565656" y="0.0" name="bottom"/>
  <anchor x="722.1565656565656" y="740.0" name="center"/>
  <anchor x="895.6742424242424" y="0.0" name="ogonek"/>
  <anchor x="722.1565656565656" y="1520.0" name="top"/>
  <anchor x="44.861111111111114" y="1480.0" name="topleft"/>
  <anchor x="903.9494949494949" y="1480.0" name="topright"/>
  <outline>
    <contour>
      <point x="722.1565656565656" y="-19.404040404040405" type="curve" smooth="yes"/>
      <point x="1110.1136363636363" y="-19.404040404040405"/>
      <point x="1368.9570707070707" y="211.66666666666666"/>
      <point x="1368.9570707070707" y="740.0" type="curve" smooth="yes"/>
      <point x="1368.9570707070707" y="1268.3333333333333"/>
      <point x="1110.9116161616162" y="1499.4040404040404"/>
      <point x="722.1565656565656" y="1499.4040404040404" type="curve" smooth="yes"/>
      <point x="333.8484848484849" y="1499.4040404040404"/>
      <point x="75.35606060606061" y="1269.0353535353536"/>
      <point x="75.35606060606061" y="740.0" type="curve" smooth="yes"/>
      <point x="75.35606060606061" y="210.96464646464648"/>
      <point x="333.75252525252523" y="-19.404040404040405"/>
    </contour>
    <contour>
      <point x="722.1565656565656" y="235.5883838383838" type="curve" smooth="yes"/>
      <point x="517.1464646464647" y="235.5883838383838"/>
      <point x="394.46717171717165" y="366.28535353535347"/>
      <point x="394.46717171717165" y="746.8080808080808" type="curve" smooth="yes"/>
      <point x="394.46717171717165" y="1113.7146464646464"/>
      <point x="518.1994949494949" y="1244.4116161616162"/>
      <point x="722.1565656565656" y="1244.4116161616162" type="curve" smooth="yes"/>
      <point x="926.1136363636364" y="1244.4116161616162"/>
      <point x="1049.8459595959596" y="1112.6616161616162"/>
      <point x="1049.8459595959596" y="733.1919191919192" type="curve" smooth="yes"/>
      <point x="1049.8459595959596" y="367.33838383838383"/>
      <point x="927.1666666666666" y="235.5883838383838"/>
    </contour>
    <contour>
      <point x="965.3308080808081" y="1605.7575757575758" type="curve" smooth="yes"/>
      <point x="1073.638888888889" y="1605.7575757575758"/>
      <point x="1133.3358585858587" y="1658.5404040404042"/>
      <point x="1133.3358585858587" y="1750.5959595959596" type="curve" smooth="yes"/>
      <point x="1133.3358585858587" y="1842.6515151515152"/>
      <point x="1073.638888888889" y="1896.030303030303"/>
      <point x="965.3308080808081" y="1896.030303030303" type="curve" smooth="yes"/>
      <point x="857.0227272727273" y="1896.030303030303"/>
      <point x="797.3257575757576" y="1842.6515151515152"/>
      <point x="797.3257575757576" y="1750.5959595959596" type="curve" smooth="yes"/>
      <point x="797.3257575757576" y="1658.5404040404042"/>
      <point x="857.0227272727273" y="1605.7575757575758"/>
    </contour>
    <contour>
      <point x="478.9823232323232" y="1605.7575757575758" type="curve" smooth="yes"/>
      <point x="587.2904040404039" y="1605.7575757575758"/>
      <point x="646.9873737373737" y="1658.5404040404042"/>
      <point x="646.9873737373737" y="1750.5959595959596" type="curve" smooth="yes"/>
      <point x="646.9873737373737" y="1842.6515151515152"/>
      <point x="587.2904040404039" y="1896.030303030303"/>
      <point x="478.9823232323232" y="1896.030303030303" type="curve" smooth="yes"/>
      <point x="370.67424242424244" y="1896.030303030303"/>
      <point x="310.97727272727275" y="1842.6515151515152"/>
      <point x="310.97727272727275" y="1750.5959595959596" type="curve" smooth="yes"/>
      <point x="310.97727272727275" y="1658.5404040404042"/>
      <point x="370.67424242424244" y="1605.7575757575758"/>
    </contour>
  </outline>
</glyph>
<glyph name="multiply" format="2">
  <advance width="1015.3535353535353"/>
  <unicode hex="00D7"/>
  <outline>
    <contour>
      <point x="248.8181818181818" y="334.2878787878788" type="line"/>
      <point x="507.67676767676767" y="593.1464646464647" type="line"/>
      <point x="766.5353535353536" y="334.2878787878788" type="line"/>
      <point x="933.3888888888889" y="501.14141414141415" type="line"/>
      <point x="674.530303030303" y="760.0" type="line"/>
      <point x="933.3888888888889" y="1018.8585858585859" type="line"/>
      <point x="766.5353535353536" y="1185.7121212121212" type="line"/>
      <point x="507.67676767676767" y="926.8535353535353" type="line"/>
      <point x="248.8181818181818" y="1185.7121212121212" type="line"/>
      <point x="81.96464646464648" y="1018.8585858585859" type="line"/>
      <point x="340.82323232323233" y="760.0" type="line"/>
      <point x="81.96464646464648" y="501.14141414141415" type="line"/>
    </contour>
  </outline>
</glyph>
<glyph name="Oslash" format="2">
  <advance width="1444.3131313131312"/>
  <unicode hex="00D8"/>
  <anchor x="722.1565656565656" y="740.0" name="_center"/>
  <anchor x="722.5075757575758" y="0.0" name="bottom"/>
  <anchor x="722.1565656565656" y="740.0" name="center"/>
  <anchor x="895.6742424242424" y="0.0" name="ogonek"/>
  <anchor x="722.209595959596" y="1520.0" name="top"/>
  <anchor x="44.861111111111114" y="1480.0" name="topleft"/>
  <anchor x="903.9494949494949" y="1480.0" name="topright"/>
  <outline>
    <contour>
      <point x="722.1565656565656" y="-19.404040404040405" type="curve" smooth="yes"/>
      <point x="1110.1136363636363" y="-19.404040404040405"/>
      <point x="1368.9570707070707" y="211.66666666666666"/>
      <point x="1368.9570707070707" y="740.0" type="curve" smooth="yes"/>
      <point x="1368.9570707070707" y="1268.3333333333333"/>
      <point x="1110.9116161616162" y="1499.4040404040404"/>
      <point x="722.1565656565656" y="1499.4040404040404" type="curve" smooth="yes"/>
      <point x="333.8484848484849" y="1499.4040404040404"/>
      <point x="75.35606060606061" y="1269.0353535353536"/>
      <point x="75.35606060606061" y="740.0" type="curve" smooth="yes"/>
      <point x="75.35606060606061" y="210.96464646464648"/>
      <point x="333.75252525252523" y="-19.404040404040405"/>
    </contour>
    <contour>
      <point x="722.1565656565656" y="235.5883838383838" type="curve" smooth="yes"/>
      <point x="517.1464646464647" y="235.5883838383838"/>
      <point x="394.46717171717165" y="366.28535353535347"/>
      <point x="394.46717171717165" y="746.8080808080808" type="curve" smooth="yes"/>
      <point x="394.46717171717165" y="1113.7146464646464"/>
      <point x="518.1994949494949" y="1244.4116161616162"/>
      <point x="722.1565656565656" y="1244.4116161616162" type="curve" smooth="yes"/>
      <point x="926.1136363636364" y="1244.4116161616162"/>
      <point x="1049.8459595959596" y="1112.6616161616162"/>
      <point x="1049.8459595959596" y="733.1919191919192" type="curve" smooth="yes"/>
      <point x="1049.8459595959596" y="367.33838383838383"/>
      <point x="927.1666666666666" y="235.5883838383838"/>
    </contour>
    <contour>
      <point x="263.42171717171715" y="-48.29292929292929" type="line"/>
      <point x="1315.5277777777778" y="1431.111111111111" type="line"/>
      <point x="1180.891414141414" y="1528.2929292929293" type="line"/>
      <point x="128.78535353535352" y="48.88888888888888" type="line"/>
    </contour>
  </outline>
</glyph>
<glyph name="Ugrave" format="2">
  <advance width="1395.5681818181818"/>
  <unicode hex="00D9"/>
  <anchor x="701.4166666666666" y="1520.0" name="_top"/>
  <anchor x="701.4166666666666" y="0.0" name="bottom"/>
  <anchor x="917.0732323232323" y="0.2979797979797981" name="ogonek"/>
  <anchor x="701.4166666666666" y="1520.0" name="top"/>
  <anchor x="1012.0909090909091" y="1480.0" name="topright"/>
  <outline>
    <contour>
      <point x="701.4166666666666" y="-19.404040404040405" type="curve" smooth="yes"/>
      <point x="1098.310606060606" y="-19.404040404040405"/>
      <point x="1280.2727272727273" y="170.46464646464645"/>
      <point x="1280.2727272727273" y="591.9343434343434" type="curve" smooth="yes"/>
      <point x="1280.2727272727273" y="1480.0" type="line"/>
      <point x="976.2878787878788" y="1480.0" type="line"/>
      <point x="976.2878787878788" y="559.1186868686868" type="line" smooth="yes"/>
      <point x="976.2878787878788" y="330.99999999999994"/>
      <point x="885.3686868686868" y="238.94949494949492"/>
      <point x="701.4166666666666" y="238.94949494949492" type="curve" smooth="yes"/>
      <point x="517.4646464646464" y="238.94949494949492"/>
      <point x="425.4924242424242" y="330.99999999999994"/>
      <point x="425.4924242424242" y="559.1186868686868" type="curve" smooth="yes"/>
      <point x="425.4924242424242" y="1480.0" type="line"/>
      <point x="115.29545454545456" y="1480.0" type="line"/>
      <point x="115.29545454545456" y="591.9343434343434" type="line" smooth="yes"/>
      <point x="115.29545454545456" y="170.46464646464645"/>
      <point x="300.66161616161617" y="-19.404040404040405"/>
    </contour>
    <contour>
      <point x="565.0606060606061" y="1594.939393939394" type="line"/>
      <point x="837.7727272727273" y="1594.939393939394" type="line"/>
      <point x="671.530303030303" y="1897.828282828283" type="line"/>
      <point x="352.78030303030306" y="1897.828282828283" type="line"/>
    </contour>
  </outline>
</glyph>
<glyph name="Ucircumflex" format="2">
  <advance width="1395.5681818181818"/>
  <unicode hex="00DB"/>
  <anchor x="701.4166666666666" y="1520.0" name="_top"/>
  <anchor x="701.4166666666666" y="0.0" name="bottom"/>
  <anchor x="917.0732323232323" y="0.2979797979797981" name="ogonek"/>
  <anchor x="701.4166666666666" y="1520.0" name="top"/>
  <anchor x="1012.0909090909091" y="1480.0" name="topright"/>
  <outline>
    <contour>
      <point x="701.4166666666666" y="-19.404040404040405" type="curve" smooth="yes"/>
      <point x="1098.310606060606" y="-19.404040404040405"/>
      <point x="1280.2727272727273" y="170.46464646464645"/>
      <point x="1280.2727272727273" y="591.9343434343434" type="curve" smooth="yes"/>
      <point x="1280.2727272727273" y="1480.0" type="line"/>
      <point x="976.2878787878788" y="1480.0" type="line"/>
      <point x="976.2878787878788" y="559.1186868686868" type="line" smooth="yes"/>
      <point x="976.2878787878788" y="330.99999999999994"/>
      <point x="885.3686868686868" y="238.94949494949492"/>
      <point x="701.4166666666666" y="238.94949494949492" type="curve" smooth="yes"/>
      <point x="517.4646464646464" y="238.94949494949492"/>
      <point x="425.4924242424242" y="330.99999999999994"/>
      <point x="425.4924242424242" y="559.1186868686868" type="curve" smooth="yes"/>
      <point x="425.4924242424242" y="1480.0" type="line"/>
      <point x="115.29545454545456" y="1480.0" type="line"/>
      <point x="115.29545454545456" y="591.9343434343434" type="line" smooth="yes"/>
      <point x="115.29545454545456" y="170.46464646464645"/>
      <point x="300.66161616161617" y="-19.404040404040405"/>
    </contour>
    <contour>
      <point x="346.7828282828283" y="1594.939393939394" type="line"/>
      <point x="567.9520202020202" y="1594.939393939394" type="line"/>
      <point x="722.7979797979798" y="1815.6767676767677" type="line"/>
      <point x="680.0353535353536" y="1815.6767676767677" type="line"/>
      <point x="834.8813131313132" y="1594.939393939394" type="line"/>
      <point x="1056.050505050505" y="1594.939393939394" type="line"/>
      <point x="831.7323232323232" y="1897.828282828283" type="line"/>
      <point x="571.1010101010102" y="1897.828282828283" type="line"/>
    </contour>
  </outline>
</glyph>
<glyph name="Thorn" format="2">
  <advance width="1252.9065656565656"/>
  <unicode hex="00DE"/>
  <outline>
    <contour>
      <point x="121.89141414141415" y="0.0" type="line"/>
      <point x="432.08838383838383" y="0.0" type="line"/>
      <point x="432.08838383838383" y="230.60353535353536" type="line"/>
      <point x="477.07070707070704" y="228.5176767676768"/>
      <point x="516.3080808080808" y="226.3686868686869"/>
      <point x="565.7474747474747" y="226.3686868686869" type="curve" smooth="yes"/>
      <point x="967.7474747474747" y="226.3686868686869"/>
      <point x="1176.540404040404" y="407.75"/>
      <point x="1176.540404040404" y="759.85101010101" type="curve" smooth="yes"/>
      <point x="1176.540404040404" y="1129.8989898989898"/>
      <point x="964.5555555555555" y="1294.6843434343434"/>
      <point x="547.5656565656566" y="1294.6843434343434" type="curve" smooth="yes"/>
      <point x="506.02525252525254" y="1294.6843434343434"/>
      <point x="462.9015151515151" y="1290.5984848484848"/>
      <point x="432.08838383838383" y="1287.6186868686868" type="curve"/>
      <point x="432.08838383838383" y="1480.1489898989898" type="line"/>
      <point x="121.89141414141415" y="1480.1489898989898" type="line"/>
    </contour>
    <contour>
      <point x="567.0883838383838" y="468.57575757575756" type="curve" smooth="yes"/>
      <point x="516.0" y="468.57575757575756"/>
      <point x="475.77272727272725" y="470.87373737373736"/>
      <point x="432.08838383838383" y="476.3636363636363" type="curve"/>
      <point x="432.08838383838383" y="1041.199494949495" type="line"/>
      <point x="475.24242424242425" y="1048.9873737373737"/>
      <point x="516.4823232323232" y="1052.4772727272727"/>
      <point x="571.7853535353536" y="1052.4772727272727" type="curve" smooth="yes"/>
      <point x="777.780303030303" y="1052.4772727272727"/>
      <point x="874.6287878787879" y="964.4924242424242"/>
      <point x="874.6287878787879" y="756.7020202020202" type="curve" smooth="yes"/>
      <point x="874.6287878787879" y="552.2222222222222"/>
      <point x="776.8863636363636" y="468.57575757575756"/>
    </contour>
  </outline>
</glyph>
<glyph name="germandbls" format="2">
  <advance width="1454.4090909090908"/>
  <unicode hex="00DF"/>
  <outline>
    <contour>
      <point x="943.3787878787879" y="-20.808080808080806" type="curve" smooth="yes"/>
      <point x="1243.7727272727273" y="-20.808080808080806"/>
      <point x="1414.0" y="112.25252525252525"/>
      <point x="1414.0" y="329.89646464646466" type="curve" smooth="yes"/>
      <point x="1414.0" y="513.6136363636364"/>
      <point x="1322.8131313131312" y="603.1994949494949"/>
      <point x="1141.1616161616162" y="643.1691919191919" type="curve" smooth="yes"/>
      <point x="982.5732323232323" y="676.4873737373737" type="line" smooth="yes"/>
      <point x="917.3181818181818" y="691.7348484848485"/>
      <point x="890.5479797979797" y="719.0176767676768"/>
      <point x="890.5479797979797" y="768.3358585858585" type="curve" smooth="yes"/>
      <point x="890.5479797979797" y="827.1969696969697"/>
      <point x="937.1818181818181" y="879.4166666666667"/>
      <point x="1114.5580808080808" y="879.4166666666667" type="curve" smooth="yes"/>
      <point x="1168.080808080808" y="879.4166666666667"/>
      <point x="1214.5151515151515" y="876.0757575757576"/>
      <point x="1256.621212121212" y="869.5328282828283" type="curve"/>
      <point x="1276.449494949495" y="944.9318181818182"/>
      <point x="1292.2575757575758" y="1034.1010101010102"/>
      <point x="1292.2575757575758" y="1124.9065656565656" type="curve" smooth="yes"/>
      <point x="1292.2575757575758" y="1488.8762626262626"/>
      <point x="1076.5732323232323" y="1636.0"/>
      <point x="778.5101010101009" y="1636.0" type="curve" smooth="yes"/>
      <point x="405.47474747474746" y="1636.0"/>
      <point x="184.2929292929293" y="1423.4570707070707"/>
      <point x="184.2929292929293" y="1056.6969696969697" type="curve" smooth="yes"/>
      <point x="184.2929292929293" y="0.0" type="line"/>
      <point x="489.22474747474746" y="0.0" type="line"/>
      <point x="489.22474747474746" y="1056.6641414141413" type="line" smooth="yes"/>
      <point x="489.22474747474746" y="1308.459595959596"/>
      <point x="591.8358585858585" y="1419.0656565656566"/>
      <point x="799.8686868686868" y="1419.0656565656566" type="curve" smooth="yes"/>
      <point x="958.7449494949494" y="1419.0656565656566"/>
      <point x="1073.111111111111" y="1345.361111111111"/>
      <point x="1072.9621212121212" y="1138.2020202020203" type="curve" smooth="yes"/>
      <point x="1072.9621212121212" y="1074.310606060606"/>
      <point x="1063.8030303030303" y="1014.3333333333334"/>
      <point x="1049.1868686868686" y="955.8459595959596" type="curve"/>
      <point x="1225.25" y="1095.2323232323233" type="line"/>
      <point x="1186.3030303030303" y="1100.2752525252524"/>
      <point x="1114.7651515151515" y="1102.4242424242425"/>
      <point x="1078.4040404040404" y="1102.4242424242425" type="curve" smooth="yes"/>
      <point x="767.2449494949494" y="1102.4242424242425"/>
      <point x="609.7929292929293" y="971.9570707070707"/>
      <point x="609.7929292929293" y="764.5378787878788" type="curve" smooth="yes"/>
      <point x="609.7929292929293" y="590.489898989899"/>
      <point x="697.4065656565656" y="489.6717171717172"/>
      <point x="881.9494949494949" y="450.74494949494954" type="curve" smooth="yes"/>
      <point x="1040.5378787878788" y="417.42676767676767" type="line" smooth="yes"/>
      <point x="1105.7929292929293" y="402.17929292929296"/>
      <point x="1133.2449494949494" y="376.52525252525254"/>
      <point x="1133.2449494949494" y="320.6843434343434" type="curve" smooth="yes"/>
      <point x="1133.2449494949494" y="252.55555555555554"/>
      <point x="1083.4823232323233" y="211.21969696969694"/>
      <point x="939.4217171717171" y="211.21969696969694" type="curve" smooth="yes"/>
      <point x="841.3181818181818" y="211.21969696969694"/>
      <point x="732.9191919191919" y="225.78282828282823"/>
      <point x="640.1313131313132" y="251.57070707070704" type="curve"/>
      <point x="640.1313131313132" y="18.595959595959595" type="line"/>
      <point x="736.0328282828282" y="-8.106060606060606"/>
      <point x="844.560606060606" y="-20.808080808080806"/>
    </contour>
    <contour>
      <point x="16.41414141414141" y="851.1313131313132" type="line"/>
      <point x="305.4520202020202" y="851.1313131313132" type="line"/>
      <point x="305.4520202020202" y="1094.040404040404" type="line"/>
      <point x="16.41414141414141" y="1094.040404040404" type="line"/>
    </contour>
  </outline>
</glyph>
